/* XPM */
static char *_392_88b6602d02615eba3eb2c6f098debde367a7b353d5ab457db3ad478b653bda29[] = {
/* columns rows colors chars-per-pixel */
"64 64 25 1 ",
"  c black",
". c #382C14",
"X c #2C2C2C",
"o c gray19",
"O c #343434",
"+ c gray22",
"@ c #403018",
"# c #483818",
"$ c #543C1C",
"% c #5C4020",
"& c #6C4824",
"* c #744C28",
"= c gray25",
"- c #484848",
"; c gray33",
": c #646464",
"> c #7C7C7C",
", c #80502C",
"< c #885830",
"1 c #905C34",
"2 c #9C6038",
"3 c #A0643C",
"4 c #A86840",
"5 c #980088",
"6 c gray55",
/* pixels */
"5555555555555555555555555555555555555555555555555555555555555555",
"5555555555555555555555555555555555555555555555555555555555555555",
"5555555555555555555555555555555555555555555555555555555555555555",
"5555555555555555555555555555555555555555555555555555555555555555",
"5555555555555555555555555555555555555555555555555555555555555555",
"5555555555555555555555555555555555555555555555555555555555555555",
"5555555555555555555555555555555555555555555555555555555555555555",
"5555555555555555555555555555555555555555555555555555555555555555",
"5555555555555555555555555555555555555555555555555555555555555555",
"5555555555555555555555555555555555555555555555555555555555555555",
"5555555555555555555555555555555555555555555555555555555555555555",
"5555555555555555555555555555555555555555555555555555555555555555",
"5555555555555555555555555555555555555555555555555555555555555555",
"5555555555555555555555555555555555555555555555555555555555555555",
"5555555555555555555555555555555555555555555555555555555555555555",
"5555555555555555555555555555555555555555555555555555555555555555",
"5555555555555555555555555555555555555555555555555555555555555555",
"5555555555555555555555555555555555555555555555555555555555555555",
"5555555555555555555555555555555555555555555555555555555555555555",
"5555555555555555555555555555555555555555555555555555555555555555",
"5555555555555555555555555555555555555555555555555555555555555555",
"5555555555555555555555555555555555555555555555555555555555555555",
"5555555555555555555555555555555555555555555555555555555555555555",
"5555555555555555555555555555555555555555555555555555555555555555",
"5555555555555555555555555555555555555555555555555555555555555555",
"5555555555555555555555555555555555555555555555555555555555555555",
"5555555555555555555555555555555555555555555555555555555555555555",
"5555555555555555555555555555555555555555555555555555555555555555",
"5555555555555555555555555555555555555555555555555555555555555555",
"5555555555555555555555555555555555555555555555555555555555555555",
"5555555555555555555555555555555555555555555555555555555555555555",
"5555555555555555555555555555555555555555555555555555555555555555",
"55555555555555555555555554:554:555555555555555555555555555555555",
"5555555555555555555555554::54::555555555555555555555555555555555",
"5555555555555555555555554;;54;5555555555555555555555555555555555",
"55555555555555555555555XXXXX;;&555555555555555555555555555555555",
"5555555555555555555555XXX-;43;;&55555555555555555555555555555555",
"555555555555555555555+++- +:442&55555555555555555555555555555555",
"5555555555555555555  X+-24444431&5555555555555555555555555555555",
"5555555555555555555  +;1;-+44444&5555555555555555555555555555555",
"5555555555555555555X+++;6:@$;444&5555555555555555555555555555555",
"55555555555555555555;:>;:>;;,44415555555555555XXXX55555555555555",
"555555555555555555555XXX++,,4444;X5555555555X%$$@@X5555555555555",
"5555555555555555555555----,,4444;+XoooooX<<<<*%$#X55555555555555",
"55555555555555555555555----144444;O++++O444;;...5555555555555555",
"55555555555555555555555---;;444:;4;====:41;..5555555555555555555",
"55555555555555555555555-;-;14:;;:444==;444&#55555555555555555555",
"55555555555555555555555-;;;1;;:444444;:4441&55555555555555555555",
"55555555555555555555555-;-1;;:444444;;44444&55555555555555555555",
"55555555555555555555555-;-;;;;4444*1;;:4444,&5555555555555555555",
"555555555555555555555555-;;-=;:4444*1@;4444,&5555555555555555555",
"555555555555555555555555-4;;-=;:<44%:@;4441,&5555555555555555555",
"555555555555555555555555<---+OX#&4*+;@;:441,&5555555555555555555",
"555555555555555555555555<<#XOOX&34<OOo@;:41&55555555555555555555",
"555555555555555555555555<%#5XX&44<@XXXX-:44,&5555555555555555555",
"5555555555555555555555555##55544<@<##55--:4,&5555555555555555555",
"555555555555555555555555555555444<<##55-:41,&5555555555555555555",
"555555555555555555555555555555<<*%###55-:4,&55555555555555555555",
"555555555555555555555555555555555###555;41&555555555555555555555",
"555555555555555555555555555555555###55544,#555555555555555555555",
"55555555555555555555555555555555###555*44,5555555555555555555555",
"555555555555555555555555555555####;;;*441;;;;;;;;::5555555555555",
"555555555555555555555555555;;####XXXX444*XXXXXXX++--;::555555555",
"5555555555555555555555555;;;;---+++++++++++++++++--5555555555555"
};
