/* XPM */
static char *_3545_764d70e5732d6949ea9fe0427ecc15d6cf5fdc5f434841fd05e68932ee7cef51[] = {
/* columns rows colors chars-per-pixel */
"64 64 21 1 ",
"  c black",
". c #382C14",
"X c #2C2C2C",
"o c gray22",
"O c #403018",
"+ c #483818",
"@ c #543C1C",
"# c #5C4020",
"$ c #6C4824",
"% c #744C28",
"& c gray25",
"* c #484848",
"= c gray33",
"- c #646464",
"; c #80502C",
": c #885830",
"> c #905C34",
", c #9C6038",
"< c #A0643C",
"1 c #A86840",
"2 c #980088",
/* pixels */
"2222222222222222222222222222222222222222222222222222222222222222",
"2222222222222222222222222222222222222222222222222222222222222222",
"2222222222222222222222222222222222222222222222222222222222222222",
"2222222222222222222222222222222222222222222222222222222222222222",
"2222222222222222222222222222222222222222222222222222222222222222",
"2222222222222222222222222222222222222222222222222222222222222222",
"2222222222222222222222222222222222222222222222222222222222222222",
"2222222222222222222222222222222222222222222222222222222222222222",
"2222222222222222222222222222222222222222222222222222222222222222",
"2222222222222222222222222222222222222222222222222222222222222222",
"2222222222222222222222222222222222222222222222222222222222222222",
"2222222222222222222222222222222222222222222222222222222222222222",
"2222222222222222222222222222222222222222222222222222222222222222",
"2222222222222222222222222222222222222222222222222222222222222222",
"2222222222222222222222222222222222222222222222222222222222222222",
"2222222222222222222222222222222222222222222222222222222222222222",
"2222222222222222222222222222222222222222222222222222222222222222",
"2222222222222222222222222222222222222222222222222222222222222222",
"2222222222222222222222222222222222222222222222222222222222222222",
"2222222222222222222222222222222222222222222222222222222222222222",
"2222222222222222222222222222222222222222222222222222222222222222",
"2222222222222222222222222222222222222222222222222222222222222222",
"2222222222222222222222222222222222222222222222222222222222222222",
"2222222222222222222222222222222222222222222222222222222222222222",
"2222222222222222222222222222222222222222222222222222222222222222",
"2222222222222222222222222222222222222222222222222222222222222222",
"2222222222222222222222222222222222222222222222222222222222222222",
"2222222222222222222222222222222222222222222222222222222222222222",
"2222222222222222222222222222222222222222222222222222222222222222",
"2222222222222222222222222222222222222222222222222222222222222222",
"2222222222222222222222222222222222222222222222222222222222222222",
"2222222222222222222222222222222222222222222222222222222222222222",
"2222222222222222222122222222222222222222222222222222222222222222",
"2222222222222222221*21*22222222222222222222222222222222222222222",
"2222222222222222221o11o22222222222222222222222222222222222222222",
"222222222222222222XX11o22222222222222222222222222222222222222222",
"2222222222222222XXXooo222222222222222222222222222222222222222222",
"222222222222222Xo===**%%2222222222222222222222222222222222222222",
"2222222222222XXo -11==::%222222222222222222222222222222222222222",
"2222222222  Xoo=1111--,,:222222222222222222222222222222222222222",
"2222222222  X=111111111,:%22222222222222222222222222222222222222",
"2222222222o*==:,,,-11111,:2222222222222222222222222222222    222",
"22222222222oo****11=11111:%oo222222ooooooo;222222222222@     222",
"2222222222222oooo&=:111111=oooooooooooooo=-1:;22222@@@@     2222",
"22222222222222222o&=-11111=*&oooooooooo&*11111:$#@@%%%++  222222",
"222222222222222222o*=11111==*&&&&&&&&&&=11111111>>>;;+  22222222",
"222222222222222222o&=-111-==1-********=-111111=>@@@@@@2222222222",
"222222222222222222oo=-111-=-111111111*=1111111,%2222222222222222",
"2222222222222222222o*=11-=-11111<<,,:*=1111111,%2222222222222222",
"2222222222222222222o&=--=111111<<<,,:**-111111,%2222222222222222",
"2222222222222222222oo*=-=111=+:<<<,;;;*=-11111,%2222222222222222",
"22222222222222222222o&*==11111+=======o*--111,%22222222222222222",
"222222222222222222222:Oo*=11111+&&&&&..o*=-11,222222222222222222",
"222222222222222222222%@OO++11<+ooooo....oo=-11:22222222222222222",
"2222222222222222222222%@O%<11+22222.....2oo=11:22222222222222222",
"22222222222222222222222@,11<+O22222.....2*-111:22222222222222222",
"22222222222222222222222111+%+OO2222....22--11:%22222222222222222",
"22222222222222222222222,,,:%+OO2222....22-11:%222222222222222222",
"22222222222222222222222%%%++OO22222...22-11:%2222222222222222222",
"2222222222222222222222222222222222...22111%%22222222222222222222",
"222222222222222222222222222222222....211::2222222222222222222222",
"22222222222222222222222222-===***oooX11:ooooo**=--22222222222222",
"222222222222222222222222--===**oooXX1:::XXXXXoo*****==--22222222",
"22222222222222222222222------===========******====---22222222222"
};
