/* XPM */
static char *_5042_b3b3806711b22f541b61abbc826709dba3f2678205ae6e9fc9c9bd60b619d6c3[] = {
/* columns rows colors chars-per-pixel */
"64 64 23 1 ",
"  c black",
". c #28200C",
"X c #382C14",
"o c #2C2C2C",
"O c gray19",
"+ c #343434",
"@ c gray22",
"# c #403018",
"$ c #483818",
"% c #543C1C",
"& c #5C4020",
"* c #6C4824",
"= c #744C28",
"- c gray25",
"; c #484848",
": c gray33",
"> c #646464",
", c #80502C",
"< c #885830",
"1 c #905C34",
"2 c #9C6038",
"3 c #A86840",
"4 c #980088",
/* pixels */
"4444444444444444444444444444444444444444444444444444444444444444",
"4444444444444444444444444444444444444444444444444444444444444444",
"4444444444444444444444444444444444444444444444444444444444444444",
"4444444444444444444444444444444444444444444444444444444444444444",
"4444444444444444444444444444444444444444444444444444444444444444",
"4444444444444444444444444444444444444444444444444444444444444444",
"4444444444444444444444444444444444444444444444444444444444444444",
"4444444444444444444444444444444444444444444444444444444444444444",
"4444444444444444444444444444444444444444444444444444444444444444",
"4444444444444444444444444444444444444444444444444444444444444444",
"4444444444444444444444444444444444444444444444444444444444444444",
"4444444444444444444444444444444444444444444444444444444444444444",
"4444444444444444444444444444444444444444444444444444444444444444",
"4444444444444444444444444444444444444444444444444444444444444444",
"4444444444444444444444444444444444444444444444444444444444444444",
"4444444444444444444444444444444444444444444444444444444444444444",
"4444444444444444444444444444444444444444444444444444444444444444",
"4444444444444444444444444444444444444444444444444444444444444444",
"4444444444444444444444444444444444444444444444444444444444444444",
"4444444444444444444444444444444444444444444444444444444444444444",
"4444444444444444444444444444444444444444444444444444444444444444",
"4444444444444444444444444444444444444444444444444444444444444444",
"4444444444444444444444444444444444444444444444444444444444444444",
"4444444444444444444444444444444444444444444444444444444444444444",
"4444444444444444444444444444444444444444444444444444444444444444",
"4444444444444444444444444444444444444444444444444444444444444444",
"4444444444444444444444444444444444444444444444444444444444444444",
"4444444444444444444444444444444444444444444444444444444444444444",
"4444444444444444444444444444444444444444444444444444444444444444",
"4444444444444444444444444444444444444444444444444444444444444444",
"4444444444444444444444444444444444444444444444444444444444444444",
"44444444444444444444443:444443:444444444444444444444444444444444",
"44444444444444444444443:44443<:444444444444444444444444444444444",
"44444444444444444444443::44<<:4444444444444444444444444444444444",
"44444444444444444444oo:::o::o:4444444444444444444444444444444444",
"4444444444444444444o;:oo::oo;o4444444444444444444444444444444444",
"444444444444444444o; 3::====1=4444444444444444444444444444444444",
"4444444444444444  :3333331111=4444444444444444444444444444444444",
"4444444444444444o@3333331111===444444444444444444444444444444444",
"4444444444444444o:111:33311111=444444444444444444444444444444444",
"44444444444444444@@;;3:3131111=444444444444444444444444444444444",
"444444444444444444@@@:3333=oooo444444444444444444444444444444444",
"444444444444444444444:333:@Ooooo444444444444444    4444444444444",
"444444444444444444444:333;@+OOOOo44444444444..     4444444444444",
"444444444444444444444:33:;@@+++++;;;;444%%%%##.. 444444444444444",
"444444444444444444444:>:3-@@@@@-:3331<<<,=%%##X44444444444444444",
"444444444444444444444>333;-@@-;:333333<,=&###4444444444444444444",
"444444444444444444444>333>;--;33332222%%%%4444444444444444444444",
"44444444444444444444433333::;333331<*@@%%44444444444444444444444",
"4444444444444444444443333333333332<,*@%%%44444444444444444444444",
"444444444444444444444:33<=3>333332,,&%%%%44444444444444444444444",
"4444444444444444444444:333=:33333,&*&%%%%44444444444444444444444",
"44444444444444444444444333=:33332&-o%@%%444444444444444444444444",
"4444444444444444444444333*;:33332&--@@%%444444444444444444444444",
"444444444444444444444333**44>3332&--@@$%444444444444444444444444",
"44444444444444444444433*,4444>332==4@@#%444444444444444444444444",
"4444444444444444444443*3,&444;@32==4@@@%%44444444444444444444444",
"44444444444444444444443,&&4444>32=44@@@%%44444444444444444444444",
"44444444444444444444444444444433<=44@@%%444444444444444444444444",
"44444444444444444444444444444432=444@%%4444444444444444444444444",
"44444444444444444444444>>>:::33<&>>@@%%4444444444444444444444444",
"44444444444444444444444>>:;;;3<&@@@@%@@@@;;;::>44444444444444444",
"444444444444444444444444>>:@32&ooo%%%oooooo@@;;::>44444444444444",
"44444444444444444444444444422&&ooooooo@@@@@;;;;;;;:::>4444444444"
};
