/* XPM */
static char *_666_a1ef8de940c9551eab8d5b55623cb94f09e38fe7fc10dbe66d1a5e14e09e321f[] = {
/* columns rows colors chars-per-pixel */
"64 64 23 1 ",
"  c black",
". c #28200C",
"X c #2C2C2C",
"o c gray19",
"O c #343434",
"+ c gray22",
"@ c #403018",
"# c #483818",
"$ c #543C1C",
"% c #5C4020",
"& c #6C4824",
"* c #744C28",
"= c gray25",
"- c #484848",
"; c gray33",
": c #646464",
"> c #80502C",
", c #885830",
"< c #905C34",
"1 c #9C6038",
"2 c #A0643C",
"3 c #A86840",
"4 c #980088",
/* pixels */
"4444444444444444444444444444444444444444444444444444444444444444",
"4444444444444444444444444444444444444444444444444444444444444444",
"4444444444444444444444444444444444444444444444444444444444444444",
"4444444444444444444444444444444444444444444444444444444444444444",
"4444444444444444444444444444444444444444444444444444444444444444",
"4444444444444444444444444444444444444444444444444444444444444444",
"4444444444444444444444444444444444444444444444444444444444444444",
"4444444444444444444444444444444444444444444444444444444444444444",
"4444444444444444444444444444444444444444444444444444444444444444",
"4444444444444444444444444444444444444444444444444444444444444444",
"4444444444444444444444444444444444444444444444444444444444444444",
"4444444444444444444444444444444444444444444444444444444444444444",
"4444444444444444444444444444444444444444444444444444444444444444",
"4444444444444444444444444444444444444444444444444444444444444444",
"4444444444444444444444444444444444444444444444444444444444444444",
"4444444444444444444444444444444444444444444444444444444444444444",
"4444444444444444444444444444444444444444444444444444444444444444",
"4444444444444444444444444444444444444444444444444444444444444444",
"4444444444444444444444444444444444444444444444444444444444444444",
"4444444444444444444444444444444444444444444444444444444444444444",
"4444444444444444444444444444444444444444444444444444444444444444",
"4444444444444444444444444444444444444444444444444444444444444444",
"4444444444444444444444444444444444444444444444444444444444444444",
"4444444444444444444444444444444444444444444444444444444444444444",
"4444444444444444444444444444444444444444444444444444444444444444",
"4444444444444444444444444444444444444444444444444444444444444444",
"4444444444444444444444444444444444444444444444444444444444444444",
"4444444444444444444444444444444444444444444444444444444444444444",
"4444444444444444444444444444444444444444444444444444444444444444",
"4444444444444444444444444444444444444444444444444444444444444444",
"4444444444444444444444444444444444444444444444444444444444444444",
"4444444444444444444444444444444444444444444444444444444444444444",
"4444444444444444444444444444444444444444444444444444444444444444",
"44444444444444444444444444443;4444444433444444444444444444444444",
"444444444444444444444444444433;44444433;444444444444444444444444",
"444444444444444444444444444433;44444433;444444444444444444444444",
"4444444444444444444444444444333;X44X,3;;444444444444444444444444",
"4444444444444444444444444444433XXXXX33;4444444444444444444444444",
"44444444444444444444444444444;;3;;;;;3;4444444444444444444444444",
"4444444444444444444444444444433311111;&4444444444444444444444444",
"4444444444444444444444444444433111111,&4444444444444444444444444",
"4444444444444444444444444444433;;;;;1,&4444444444444444444444444",
"444444444444444444444444444443;-===-;;&4444444444444444444444444",
"44444444444444444444444444444    +++OOo4444444444444444444444444",
"4444444444444444444444444444-..@@  OOoXX444444444444444444444444",
"4444444444444444444444444444- @@#%% OoXX444444444444444444444444",
"4444444444444444444444444444--  &$%%-=+X444444444444444444444444",
"4444444444444444444444444444;3;;2&&%%33>444444444444444444444444",
"4444444444444444444444444444333;2<>%%><>&44444444444444444444444",
"444444444444444444444444444433332<>>>>>>&44444444444444444444444",
"4444444444444444444444444443333,,;;;;;>>&%4444444444444444444444",
"444444444444444444444444444333,,,==;;,,,&%4444444444444444444444",
"444444444444444444444444444333*--=+=-,,,&%4444444444444444444444",
"444444444444444444444444444333*-==X+=:1<&$4444444444444444444444",
"444444444444444444444444444333*+OOX++:1<&#4444444444444444444444",
"444444444444444444444444444333*oooXoO:1<&#4444444444444444444444",
"44444444444444444444444444433,+X44444:>&%#4444444444444444444444",
"44444444444444444444444444443,+444444;;&%44444444444444444444444",
"44444444444444444444444444443*+4444444;&%44444444444444444444444",
"44444444444444444444444444443-#-+++++++%$++--;:44444444444444444",
"4444444444444444444444444443<&#+XXXXXX+%$#XXX+-::444444444444444",
"4444444444444444444444444443<##XXXXXXX####XXXX+-;::4444444444444",
"4444444444444444444444444444::;;------+++++++++++--;::4444444444",
"444444444444444444444444444444444444444444:::::--;;;:44444444444"
};
