/* XPM */
static char *_828_6cf0d6e40f17da7dc21584bcc66a949a8beac4ba2e14cbb2e9daa5eaafb72456[] = {
/* columns rows colors chars-per-pixel */
"64 64 22 1 ",
"  c black",
". c #202020",
"X c #2C2C2C",
"o c gray19",
"O c #343434",
"+ c gray22",
"@ c #483818",
"# c #543C1C",
"$ c #5C4020",
"% c #6C4824",
"& c #744C28",
"* c gray25",
"= c #484848",
"- c gray33",
"; c #646464",
": c #80502C",
"> c #885830",
", c #905C34",
"< c #9C6038",
"1 c #A0643C",
"2 c #A86840",
"3 c #980088",
/* pixels */
"3333333333333333333333333333333333333333333333333333333333333333",
"3333333333333333333333333333333333333333333333333333333333333333",
"3333333333333333333333333333333333333333333333333333333333333333",
"3333333333333333333333333333333333333333333333333333333333333333",
"3333333333333333333333333333333333333333333333333333333333333333",
"3333333333333333333333333333333333333333333333333333333333333333",
"3333333333333333333333333333333333333333333333333333333333333333",
"3333333333333333333333333333333333333333333333333333333333333333",
"3333333333333333333333333333333333333333333333333333333333333333",
"3333333333333333333333333333333333333333333333333333333333333333",
"3333333333333333333333333333333333333333333333333333333333333333",
"3333333333333333333333333333333333333333333333333333333333333333",
"3333333333333333333333333333333333333333333333333333333333333333",
"3333333333333333333333333333333333333333333333333333333333333333",
"3333333333333333333333333333333333333333333333333333333333333333",
"3333333333333333333333333333333333333333333333333333333333333333",
"3333333333333333333333333333333333333333333333333333333333333333",
"3333333333333333333333333333333333333333333333333333333333333333",
"3333333333333333333333333333333333333333333333333333333333333333",
"3333333333333333333333333333333333333333333333333333333333333333",
"3333333333333333333333333333333333333333333333333333333333333333",
"3333333333333333333333333333333333333333333333333333333333333333",
"3333333333333333333333333333333333333333333333333333333333333333",
"3333333333333333333333333333333333333333333333333333333333333333",
"3333333333333333333333333333333333333333333333333333333333333333",
"3333333333333333333333333333333333333333333333333333333333333333",
"3333333333333333333333333333333333333333333333333333333333333333",
"3333333333333333333333333333333333333333333333333333333333333333",
"3333333333333333333333333333333333333333333333333333333333333333",
"3333333333333333333333333333333333333333333333333333333333333333",
"3333333333333333333333333333333333333333333333333333333333333333",
"333333333333333333333333333333333332,333333233333333333333333333",
"333333333333333333333333333333333332,-33332,=3333333333333333333",
"3333333333333333333333333333333333332-+3322-+3333333333333333333",
"3333333333333333333333333333333333332=+++2-+.X333333333333333333",
"333333333333333333333333333333333333:2--22++++333333333333333333",
"33333333333333333333333333333333333:,2221==+& +33333333333333333",
"33333333333333333333333333333333333:2221<>>&&&&+  33333333333333",
"3333333333333333333333333333333333:,2221<>>&&&++X 33333333333333",
"3333333333333333333333333333333333:2222<>>&&+++++.33333333333333",
"3333333333333333333333333333333333:2221<>>&+&+X..333333333333333",
"3333333333    3333333333333333333==-221<>>&++XX33333333333333333",
"3333333333  .... 3333333333==*+++++*==1<>>&++3333333333333333333",
"333333333333 .XX++X++3333222--=*+++++*-,>>&&+3333333333333333333",
"33333333333333++##%::>22222111-=OOOOOO*=>>&$33333333333333333333",
"3333333333333333+++##%::>>11<<,=*oooooo>=>&$33333333333333333333",
"3333333333333333333+++**==,,<,,,=XXoooo>>+$$33333333333333333333",
"33333333333333333333322<--:,,,,,,oXXXX&&&++@33333333333333333333",
"33333333333333333333322<,-,:,,,,&+oX&&&&&&+333333333333333333333",
"33333333333333333333322<,,&:,,,&&&+o&&&&&&+333333333333333333333",
"33333333333333333333322<:&=X1,,&&&+&@$&&&++333333333333333333333",
"333333333333333333333322<-=X1,,&&&++$&&&&+3333333333333333333333",
"333333333333333333333322&=*X11,&&$++$&&&+33333333333333333333333",
"333333333333333333333322&=+X11&&&$XXX$&&&33333333333333333333333",
"33333333333333333333332&=*+<2,&&$$...$&&&33333333333333333333333",
"3333333333333333333332<=*+3<2,&+$+&#XX$&&$3333333333333333333333",
"3333333333333333333332<=+33<2,&++3&#X3$$$&$333333333333333333333",
"3333333333333333333332<=+33>2,&$333333$>$&$333333333333333333333",
"33333333333333333333332&=3332,&$333333$>&$$333333333333333333333",
"33333333333333333333332&=3333,&$3333333$$$$333333333333333333333",
"33333333333333333333332>=33333,&$33333;;--======--;3333333333333",
"33333333333333333333333>-==33-,,&$;--==+++++++++++=--;3333333333",
"33333333333333333333333>>==-+++,,&&$XXXXXXXXXXXXXX++++--;3333333",
"33333333333333333333333;;---==++,,&$+++++++++++=====--;;33333333"
};
