/* XPM */
static char *_1188_b074220ec3813f3ca44a77bb129e5b55611fb2d2e20c4d34316bd1759ad39eeb[] = {
/* columns rows colors chars-per-pixel */
"64 64 23 1 ",
"  c black",
". c #28200C",
"X c #382C14",
"o c #202020",
"O c #2C2C2C",
"+ c gray19",
"@ c #343434",
"# c gray22",
"$ c #483818",
"% c #543C1C",
"& c #5C4020",
"* c #6C4824",
"= c #744C28",
"- c gray25",
"; c #484848",
": c gray33",
"> c #646464",
", c #80502C",
"< c #885830",
"1 c #905C34",
"2 c #9C6038",
"3 c #A86840",
"4 c #980088",
/* pixels */
"4444444444444444444444444444444444444444444444444444444444444444",
"4444444444444444444444444444444444444444444444444444444444444444",
"4444444444444444444444444444444444444444444444444444444444444444",
"4444444444444444444444444444444444444444444444444444444444444444",
"4444444444444444444444444444444444444444444444444444444444444444",
"4444444444444444444444444444444444444444444444444444444444444444",
"4444444444444444444444444444444444444444444444444444444444444444",
"4444444444444444444444444444444444444444444444444444444444444444",
"4444444444444444444444444444444444444444444444444444444444444444",
"4444444444444444444444444444444444444444444444444444444444444444",
"4444444444444444444444444444444444444444444444444444444444444444",
"4444444444444444444444444444444444444444444444444444444444444444",
"4444444444444444444444444444444444444444444444444444444444444444",
"4444444444444444444444444444444444444444444444444444444444444444",
"4444444444444444444444444444444444444444444444444444444444444444",
"4444444444444444444444444444444444444444444444444444444444444444",
"4444444444444444444444444444444444444444444444444444444444444444",
"4444444444444444444444444444444444444444444444444444444444444444",
"4444444444444444444444444444444444444444444444444444444444444444",
"4444444444444444444444444444444444444444444444444444444444444444",
"4444444444444444444444444444444444444444444444444444444444444444",
"4444444444444444444444444444444444444444444444444444444444444444",
"4444444444444444444444444444444444444444444444444444444444444444",
"4444444444444444444444444444444444444444444444444444444444444444",
"4444444444444444444444444444444444444444444444444444444444444444",
"4444444444444444444444444444444444444444444444444444444444444444",
"4444444444444444444444444444444444444444444444444444444444444444",
"4444444444444444444444444444444444444444444444444444444444444444",
"4444444444444444444444444444444444444444444444444444444444444444",
"4444444444444444444444444444444444444444444444444444444444444444",
"4444444444444444444444444444444444444444444444444444444444444444",
"4444444444444444444444444444444444444444444444444444444444444444",
"4444444444444444444444444444444444444444444343444444444444444444",
"444444444444444444444444444444444444444444:3,2444444444444444444",
"44444444444444444444444444444444444444444422,2444444444444444444",
"44444444444444444444444444444444444444444O2;OO444444444444444444",
"4444444444444444444444444444444444444444132;OOOO4444444444444444",
"444444444444444444444444444444444444444132;;:;##O444444444444444",
"444444444444444444444444444444444444441332::22> OO44444444444444",
"444444444444444444444444444444444444441333<<322<;##O  4444444444",
"444444444444444444444444444444444444413333333221<<;O  4444444444",
"444    44444444444444444444444444444113333333::===###o4444444444",
"444  .XXX444444444444########444444##3333333:,,###oOo44444444444",
"4444 .XX$$$==444441113:#############@;333311,:#oooo4444444444444",
"444444X$**<::,,11133333:+@@@@@@@@@@@+;33331,:-#44444444444444444",
"44444444**:<133333333333-+O+++++++++-;33311:;#444444444444444444",
"4444444444,,<<<13:133333:-+OOOOOOO+-;;3311<;-#444444444444444444",
"444444444444444413333333>:++++++#;:3:;;111,;-#444444444444444444",
"4444444444444444423333332:--::::33333::;11:-#4444444444444444444",
"4444444444444444423333332:#:33333333331;;,;-#4444444444444444444",
"4444444444444444423333322;#1111111=:333:,:-#@4444444444444444444",
"444444444444444444233332>;#,,,,,,=23331:;-##44444444444444444444",
"44444444444444444423332>;@O@#--;;=2333:--#@444444444444444444444",
"4444444444444444423332>;#@OOO+@##-=33=$+O+@444444444444444444444",
"44444444444444444233:-##*%##4OOOOO$233=$+@4444444444444444444444",
"44444444444444444333>;;4*%##444444O$=32$#44444444444444444444444",
"444444444444444444333;44*&###4444OO3$32=$44444444444444444444444",
"444444444444444444333:444*%##44OOOO3332=$44444444444444444444444",
"444444444444444444433>;44*&##44OOOO=====$44444444444444444444444",
"444444444444444444433<;444*%##44OOO44444444444444444444444444444",
"4444444444444444444433:4444*##4444444444444444444444444444444444",
"4444444444444444444433<<4444####44444444444444444444444444444444",
"44444444444444444444433<<>>::::;;;;####OOOOOOOOOOOO##;;;::>>4444",
"444444444444444444444433<<###OOOOOOOOOOOOOOO#####;;;;:::>>>44444"
};
