/* XPM */
static char *_066_010d8c12d864e602f993274e67c0d41f34137e37fcb48d67e64af1360b3c9719[] = {
/* columns rows colors chars-per-pixel */
"64 64 26 1 ",
"  c black",
". c #28200C",
"X c #2C2C2C",
"o c gray19",
"O c #343434",
"+ c gray22",
"@ c #403018",
"# c #483818",
"$ c #543C1C",
"% c #5C4020",
"& c #6C4824",
"* c #744C28",
"= c gray25",
"- c #484848",
"; c gray33",
": c #646464",
"> c gray44",
", c #7C7C7C",
"< c #80502C",
"1 c #885830",
"2 c #905C34",
"3 c #9C6038",
"4 c #A0643C",
"5 c #A86840",
"6 c #980088",
"7 c gray55",
/* pixels */
"6666666666666666666666666666666666666666666666666666666666666666",
"6666666666666666666666666666666666666666666666666666666666666666",
"6666666666666666666666666666666666666666666666666666666666666666",
"6666666666666666666666666666666666666666666666666666666666666666",
"6666666666666666666666666666666666666666666666666666666666666666",
"6666666666666666666666666666666666666666666666666666666666666666",
"6666666666666666666666666666666666666666666666666666666666666666",
"6666666666666666666666666666666666666666666666666666666666666666",
"6666666666666666666666666666666666666666666666666666666666666666",
"6666666666666666666666666666666666666666666666666666666666666666",
"6666666666666666666666666666666666666666666666666666666666666666",
"6666666666666666666666666666666666666666666666666666666666666666",
"6666666666666666666666666666666666666666666666666666666666666666",
"6666666666666666666666666666666666666666666666666666666666666666",
"6666666666666666666666666666666666666666666666666666666666666666",
"6666666666666666666666666666666666666666666666666666666666666666",
"6666666666666666666666666666666666666666666666666666666666666666",
"6666666666666666666666666666666666666666666666666666666666666666",
"6666666666666666666666666666666666666666666666666666666666666666",
"6666666666666666666666666666666666666666666666666666666666666666",
"6666666666666666666666666666666666666666666666666666666666666666",
"6666666666666666666666666666666666666666666666666666666666666666",
"6666666666666666666666666666666666666666666666666666666666666666",
"6666666666666666666666666666666666666666666666666666666666666666",
"6666666666666666666666666666666666666666666666666666666666666666",
"6666666666666666666666666666666666666666666666666666666666666666",
"6666666666666666666666666666666666666666666666666666666666666666",
"6666666666666666666666666666666666666666666666666666666666666666",
"6666666666666666666666666666666666666666666666666666666666666666",
"6666666666666666666666666666666666666666666666666666666666666666",
"6666666666666666666666666666666666666666666666666666666666666666",
"6666666666666666666666666666666666656666566666666666666666666666",
"666666666666666666666666666666666665266;266666666666666666666666",
"6666666666666666666666666666666666655265266666666666666666666666",
"66666666666666666666666666666666666652;;266666666666666666666666",
"666666666666666666666666666666666665;-+XX66666666666666666666666",
"666666666666666666666666666666666655;---+X6666666666666666666666",
"666666666666666666666666666666666655;3: +-X666666666666666666666",
"666666666666666666666666666666666555333111*XX +66666666666666666",
"666666666666666666666666666666666555333*+&*&+  66666666666666666",
"666666666666666666666666666666666555311+;+7-++X66666666666666666",
"66666666666666    66666666666666655331;%:,:,;-666666666666666666",
"6666666666666 ..@$$$66666+++++++=55331<*=OXXX6666666666666666666",
"66666666666666  @$11**11+++++++=;55331*;-&6666666666666666666666",
"6666666666666666 @$*12322O++++==555331*;-&6666666666666666666666",
"6666666666666666666&&&&552OooO=;;23311*--&6666666666666666666666",
"666666666666666666666*5555;===;22;;31<--=&6666666666666666666666",
"666666666666666666666155552;=25552;;**--=&6666666666666666666666",
"666666666666666666661555552-;255542;;*-=&<6666666666666666666666",
"666666666666666666661555552-<<2552;;;-=+*<6666666666666666666666",
"66666666666666666666155555-&555542;-=++%*66666666666666666666666",
"66666666666666666666615552-&55422=+OOO%&*66666666666666666666666",
"666666666666666666666*5552+&254>-XoXo+%*666666666666666666666666",
"6666666666666666666661555-++&255>-Xo+%&6666666666666666666666666",
"666666666666666666661555-+6++&1554++%&66666666666666666666666666",
"66666666666666666666155-+66++##1522%&*66666666666666666666666666",
"666666666666666666666152&66++#5#522&*666666666666666666666666666",
"666666666666666666666152&666+&55422*6666666666666666666666666666",
"666666666666666666666152&666++&<<<<66666666666666666666666666666",
"666666666666666666666&522&&66+++66666666666666666666666666666666",
"6666666666666666666666&522<6:;;---++++---;;::6666666666666666666",
"666666666666666666666666::---++++XXXXXXXXX++---;;::6666666666666",
"66666666666666666666666666:::---++++++++++++++++---;;:6666666666",
"666666666666666666666666666666::::;;;;;;;;;;;;;;:::::66666666666"
};
