/* XPM */
static char *_6520_c1c2a89764b78c0ff7b376d93e482d9766a05329d320de2f9eafd9290ae90cc7[] = {
/* columns rows colors chars-per-pixel */
"64 64 25 1 ",
"  c black",
". c #382C14",
"X c #2C2C2C",
"o c gray19",
"O c #343434",
"+ c gray22",
"@ c #403018",
"# c #543C1C",
"$ c #5C4020",
"% c #6C4824",
"& c #744C28",
"* c gray25",
"= c #484848",
"- c gray33",
"; c #646464",
": c gray44",
"> c #7C7C7C",
", c #80502C",
"< c #885830",
"1 c #905C34",
"2 c #9C6038",
"3 c #A0643C",
"4 c #A86840",
"5 c #980088",
"6 c gray55",
/* pixels */
"5555555555555555555555555555555555555555555555555555555555555555",
"5555555555555555555555555555555555555555555555555555555555555555",
"5555555555555555555555555555555555555555555555555555555555555555",
"5555555555555555555555555555555555555555555555555555555555555555",
"5555555555555555555555555555555555555555555555555555555555555555",
"5555555555555555555555555555555555555555555555555555555555555555",
"5555555555555555555555555555555555555555555555555555555555555555",
"5555555555555555555555555555555555555555555555555555555555555555",
"5555555555555555555555555555555555555555555555555555555555555555",
"5555555555555555555555555555555555555555555555555555555555555555",
"5555555555555555555555555555555555555555555555555555555555555555",
"5555555555555555555555555555555555555555555555555555555555555555",
"5555555555555555555555555555555555555555555555555555555555555555",
"5555555555555555555555555555555555555555555555555555555555555555",
"5555555555555555555555555555555555555555555555555555555555555555",
"5555555555555555555555555555555555555555555555555555555555555555",
"5555555555555555555555555555555555555555555555555555555555555555",
"5555555555555555555555555555555555555555555555555555555555555555",
"5555555555555555555555555555555555555555555555555555555555555555",
"5555555555555555555555555555555555555555555555555555555555555555",
"5555555555555555555555555555555555555555555555555555555555555555",
"5555555555555555555555555555555555555555555555555555555555555555",
"5555555555555555555555555555555555555555555555555555555555555555",
"5555555555555555555555555555555555555555555555555555555555555555",
"5555555555555555555555555555555555555555555555555555555555555555",
"5555555555555555555555555555555555555555555555555555555555555555",
"5555555555555555555555555555555555555555555555555555555555555555",
"5555555555555555555555555555555555555555555555555555555555555555",
"5555555555555555555555555555555555555555555555555555555555555555",
"5555555555555555555555555555555555555555555555555555555555555555",
"5555555555555555555555555555555555555555555555555555555555555555",
"5555555555555555555555555555555555555555555555555555555555555555",
"5555555555555555555555544554455555555555555555555555555555555555",
"55555555555555555555554--54-555555555555555555555555555555555555",
"555555555555555555555XXXXX--%55555555555555555555555555555555555",
"55555555555555555555+++=-43--%5555555555555555555555555555555555",
"55555555555555555  XX+% +;441%5555555555555555555555555555555555",
"55555555555555555  +-11444443,%555555555555555555555555555555555",
"55555555555555555X+++-6;+44431%555555555555555555555555555555555",
"555555555555555555-;>;;>@#-431%555555555555555555555555555555555",
"5555555555555555555 XXX#--,332,555555555555555555555555555555555",
"55555555555555555555=+++,,3332-X55555555555555555555555555555555",
"555555555555555555555====444322OX+5555555555555    5555555555555",
"555555555555555555555====444322*O+++++O,,,,,,&%$#@  555555555555",
"555555555555555555555----:4:;;--=OXXXO*-2211<%##@. 5555555555555",
"5555555555555555555555---;;;--;4;=***-441=1%##.  555555555555555",
"5555555555555555555555-;--;-44443333;4441,+555555555555555555555",
"55555555555555555555555-;-;;4443222;44441,%555555555555555555555",
"55555555555555555555555---443331111;44433<%#55555555555555555555",
"555555555555555555111,,==-44331111$;;4433<%#55555555555555555555",
"555555555555555551,%#<44444332----*O-44331&#55555555555555555555",
"55555555555555551,%#444222222%+++OOo=-4333<%55555555555555555555",
"5555555555555555,%#4442%1111%XXXXXXXo=-4431%55555555555555555555",
"555555555555555555%22%%5%%%%555,++OoXo==;43,%5555555555555555555",
"55555555555555555555555555555555,%++OX ===;1,%555555555555555555",
"5555555555555555555555555555555555%%+XX555=31%555555555555555555",
"555555555555555555555555555555555555%oX555-31%555555555555555555",
"555555555555555555555555555555555555%oX555-;1,555555555555555555",
"555555555555555555555555555555555555%OX5555-1,555555555555555555",
"55555555555555555555555555555555555##+X5555-1,555555555555555555",
"55555555555555555555555555555555555####555$,,,555555555555555555",
"5555555555555555555555;;;;;----===+++++XXX$,,,++=---;;;555555555",
"5555555555555555555;;;--==+++++++++XXXXXXXXXXXXXX++++==--;;;5555",
"555555555555555555555;;;;;;---------===+++++++++++==----;;555555"
};
