/* XPM */
static char *_6953_7965882bd07b58e63bff85787e624eb3571dacef435311feb30a1f1e95ba6b43[] = {
/* columns rows colors chars-per-pixel */
"64 64 23 1 ",
"  c black",
". c #382C14",
"X c #2C2C2C",
"o c gray19",
"O c #343434",
"+ c gray22",
"@ c #403018",
"# c #483818",
"$ c #543C1C",
"% c #5C4020",
"& c #6C4824",
"* c #744C28",
"= c gray25",
"- c #484848",
"; c gray33",
": c #646464",
"> c #80502C",
", c #885830",
"< c #905C34",
"1 c #9C6038",
"2 c #A0643C",
"3 c #A86840",
"4 c #980088",
/* pixels */
"4444444444444444444444444444444444444444444444444444444444444444",
"4444444444444444444444444444444444444444444444444444444444444444",
"4444444444444444444444444444444444444444444444444444444444444444",
"4444444444444444444444444444444444444444444444444444444444444444",
"4444444444444444444444444444444444444444444444444444444444444444",
"4444444444444444444444444444444444444444444444444444444444444444",
"4444444444444444444444444444444444444444444444444444444444444444",
"4444444444444444444444444444444444444444444444444444444444444444",
"4444444444444444444444444444444444444444444444444444444444444444",
"4444444444444444444444444444444444444444444444444444444444444444",
"4444444444444444444444444444444444444444444444444444444444444444",
"4444444444444444444444444444444444444444444444444444444444444444",
"4444444444444444444444444444444444444444444444444444444444444444",
"4444444444444444444444444444444444444444444444444444444444444444",
"4444444444444444444444444444444444444444444444444444444444444444",
"4444444444444444444444444444444444444444444444444444444444444444",
"4444444444444444444444444444444444444444444444444444444444444444",
"4444444444444444444444444444444444444444444444444444444444444444",
"4444444444444444444444444444444444444444444444444444444444444444",
"4444444444444444444444444444444444444444444444444444444444444444",
"4444444444444444444444444444444444444444444444444444444444444444",
"4444444444444444444444444444444444444444444444444444444444444444",
"4444444444444444444444444444444444444444444444444444444444444444",
"4444444444444444444444444444444444444444444444444444444444444444",
"4444444444444444444444444444444444444444444444444444444444444444",
"4444444444444444444444444444444444444444444444444444444444444444",
"4444444444444444444444444444444444444444444444444444444444444444",
"4444444444444444444444444444444444444444444444444444444444444444",
"4444444444444444444444444444444444444444444444444444444444444444",
"4444444444444444444444444444444444444444444444444444444444444444",
"4444444444444444444444444444444444444444444444444444444444444444",
"4444444444444444444444444444444444444444444444444444444444444444",
"4444444444444444444334444444444444444444444444444444444444444444",
"4444444444444444441+;3344444444444444444444444444444444444444444",
"444444444444444444XX1;+44444444444444444444444444444444444444444",
"4444444444444444XXX+++444444444444444444444444444444444444444444",
"44444444444444XX+;;;--**4444444444444444444444444444444444444444",
"4444444444  XXX+ :33;;,,*444444444444444444444444444444444444444",
"4444444444  X+;33333::11,444444444444444444444444444444444444444",
"4444444444+-;;3333333331,*44444444444444444444444444444444444444",
"44444444444++--;;;:333331,+4444444444444444444444444444444444444",
"4444444444444+++=33;33333,*++44444444444444444444444444444444444",
"44444444444444444=;3333333;=++++++++++++--4444444444444444444444",
"44444444444444444+=;:33333;-=++++++++++=;:31,444444444$.    4444",
"444444444444444444+-;33333;--=++++++++=-:33331,%$$$$$$@..   4444",
"444444444444444444+=;:333:;;:;-=======-;3333333<<<>>#@@.  444444",
"444444444444444444++;:33:;;333:;;;----;333333;<$$$$@@. 444444444",
"4444444444444444444+-;3:;;33333333333;:3333331*44444444444444444",
"4444444444444444444+=;::3333322111111;:33333313*4444444444444444",
"4444444444444444444++-;3333322211111,>;13333333<*444444444444444",
"4444444444444444444&++>3333>2221<<<,>%-;13333333*444444444444444",
"444444444444444&&&&,333333<>;;;;;-==+Oo+-1333333<444444444444444",
"4444444444444&&&,333333211<&#====++OOoXoO+,133333<*4444444444444",
"444444444444&,3333221<<&&&&&+++++4444$$+Xo+--<3333*4444444444444",
"4444444444443331<>>&&&&4444444444444444$$+Xo+--333*4444444444444",
"44444444444321&&44444444444444444444444444$+XXo;33<4444444444444",
"4444444444421>444444444444444444444444444444+OO4;3<*444444444444",
"444444444444444444444444444444444444444444444+O4;<3*444444444444",
"444444444444444444444444444444444444444444444$+44<3*444444444444",
"444444444444444444444444444444444444444444444&+4443*444444444444",
"44444444444444444444444444444444444444444444&+X4443*444444444444",
"444444444444444444444::::::;;;;--------+++XX++XXX33*X++-;;;:4444",
"444444444444444:::::;;;---+++XXXXXXXXXXXXXXXXXXXX33*XXXX++-;;::4",
"44444444444444444444:::::::;;;;;-------++++++++++++++---;;;:::44"
};
