/* XPM */
static char *_428_da4c56afa6fb571b104c89ecfd1a37390d35bdd2055cee6b33c6812703c827fb[] = {
/* columns rows colors chars-per-pixel */
"64 64 23 1 ",
"  c black",
". c #28200C",
"X c #382C14",
"o c #2C2C2C",
"O c gray19",
"+ c #343434",
"@ c gray22",
"# c #403018",
"$ c #483818",
"% c #543C1C",
"& c #5C4020",
"* c #6C4824",
"= c #744C28",
"- c gray25",
"; c #484848",
": c gray33",
"> c #646464",
", c #80502C",
"< c #885830",
"1 c #905C34",
"2 c #9C6038",
"3 c #A86840",
"4 c #980088",
/* pixels */
"4444444444444444444444444444444444444444444444444444444444444444",
"4444444444444444444444444444444444444444444444444444444444444444",
"4444444444444444444444444444444444444444444444444444444444444444",
"4444444444444444444444444444444444444444444444444444444444444444",
"4444444444444444444444444444444444444444444444444444444444444444",
"4444444444444444444444444444444444444444444444444444444444444444",
"4444444444444444444444444444444444444444444444444444444444444444",
"4444444444444444444444444444444444444444444444444444444444444444",
"4444444444444444444444444444444444444444444444444444444444444444",
"4444444444444444444444444444444444444444444444444444444444444444",
"4444444444444444444444444444444444444444444444444444444444444444",
"4444444444444444444444444444444444444444444444444444444444444444",
"4444444444444444444444444444444444444444444444444444444444444444",
"4444444444444444444444444444444444444444444444444444444444444444",
"4444444444444444444444444444444444444444444444444444444444444444",
"4444444444444444444444444444444444444444444444444444444444444444",
"4444444444444444444444444444444444444444444444444444444444444444",
"4444444444444444444444444444444444444444444444444444444444444444",
"4444444444444444444444444444444444444444444444444444444444444444",
"4444444444444444444444444444444444444444444444444444444444444444",
"4444444444444444444444444444444444444444444444444444444444444444",
"4444444444444444444444444444444444444444444444444444444444444444",
"4444444444444444444444444444444444444444444444444444444444444444",
"4444444444444444444444444444444444444444444444444444444444444444",
"4444444444444444444444444444444444444444444444444444444444444444",
"4444444444444444444444444444444444444444444444444444444444444444",
"4444444444444444444444444444444444444444444444444444444444444444",
"4444444444444444444444444444444444444444444444444444444444444444",
"4444444444444444444444444444444444444444444444444444444444444444",
"4444444444444444444444444444444444444444444444444444444444444444",
"4444444444444444444444444444444444444444444444444444444444444444",
"4444444444444444444444334443334444444444444444444444444444444444",
"4444444444444444444443::44<<:44444444444444444444444444444444444",
"4444444444444444444oo:::@::@:44444444444444444444444444444444444",
"444444444444444444o;:oo::@@;@44444444444444444444444444444444444",
"444444444444444  o; 3::====1=44444444444444444444444444444444444",
"444444444444444o@:3333331111=44444444444444444444444444444444444",
"444444444444444o:33333331111=44444444444444444444444444444444444",
"4444444444444444@::::3333111==4444444444444444444444444444444444",
"44444444444444444@;;3>3331111=4444444444444444444444444444444444",
"4444444444444444444;:33331oooo4444444444444444444444444444444444",
"44444444444444444444:3333;+OOooo44444444444444444444444444444444",
"44444444444444444444:333;-+OOOOOo4444444444444    44444444444444",
"44444444444444444444:>33:-@@++++@;;;444==%%$$##.  44444444444444",
"44444444444444444444::3:3-@@@@@-:>>31111<,*%%#. 4444444444444444",
"444444444444444444444:::3;-@@-;:>333333<,$$X. 444444444444444444",
"444444444444444444444::33>;--;>333222,*$$$4444444444444444444444",
"444444444444444433314:33333:;333331<*@@@%44444444444444444444444",
"4444444444444443113333333133>333333<<@@%%44444444444444444444444",
"44444444444444411=1133331=33>333333<*@@%%44444444444444444444444",
"444444444444444===44=111=&;3>333332=%@%%%44444444444444444444444",
"4444444444444444444444==@@--;333332*%@%%444444444444444444444444",
"4444444444444444444444444@@@@33333<%@@%%444444444444444444444444",
"4444444444444444444444444444443333<%@@%%%44444444444444444444444",
"4444444444444444444444444444443333<%-@@%%44444444444444444444444",
"44444444444444444444444444444443332<-@@@%%4444444444444444444444",
"44444444444444444444444444444444333<;@@@@%4444444444444444444444",
"44444444444444444444444444444444433<;44@@%4444444444444444444444",
"44444444444444444444444444444444443<*444@%4444444444444444444444",
"444444444444444444444444444444444432*444@%%444444444444444444444",
"4444444444444444444444>>>>>>>::;;;32*4444@%444444444444444444444",
"444444444444444444444444::::;@@@@@33*@@@@@%@@@@;;>>>444444444444",
"444444444444444444444444444>>::;;@33*ooo@%%ooooo@@;;::>>>>444444",
"444444444444444444444444444444444333*@@@@@@@;;;:::>>>>>444444444"
};
