/* XPM */
static char *_4936_1588ed704a6ce8d8bf243644427ffacf120e2791fa292823e71a783ac175c2f5[] = {
/* columns rows colors chars-per-pixel */
"64 64 24 1 ",
"  c black",
". c #2C2C2C",
"X c gray19",
"o c #343434",
"O c gray22",
"+ c #403018",
"@ c #483818",
"# c #543C1C",
"$ c #5C4020",
"% c #6C4824",
"& c #744C28",
"* c gray25",
"= c #484848",
"- c gray33",
"; c #646464",
": c #80502C",
"> c #885830",
", c #905C34",
"< c #9C6038",
"1 c #A0643C",
"2 c #A86840",
"3 c #B47044",
"4 c #BC7848",
"5 c #980088",
/* pixels */
"5555555555555555555555555555555555555555555555555555555555555555",
"5555555555555555555555555555555555555555555555555555555555555555",
"5555555555555555555555555555555555555555555555555555555555555555",
"5555555555555555555555555555555555555555555555555555555555555555",
"5555555555555555555555555555555555555555555555555555555555555555",
"5555555555555555555555555555555555555555555555555555555555555555",
"5555555555555555555555555555555555555555555555555555555555555555",
"5555555555555555555555555555555555555555555555555555555555555555",
"5555555555555555555555555555555555555555555555555555555555555555",
"5555555555555555555555555555555555555555555555555555555555555555",
"5555555555555555555555555555555555555555555555555555555555555555",
"5555555555555555555555555555555555555555555555555555555555555555",
"5555555555555555555555555555555555555555555555555555555555555555",
"5555555555555555555555555555555555555555555555555555555555555555",
"5555555555555555555555555555555555555555555555555555555555555555",
"5555555555555555555555555555555555555555555555555555555555555555",
"5555555555555555555555555555555555555555555555555555555555555555",
"5555555555555555555555555555555555555555555555555555555555555555",
"5555555555555555555555555555555555555555555555555555555555555555",
"5555555555555555555555555555555555555555555555555555555555555555",
"5555555555555555555555555555555555555555555555555555555555555555",
"5555555555555555555555555555555555555555555555555555555555555555",
"5555555555555555555555555555555555555555555555555555555555555555",
"5555555555555555555555555555555555555555555555555555555555555555",
"5555555555555555555555555555555555555555555555555555555555555555",
"5555555555555555555555555555555555555555555555555555555555555555",
"5555555555555555555555555555555555555555555555555555555555555555",
"5555555555555555555555555555555555555555555555555555555555555555",
"5555555555555555555555555555555555555555555555555555555555555555",
"5555555555555555555555555555555555555555555555555555555555555555",
"5555555555555555555555555555555555555555555555555555555555555555",
"5555555555555555555555555555555555555555555555555555555555555555",
"55555555555555555555555555552-5555555522555555555555555555555555",
"555555555555555555555555555522-55555522;555555555555555555555555",
"5555555555555555555555555555222-.55.>2;-555555555555555555555555",
"5555555555555555555555555555522.....22-5555555555555555555555555",
"55555555555555555555555555555--2-----2-5555555555555555555555555",
"55555555555555555555555555555222<<<<<-%5555555555555555555555555",
"5555555555555555555555555555522<<<<<<>%5555555555555555555555555",
"5555555555555555555555555555522<< <<<>%5555555555555555555555555",
"555555555555555555555555555552-=  O=--%5555555555555555555555555",
"55555555555555555555555555555=*    OOOO5555555555555555555555555",
"55555555555555555555555555555*O++++oXX.5555555555555555555555555",
"5555555555555555555555555555=*O+%+@oXX..555555555555555555555555",
"5555555555555555555555555555=*O+1:@OOoo.555555555555555555555555",
"5555555555555555555555555555====1:$@==Oo555555555555555555555555",
"5555555555555555555555555555-2--1>%$@22:555555555555555555555555",
"5555555555555555555555555555222-1,:$$:,:%55555555555555555555555",
"555555555555555555555555555522221,::::::%55555555555555555555555",
"5555555555555555555555555552222>>-----::%$5555555555555555555555",
"555555555555555555555555555232>>>**-->>>:$5555555555555555555555",
"555555555555555555555555555343&==***=>>1:$5555555555555555555555",
"555555555555555555555555555343&=*o.O*;21:$5555555555555555555555",
"555555555555555555555555555342&O.o.oO;21:$5555555555555555555555",
"555555555555555555555555555342&..X.Xo;21:#5555555555555555555555",
"555555555555555555555555555544>O5555->,&&55555555555555555555555",
"555555555555555555555555555544>O5555->,&&55555555555555555555555",
"555555555555555555555555555544>O5555--,&&55555555555555555555555",
"55555555555555555555555555554>O555555-,:&55555555555555555555555",
"55555555555555555555555555554>O555555-;,&55555555555555555555555",
"55555555555555555555555555554&O5;--===;,&====---;;55555555555555",
"55555555555555555555555555554=@55;-=OOO:&OOOOOO=--;;555555555555",
"5555555555555555555555555552,%@-=OO...O:#@....OO=---;;5555555555",
"5555555555555555555555555552,@@.......@@@@....OO==---;;555555555"
};
