/* XPM */
static char *_047_5268aab3f82bd16c4348f480dba37236563f5085bd0c1c172230dba070dbf3fc[] = {
/* columns rows colors chars-per-pixel */
"64 64 21 1 ",
"  c black",
". c #202020",
"X c #2C2C2C",
"o c gray19",
"O c #343434",
"+ c gray22",
"@ c #543C1C",
"# c #5C4020",
"$ c #6C4824",
"% c #744C28",
"& c gray25",
"* c #484848",
"= c gray33",
"- c #646464",
"; c #80502C",
": c #885830",
"> c #905C34",
", c #9C6038",
"< c #A0643C",
"1 c #A86840",
"2 c #980088",
/* pixels */
"2222222222222222222222222222222222222222222222222222222222222222",
"2222222222222222222222222222222222222222222222222222222222222222",
"2222222222222222222222222222222222222222222222222222222222222222",
"2222222222222222222222222222222222222222222222222222222222222222",
"2222222222222222222222222222222222222222222222222222222222222222",
"2222222222222222222222222222222222222222222222222222222222222222",
"2222222222222222222222222222222222222222222222222222222222222222",
"2222222222222222222222222222222222222222222222222222222222222222",
"2222222222222222222222222222222222222222222222222222222222222222",
"2222222222222222222222222222222222222222222222222222222222222222",
"2222222222222222222222222222222222222222222222222222222222222222",
"2222222222222222222222222222222222222222222222222222222222222222",
"2222222222222222222222222222222222222222222222222222222222222222",
"2222222222222222222222222222222222222222222222222222222222222222",
"2222222222222222222222222222222222222222222222222222222222222222",
"2222222222222222222222222222222222222222222222222222222222222222",
"2222222222222222222222222222222222222222222222222222222222222222",
"2222222222222222222222222222222222222222222222222222222222222222",
"2222222222222222222222222222222222222222222222222222222222222222",
"2222222222222222222222222222222222222222222222222222222222222222",
"2222222222222222222222222222222222222222222222222222222222222222",
"2222222222222222222222222222222222222222222222222222222222222222",
"2222222222222222222222222222222222222222222222222222222222222222",
"2222222222222222222222222222222222222222222222222222222222222222",
"2222222222222222222222222222222222222222222222222222222222222222",
"2222222222222222222222222222222222222222222222222222222222222222",
"2222222222222222222222222222222222222222222222222222222222222222",
"2222222222222222222222222222222222222222222222222222222222222222",
"2222222222222222222222222222222222222222222222222222222222222222",
"2222222222222222222222222222222222222222222222222222222222222222",
"2222222222222222222222222222222222>=22221,*222222222222222222222",
"222222222222222222222222222222222211=+221,=+22222222222222222222",
"222222222222222222222222222222222221*&++1=+.X2222222222222222222",
"22222222222222222222222222222222222;1==1,&+++X222222222222222222",
"2222222222222222222222222222222222;>111<**&% +X  222222222222222",
"2222222222222222222222222222222222;111<,::%%%%+  222222222222222",
"222222222222222222222222222222222;>111<,::%%%+++.222222222222222",
"222222222222222222222222222222222;1111,::%%++++.2222222222222222",
"222222222222222222222222222222222;111<,::%+%+X.22222222222222222",
"222222222222222222222222222222222;111<<::+%+ 2222222222222222222",
"22222222222222222222222222222222**==1<<::%+222222222222222222222",
"2222222222222   22222222222222&&&&*===<::%+222222222222222222222",
"2222222222222  ... 22222222*++++++++&*=::%+222222222222222222222",
"222222222222222 XX+X+22221<1==*++OOOO&*=:%+222222222222222222222",
"2222222222222222++@$$;:>>,<<<<>*Xoooooo%+%+222222222222222222222",
"222222222222222222++@$$;::=<,,>>*XXXXX%%%++222222222222222222222",
"22222222222222222222++++&*1>>>>>%+XXX%%%%++222222222222222222222",
"2222222222222222222221,==;>1>>:;%+++%%%%%&+22;;;;%22222222222222",
"2222222222222222222221,>=>;1>::%%%$%%%%%%%%$$%%%%%22222222222222",
"2222222222222222222221,>>%;1>:;%%%#%**##%$$$$$$##%22222222222222",
"2222222222222222222221,;%*o1>:;%%%#*++O##$$###222222222222222222",
"2222222222222222222221,,=*o1>:%%%*&OoXX#####22222222222222222222",
"2222222222222222222221:=*&1,>:%%%+oXX222##2222222222222222222222",
"222222222222222222221,:=&+1,>;%%+2222222222222222222222222222222",
"222222222222222222221,=*+11,:;*+22222222222222222222222222222222",
"222222222222222222221,=+211>;*+222222222222222222222222222222222",
"222222222222222222221,*+211>;*2222222222222222222222222222222222",
"22222222222222222221,:+2211>%+2222222222222222222222222222222222",
"22222222222222222221,:+221>%222222222222222222222222222222222222",
"22222222222222222221::+221>%222222222222222222222222222222222222",
"22222222222222222221=+2221>%2222--==**++++**=====---222222222222",
"22222222222222222221=+2--1>%=**++XXXXXX++++***=----2222222222222",
"222222222222222222211=XX+1>%XXXXXX+++++**==---222222222222222222",
"22222222222222222222222--11>%+++***=-222222222222222222222222222"
};
