/* XPM */
static char *_510_acb1cd908ba78b6a4f79ab02e77a3eccf45f809f9d5a30f2618772c19ef423ec[] = {
/* columns rows colors chars-per-pixel */
"64 64 24 1 ",
"  c black",
". c #28200C",
"X c #382C14",
"o c #202020",
"O c #2C2C2C",
"+ c gray19",
"@ c #343434",
"# c gray22",
"$ c #483818",
"% c #543C1C",
"& c #5C4020",
"* c #6C4824",
"= c #744C28",
"- c gray25",
"; c #484848",
": c gray33",
"> c #646464",
", c #80502C",
"< c #885830",
"1 c #905C34",
"2 c #9C6038",
"3 c #A0643C",
"4 c #A86840",
"5 c #980088",
/* pixels */
"5555555555555555555555555555555555555555555555555555555555555555",
"5555555555555555555555555555555555555555555555555555555555555555",
"5555555555555555555555555555555555555555555555555555555555555555",
"5555555555555555555555555555555555555555555555555555555555555555",
"5555555555555555555555555555555555555555555555555555555555555555",
"5555555555555555555555555555555555555555555555555555555555555555",
"5555555555555555555555555555555555555555555555555555555555555555",
"5555555555555555555555555555555555555555555555555555555555555555",
"5555555555555555555555555555555555555555555555555555555555555555",
"5555555555555555555555555555555555555555555555555555555555555555",
"5555555555555555555555555555555555555555555555555555555555555555",
"5555555555555555555555555555555555555555555555555555555555555555",
"5555555555555555555555555555555555555555555555555555555555555555",
"5555555555555555555555555555555555555555555555555555555555555555",
"5555555555555555555555555555555555555555555555555555555555555555",
"5555555555555555555555555555555555555555555555555555555555555555",
"5555555555555555555555555555555555555555555555555555555555555555",
"5555555555555555555555555555555555555555555555555555555555555555",
"5555555555555555555555555555555555555555555555555555555555555555",
"5555555555555555555555555555555555555555555555555555555555555555",
"5555555555555555555555555555555555555555555555555555555555555555",
"5555555555555555555555555555555555555555555555555555555555555555",
"5555555555555555555555555555555555555555555555555555555555555555",
"5555555555555555555555555555555555555555555555555555555555555555",
"5555555555555555555555555555555555555555555555555555555555555555",
"5555555555555555555555555555555555555555555555555555555555555555",
"5555555555555555555555555555555555555555555555555555555555555555",
"5555555555555555555555555555555555555555555555555555555555555555",
"5555555555555555555555555555555555555555555555555555555555555555",
"5555555555555555555555555555555555555555555555555555555555555555",
"5555555555555555555555555555555555555555555555555555555555555555",
"5555555555555555555555555555555555555555555454555555555555555555",
"555555555555555555555555555555555555555555544,255555555555555555",
"555555555555555555555555555555555555555555522,255555555555555555",
"555555555555555555555555555555555555555555O2;OO55555555555555555",
"55555555555555555555555555555555555555555142;OOOO555555555555555",
"5555555555555555555555555555555555555555142;;:;##OO5555555555555",
"5555555555555555555555555555555555555551442::22> OOOO  555555555",
"5555555555555555555555555555555555555511444<<422<<;#O  555555555",
"5555555555555555555555555555555555555514444444221<<;##o555555555",
"5555555555555555555555555555555555555#14444441::::;#Oo5555555555",
"5555555555555555555555555555555555####4444441:,,OOoo555555555555",
"55555    555555555555################-44441<,:;#5555555555555555",
"55555  .XX5555555511144:+@@@@@@@@@@@@-44411,:;#55555555555555555",
"555555 .X$$$=,,111444444:+++++++++++@-4411<,;#555555555555555555",
"55555555X**<<12224444444::OOOOOOOOOO-;;111,:;#555555555555555555",
"55555555555,,<<14:144444>:OOOOOO#;:44:;;1<,:##555555555555555555",
"5555555555555555224444442:#:::::444444:;1,:;#5555555555555555555",
"5555555555555555224444442:#:44444444444:;,:;#5555555555555555555",
"555555555555555524444442>##>22222244444:,:;##5555555555555555555",
"555555555555555524444442:#-,,<<<<1244441:;#######555555555555555",
"55555555555555524444442;;###---;;;;244333322222211#5555555555555",
"5555555555555552444442:;##55OO++@@#,12222221111111,#555555555555",
"55555555555555224442>;###5555555OOOO1111,,,,,555,1,*555555555555",
"555555555555522442>:;###5555555555555,,,,55555555,*&555555555555",
"5555555555555444**####555555555555555555555555555&&&555555555555",
"555555555555544*#####5555555555555555555555555555555555555555555",
"555555555555544###$##5555555555555555555555555555555555555555555",
"555555555555444#55$#55555555555555555555555555555555555555555555",
"555555555555444#5*$#55555555555555555555555555555555555555555555",
"55555555555544:55%$#55555555555555555555555555555555555555555555",
"55555555555444#55$###OOOOOOOOOOOOOOOO#####;;;;;:::>>>>5555555555",
"55555555555444#55555>>>::;;####OOOOOOOOOOOOOOO##;;;;:::>>>>>5555",
"555555555554444OOOOOOOOOOO#########;;;;;:::::::::>>>>>>>>5555555"
};
