/* XPM */
static char *_0709_841861d79ff97f6d0e11bff2bbcf8dd0b10f602d0c6f0ff6824bb6337df7e153[] = {
/* columns rows colors chars-per-pixel */
"64 64 22 1 ",
"  c black",
". c #28200C",
"X c #2C2C2C",
"o c gray22",
"O c #403018",
"+ c #543C1C",
"@ c #5C4020",
"# c #6C4824",
"$ c #744C28",
"% c gray25",
"& c #484848",
"* c gray33",
"= c #646464",
"- c gray44",
"; c #7C7C7C",
": c #80502C",
"> c #885830",
", c #905C34",
"< c #9C6038",
"1 c #A86840",
"2 c #980088",
"3 c gray55",
/* pixels */
"2222222222222222222222222222222222222222222222222222222222222222",
"2222222222222222222222222222222222222222222222222222222222222222",
"2222222222222222222222222222222222222222222222222222222222222222",
"2222222222222222222222222222222222222222222222222222222222222222",
"2222222222222222222222222222222222222222222222222222222222222222",
"2222222222222222222222222222222222222222222222222222222222222222",
"2222222222222222222222222222222222222222222222222222222222222222",
"2222222222222222222222222222222222222222222222222222222222222222",
"2222222222222222222222222222222222222222222222222222222222222222",
"2222222222222222222222222222222222222222222222222222222222222222",
"2222222222222222222222222222222222222222222222222222222222222222",
"2222222222222222222222222222222222222222222222222222222222222222",
"2222222222222222222222222222222222222222222222222222222222222222",
"2222222222222222222222222222222222222222222222222222222222222222",
"2222222222222222222222222222222222222222222222222222222222222222",
"2222222222222222222222222222222222222222222222222222222222222222",
"2222222222222222222222222222222222222222222222222222222222222222",
"2222222222222222222222222222222222222222222222222222222222222222",
"2222222222222222222222222222222222222222222222222222222222222222",
"2222222222222222222222222222222222222222222222222222222222222222",
"2222222222222222222222222222222222222222222222222222222222222222",
"2222222222222222222222222222222222222222222222222222222222222222",
"2222222222222222222222222222222222222222222222222222222222222222",
"2222222222222222222222222222222222222222222222222222222222222222",
"2222222222222222222222222222222222222222222222222222222222222222",
"2222222222222222222222222222222222222222222222222222222222222222",
"2222222222222222222222222222222222222222222222222222222222222222",
"2222222222222222222222222222222222222222222222222222222222222222",
"2222222222222222222222222222222222222222222222222222222222222222",
"2222222222222222222222222222222222222222222222222222222222222222",
"2222222222222222222222222222222222222222222222222222222222222222",
"222222222222222222222222222222222211,221222222222222222222222222",
"22222222222222222222222222222222222#,,21,22222222222222222222222",
"222222222222222222222222222222222221#,**,22222222222222222222222",
"222222222222222222222222222222222221*&oXXX2222222222222222222222",
"222222222222222222222222222222222211*&&oXXX222222222222222222222",
"222222222222222222222222222222222211*<= o&oXX  22222222222222222",
"222222222222222222222222222222222111<<<$$$$@o  22222222222222222",
"222222222222222222222222222222222111<<<@o=3@ooX22222222222222222",
"222222222222222222222222222222222111<>>o&;=-*&222222222222222222",
"22222222222222222222222222222222211<<>*@@oXXX2222222222222222222",
"22222222222222222222222222222222&111<>:$&#2222222222222222222222",
"222222222222222    22222222222oo*111<>:$&#2222222222222222222222",
"22222222222222 ..O+++$>>%oooooo%*111<>$*&#2222222222222222222222",
"222222222222222  O+$:::,,%oooo%&1*11>>$&&#2222222222222222222222",
"22222222222222222 O+$##11*%%%%&*11**>:&&%#2222222222222222222222",
"2222222222222222222222>111*&&&*,11**$$&&%#2222222222222222222222",
"222222222222222222222>1111,*&,11111**$&%++#222222222222222222222",
"222222222222222222222>11111,*1111111*&oo+++######222222222222222",
"22222222222222222222>111111,*1,,11111111<<<+++++++22222222222222",
"22222222222222222222>111111*&&&#,<<<<<<<<>>$222+++22222222222222",
"22222222222222222222>11111,&%%oooo####o2<>$$2222++22222222222222",
"2222222222222222222211111,&&%ooooooo22222>$$22222222222222222222",
"222222222222222222211111,&%%oo2222222222222222222222222222222222",
"222222222222222222211&&&&%ooo22222222222222222222222222222222222",
"222222222222222222211o&2#oo2222222222222222222222222222222222222",
"22222222222222222221,o22#o22222222222222222222222222222222222222",
"22222222222222222211o22#+o22222222222222222222222222222222222222",
"22222222222222222211o22#+o+2222222222222222222222222222222222222",
"22222222222222222211,$2#+oo2222222222222222222222222222222222222",
"22222222222222222211,$22=*&ooooooo&&&**===2222222222222222222222",
"2222222222222222222==*XXXXXXXXXXXXXXXooo&&&&*==22222222222222222",
"222222222222222222222222===**&&&oooooooooooo&&**==22222222222222",
"22222222222222222222222222222222===****&&&&&&**=====222222222222"
};
