/* XPM */
static char *_1120_c9ea13ba5a3c18708d4dcac933aac50ef4b405e5dd2c4162b84e3a9c03d6c0f6[] = {
/* columns rows colors chars-per-pixel */
"64 64 25 1 ",
"  c black",
". c #382C14",
"X c #2C2C2C",
"o c gray19",
"O c #343434",
"+ c gray22",
"@ c #403018",
"# c #543C1C",
"$ c #5C4020",
"% c #6C4824",
"& c #744C28",
"* c gray25",
"= c #484848",
"- c gray33",
"; c #646464",
": c gray44",
"> c #7C7C7C",
", c #80502C",
"< c #885830",
"1 c #905C34",
"2 c #9C6038",
"3 c #A0643C",
"4 c #A86840",
"5 c #980088",
"6 c gray55",
/* pixels */
"5555555555555555555555555555555555555555555555555555555555555555",
"5555555555555555555555555555555555555555555555555555555555555555",
"5555555555555555555555555555555555555555555555555555555555555555",
"5555555555555555555555555555555555555555555555555555555555555555",
"5555555555555555555555555555555555555555555555555555555555555555",
"5555555555555555555555555555555555555555555555555555555555555555",
"5555555555555555555555555555555555555555555555555555555555555555",
"5555555555555555555555555555555555555555555555555555555555555555",
"5555555555555555555555555555555555555555555555555555555555555555",
"5555555555555555555555555555555555555555555555555555555555555555",
"5555555555555555555555555555555555555555555555555555555555555555",
"5555555555555555555555555555555555555555555555555555555555555555",
"5555555555555555555555555555555555555555555555555555555555555555",
"5555555555555555555555555555555555555555555555555555555555555555",
"5555555555555555555555555555555555555555555555555555555555555555",
"5555555555555555555555555555555555555555555555555555555555555555",
"5555555555555555555555555555555555555555555555555555555555555555",
"5555555555555555555555555555555555555555555555555555555555555555",
"5555555555555555555555555555555555555555555555555555555555555555",
"5555555555555555555555555555555555555555555555555555555555555555",
"5555555555555555555555555555555555555555555555555555555555555555",
"5555555555555555555555555555555555555555555555555555555555555555",
"5555555555555555555555555555555555555555555555555555555555555555",
"5555555555555555555555555555555555555555555555555555555555555555",
"5555555555555555555555555555555555555555555555555555555555555555",
"5555555555555555555555555555555555555555555555555555555555555555",
"5555555555555555555555555555555555555555555555555555555555555555",
"5555555555555555555555555555555555555555555555555555555555555555",
"5555555555555555555555555555555555555555555555555555555555555555",
"5555555555555555555555555555555555555555555555555555555555555555",
"5555555555555555555555555555555555555555555555555555555555555555",
"5555555555555555555555555555555555555555555555555555555555555555",
"5555555555555555555555555555555555555555555555555555555555555555",
"5555555555555555555555555555555555555555555555555555555555555555",
"5555555555555555555555555555555555555555555555555555555555555555",
"5555555555555555555555455455555555555555555555555555555555555555",
"5555555555555555555554-554-5555555555555555555555555555555555555",
"555555555555555555554--54--5555555555555555555555555555555555555",
"5555555555555555555XXXO*--%5555555555555555555555555555555555555",
"555555555555555555+++=-43--%555555555555555555555555555555555555",
"555555555555555  XX+% +;441%555555555555555555555555555555555555",
"555555555555555  +-11444443,%55555ooooO555555    555555555555555",
"555555555555555X+++-6:+44431%555XXXooooO&<<<,$#@  55555555555555",
"5555555555555555-;>;:>@#-431,%XXXXXXXo+*=4<<&#@. 555555555555555",
"55555555555555555 XXX#--,3321,,+XXXXo+*=422#.  55555555555555555",
"5555555555555555555+++,,3332222*+ooo+=-4<,$555555555555555555555",
"555555555555555555555-==-4422;--=*++*44422,555555555555555555555",
"5555555555555555555555----42;-;4;===-44111,555555555555555555555",
"5555555555555555555555-----;--333333-12111,&55555555555555555555",
"55555555555555555555555-;----3332221-121111&&5555555555555555555",
"55555555555555555555555--;--3331111,&=1111111&555555555555555555",
"555555555555555555555552---;331111,,++=,,,,11&555555555555555555",
"555555555555555555555522===;311,==*+$XO++++,1&555555555555555555",
"55555555555555555555552,-*+4311,+*555$XX55=,1&555555555555555555",
"55555555555555555555552-=+X4311XX5555$$XXX5=1,555555555555555555",
"5555555555555555555552,-+55431,5555555$$+X5=&11&5555555555555555",
"5555555555555555555552-=+55421,555555555555=,,,&5555555555555555",
"555555555555555555552,=+555421,555555555555555555555555555555555",
"555555555555555555552-=555431,5555555555555555555555555555555555",
"55555555555555555522,=555532,55555555555555555555555555555555555",
"5555555555555555522,-=55543,555555555555555555555555555555555555",
"5555555555555555522-=XXXX31XXXXX+++++++++=====---;;;;55555555555",
"55555555555555555555555543,55555XXXXXXXXXXXX+++====----;;;;;;555",
"55555555555555555555XXX431XXXXX+++++++++========---;;;;;55555555"
};
