/* XPM */
static char *_1662_52aea7a36d0ff0b3bfb70c51c8259ed2cbc5adbc72f57e0156497c1fcbfa2003[] = {
/* columns rows colors chars-per-pixel */
"64 64 22 1 ",
"  c black",
". c #382C14",
"X c #202020",
"o c #2C2C2C",
"O c #343434",
"+ c gray22",
"@ c #403018",
"# c #543C1C",
"$ c #5C4020",
"% c #6C4824",
"& c #744C28",
"* c gray25",
"= c #484848",
"- c gray33",
"; c #646464",
": c #80502C",
"> c #885830",
", c #905C34",
"< c #9C6038",
"1 c #A0643C",
"2 c #A86840",
"3 c #980088",
/* pixels */
"3333333333333333333333333333333333333333333333333333333333333333",
"3333333333333333333333333333333333333333333333333333333333333333",
"3333333333333333333333333333333333333333333333333333333333333333",
"3333333333333333333333333333333333333333333333333333333333333333",
"3333333333333333333333333333333333333333333333333333333333333333",
"3333333333333333333333333333333333333333333333333333333333333333",
"3333333333333333333333333333333333333333333333333333333333333333",
"3333333333333333333333333333333333333333333333333333333333333333",
"3333333333333333333333333333333333333333333333333333333333333333",
"3333333333333333333333333333333333333333333333333333333333333333",
"3333333333333333333333333333333333333333333333333333333333333333",
"3333333333333333333333333333333333333333333333333333333333333333",
"3333333333333333333333333333333333333333333333333333333333333333",
"3333333333333333333333333333333333333333333333333333333333333333",
"3333333333333333333333333333333333333333333333333333333333333333",
"3333333333333333333333333333333333333333333333333333333333333333",
"3333333333333333333333333333333333333333333333333333333333333333",
"3333333333333333333333333333333333333333333333333333333333333333",
"3333333333333333333333333333333333333333333333333333333333333333",
"3333333333333333333333333333333333333333333333333333333333333333",
"3333333333333333333333333333333333333333333333333333333333333333",
"3333333333333333333333333333333333333333333333333333333333333333",
"3333333333333333333333333333333333333333333333333333333333333333",
"3333333333333333333333333333333333333333333333333333333333333333",
"3333333333333333333333333333333333333333333333333333333333333333",
"3333333333333333333333333333333333333333333333333333333333333333",
"3333333333333333333333333333333333333333333333333333333333333333",
"3333333333333333333333333333333333333333333333333333333333333333",
"3333333333333333333333333333333333333333333333333333333333333333",
"3333333333333333333333333333333333333333333333333333333333333333",
"3333333333333333333333333333333333333333333333333333333333333333",
"3333333333333333333333333333333333333333333333333333333333333333",
"3333333333333333333333333333333333333333333333333333333333333333",
"3333333333333333333333333333333333333333333333333333333333333333",
"3333333333333333333323333333333333333333333333333333333333333333",
"3333333333333333333222333333333333333333333333333333333333333333",
"333333333333333333<+-2+33333333333333333333333333333333333333333",
"333333333333333333oo<-333333333333333333333333333333333333333333",
"3333333333333333ooo+++333333333333333333333333333333333333333333",
"33333333333333oo+---==&&3333333333333333333333333333333333333333",
"3333333333  ooo+ ;22-->>&333333333333333333333333333333333333333",
"3333333333  o+-22222;;<<>333333333333+++++333333333333#.    3333",
"3333333333+=--222222222<>&33333333++++++**=,,33333333#@..   3333",
"33333333333++==---;22222<>=+3333+++++++**=222,3333&$$@@.  333333",
"3333333333333+++*22-22222>=oXoXoO+++++*==22222,:::>&$. 333333333",
"3333333333333333+*-2222222=+XoXoO++++*=-2<<<<2<<<>%$$33333333333",
"33333333333333333+*-;22222-=+oXoO++**=--<<>>>::::%33333333333333",
"33333333333333333++=-2222;--=****=---=-<<>>>>>%$3333333333333333",
"333333333333333333+*-;222--;2;--;;222=-<<>>>>>:$$$33333333333333",
"333333333333333333+*-;22--;222222211>&=;<>>>>>>:%%$3333333333333",
"3333333333333333333+=-;--;222222<<<,>&=-<>>>>>>>>:%3333333333333",
"3333333333333333333+*=-;;22222-,,,,-=**=-%::::%%:::%333333333333",
"33333333333333333333+**222222--,,-=**+++=-%%%%+++%::%33333333333",
"33333333333333333333%++22222%--==*++33333+++++o33$%:%33333333333",
"33333333333333333333>%222,,%=**+++3333333333$+oo33$::%3333333333",
"33333333333333333333>=222,%++++33333333333333$+o33#%:::&33333333",
"33333333333333333333>=22,%33333333333333333333$+oo3%:::$33333333",
"3333333333333333333>%222,%33333333333333333333$++oo3%%%$33333333",
"3333333333333333333>=22,%3333333333333333333333$+oo3333333333333",
"333333333333333333>%22,%3333333333333333333333333333333333333333",
"3333333333333333>>%=2,%33333333333333333333333333333333333333333",
"333333333333333>%%=22,%ooooooooooo+++++++====-----;;;;;;33333333",
"333333333333333%%222,%33333333ooooooooooooooo++++++===----;;;333",
"3333333333333333322,%oooooooooooo+++++++++======----;;;;33333333"
};
