/* XPM */
static char *_2811_f6fe04ad9694aa1d8dcc44f953061e606485622b09d3d9ba67323d09691b08d7[] = {
/* columns rows colors chars-per-pixel */
"64 64 23 1 ",
"  c black",
". c #28200C",
"X c #382C14",
"o c #2C2C2C",
"O c gray19",
"+ c #343434",
"@ c gray22",
"# c #403018",
"$ c #483818",
"% c #543C1C",
"& c #6C4824",
"* c #744C28",
"= c gray25",
"- c #484848",
"; c gray33",
": c #646464",
"> c #80502C",
", c #885830",
"< c #905C34",
"1 c #9C6038",
"2 c #A0643C",
"3 c #A86840",
"4 c #980088",
/* pixels */
"4444444444444444444444444444444444444444444444444444444444444444",
"4444444444444444444444444444444444444444444444444444444444444444",
"4444444444444444444444444444444444444444444444444444444444444444",
"4444444444444444444444444444444444444444444444444444444444444444",
"4444444444444444444444444444444444444444444444444444444444444444",
"4444444444444444444444444444444444444444444444444444444444444444",
"4444444444444444444444444444444444444444444444444444444444444444",
"4444444444444444444444444444444444444444444444444444444444444444",
"4444444444444444444444444444444444444444444444444444444444444444",
"4444444444444444444444444444444444444444444444444444444444444444",
"4444444444444444444444444444444444444444444444444444444444444444",
"4444444444444444444444444444444444444444444444444444444444444444",
"4444444444444444444444444444444444444444444444444444444444444444",
"4444444444444444444444444444444444444444444444444444444444444444",
"4444444444444444444444444444444444444444444444444444444444444444",
"4444444444444444444444444444444444444444444444444444444444444444",
"4444444444444444444444444444444444444444444444444444444444444444",
"4444444444444444444444444444444444444444444444444444444444444444",
"4444444444444444444444444444444444444444444444444444444444444444",
"4444444444444444444444444444444444444444444444444444444444444444",
"4444444444444444444444444444444444444444444444444444444444444444",
"4444444444444444444444444444444444444444444444444444444444444444",
"4444444444444444444444444444444444444444444444444444444444444444",
"4444444444444444444444444444444444444444444444444444444444444444",
"4444444444444444444444444444444444444444444444444444444444444444",
"4444444444444444444444444444444444444444444444444444444444444444",
"4444444444444444444444444444444444444444444444444444444444444444",
"4444444444444444444444444444444444444444444444444444444444444444",
"4444444444444444444444444444444444444444444444444444444444444444",
"4444444444444444444444444444444444444444444444444444444444444444",
"4444444444444444444444444444444444444444444444444444444444444444",
"4444444444444444444444444444444444444444444444444444444444444444",
"4444444444444444444444444444444444444444444444444444444444444444",
"4444444444444444444444344444344444444444444444444444444444444444",
"44444444444444444444443<4443<44444444444444444444444444444444444",
"4444444444444444444443;-44,,-44444444444444444444444444444444444",
"4444444444444444444oo;;-@;-@-44444444444444444444444444444444444",
"444444444444444444o-;oo;-@@-@44444444444444444444444444444444444",
"444444444444444  o- 3;;****<*44444444444444444444444444444444444",
"444444444444444o@;333333<<<<*44444444444444444444444444444444444",
"444444444444444o;3333333<<<<*44444444444444444444444444444444444",
"4444444444444444@;;;;3333<<<**4444@@@--4444444444    44444444444",
"44444444444444444@--3:333<<<<*o4@@@-,,,,4444%%$$##.  44444444444",
"444444444444444444  ;3;33<<<oO+@@-:3222,,44%>&%%#. 4444444444444",
"44444444444444444444;;3333<oO++@=:333322,***$$X. 444444444444444",
"44444444444444444444;;3333;o+@@=-:33333<<<*$$4444444444444444444",
"44444444444444444444;;33:;:-@@=-;333331$$$$$44444444444444444444",
"444444444444444444444;33;;3;---;331111&@@@%444444444444444444444",
"444444444444444444444;::;333333;11111,,@@%%444444444444444444444",
"4444444444444444444444;;:333333;11111,&@@%%%%4444444444444444444",
"4444444444444444444444;;3333333;11111*%*%%%%%4444444444444444444",
"44444444444444444444444;333333--;1111,,*@@@@%4444444444444444444",
"444444444444444444444444333<%--@@;1111,*4@@@@%444444444444444444",
"44444444444444444444444433<-@@@o@@---1,*444@@@%44444444444444444",
"4444444444444444444444433<-4ooooo4444,1,&444@@@%%444444444444444",
"4444444444444444444444433<-44&oo444444,,*4444@@%%444444444444444",
"444444444444444444444433<-44&ooo444444,,,&&444444444444444444444",
"44444444444444444444443<-4&&Xoo44444444,,&&444444444444444444444",
"44444444444444444444333<44&Xooo444444444444444444444444444444444",
"4444444444444444444333>%4444ooooo@@@-;;::44444444444444444444444",
"444444444444444444433<&%ooo4444444ooo@@@@@---;;::444444444444444",
"44444444444444444444444@@@@oooooooooooooooooo@@---;;:::444444444",
"444444444444444444444444444:::::;;;;-----@@@@@@@@@@--;;;:::::444",
"444444444444444444444444444444444444444:::::;;;;;;;;:::::4444444"
};
