/* XPM */
static char *_134_826b397af8115ce3d47e147bbd353694635d8a436a47652d157a508569b83c8e[] = {
/* columns rows colors chars-per-pixel */
"64 64 22 1 ",
"  c black",
". c #28200C",
"X c #202020",
"o c #2C2C2C",
"O c gray22",
"+ c #403018",
"@ c #483818",
"# c #543C1C",
"$ c #5C4020",
"% c #6C4824",
"& c #744C28",
"* c #484848",
"= c gray33",
"- c #646464",
"; c #80502C",
": c #885830",
"> c #905C34",
", c #9C6038",
"< c #A0643C",
"1 c #A86840",
"2 c #B47044",
"3 c #980088",
/* pixels */
"3333333333333333333333333333333333333333333333333333333333333333",
"3333333333333333333333333333333333333333333333333333333333333333",
"3333333333333333333333333333333333333333333333333333333333333333",
"3333333333333333333333333333333333333333333333333333333333333333",
"3333333333333333333333333333333333333333333333333333333333333333",
"3333333333333333333333333333333333333333333333333333333333333333",
"3333333333333333333333333333333333333333333333333333333333333333",
"3333333333333333333333333333333333333333333333333333333333333333",
"3333333333333333333333333333333333333333333333333333333333333333",
"3333333333333333333333333333333333333333333333333333333333333333",
"3333333333333333333333333333333333333333333333333333333333333333",
"3333333333333333333333333333333333333333333333333333333333333333",
"3333333333333333333333333333333333333333333333333333333333333333",
"3333333333333333333333333333333333333333333333333333333333333333",
"3333333333333333333333333333333333333333333333333333333333333333",
"3333333333333333333333333333333333333333333333333333333333333333",
"3333333333333333333333333333333333333333333333333333333333333333",
"3333333333333333333333333333333333333333333333333333333333333333",
"3333333333333333333333333333333333333333333333333333333333333333",
"3333333333333333333333333333333333333333333333333333333333333333",
"3333333333333333333333333333333333333333333333333333333333333333",
"3333333333333333333333333333333333333333333333333333333333333333",
"3333333333333333333333333333333333333333333333333333333333333333",
"3333333333333333333333333333333333333333333333333333333333333333",
"3333333333333333333333333333333333333333333333333333333333333333",
"3333333333333333333333333333333333333333333333333333333333333333",
"3333333333333333333333333333333333333333333333333333333333333333",
"3333333333333333333333333333333333333333333333333333333333333333",
"3333333333333333333333333333333333333333333333333333333333333333",
"3333333333333333333333333333333333333333333333333333333333333333",
"3333333333333333333333333333333333333333333333333333333333333333",
"3333333333333333333333333333333333333333333333333333333333333333",
"3333333333333333333333333333333333333333333333333333333333333333",
"3333333333333333333333333333333333333333333333333333333333333333",
"33333333333333333333333333331=3333333311333333333333333333333333",
"333333333333333333333333333311=33333311-333333333333333333333333",
"3333333333333333333333333333111=o33o:1-=333333333333333333333333",
"3333333333333333333333333333311ooooo11=3333333333333333333333333",
"33333333333333333333333333333=...====1=3333333333333333333333333",
"333333333333333333333333333331+...,,,=%3333333333333333333333333",
"333333333333333333333333333331%.++;,,:%3333333333333333333333333",
"333333333333333333333333333331;+%+@,,:%3333333333333333333333333",
"333333333333333333333333333331*+<;@OO=%3333333333333333333333333",
"33333333333333333333333333333OOO<;$@OOo3333333333333333333333333",
"3333333333333333333333333333OO$:<:%$@$Oo333333333333333333333333",
"3333333333333333333333333333O$,1<>;$$;%o333333333333333333333333",
"3333333333333333333333333333$:11<>;;;;&&333333333333333333333333",
"333333333333333333333333333:>>:::====;;&%33333333333333333333333",
"333333333333333333333333333>>22::OO=;:;&%33333333333333333333333",
"333333333333333333333333333>2211*OOO>>>&%33333333333333333333333",
"333333333333333333333333333:21>1OOoO;11=%33333333333333333333333",
"33333333333333333333333333331>&OoOoO#11>;33333333333333333333333",
"33333333333333333333333333311>&oooooo>11;33333333333333333333333",
"33333333333333333333333333311&$OXXXXX >1>33333333333333333333333",
"333333333333333333333333331=;3$O3333o+>1=;3333333333333333333333",
"33333333333333333333333333=;=3%O3333o+3=;=3333333333333333333333",
"333333333333333333333333331=;3%O3333o+3;=;3333333333333333333333",
"333333333333333333333333333333%O3333o+33333333333333333333333333",
"33333333333333333333333333333%$O+33+X++3333333333333333333333333",
"33333333333333333333333333333%++#oo#++#OO*=--3333333333333333333",
"333333333333333333333333333333-=*OOOoooooOO**==--333333333333333",
"33333333333333333333333333333333--=*OOooooooOOO*==--333333333333",
"333333333333333333333333333333333-=**OooooooooOO**===--333333333",
"33333333333333333333333333333333-=**OOOO333OOO***==--33333333333"
};
