/* XPM */
static char *_0133_b92be7c9c49ddb9dad22d0e93310a8c58aed7cff832a076a4d5a74f8d1d5d9d4[] = {
/* columns rows colors chars-per-pixel */
"64 64 21 1 ",
"  c black",
". c #202020",
"X c #2C2C2C",
"o c gray19",
"O c #343434",
"+ c gray22",
"@ c #543C1C",
"# c #5C4020",
"$ c #6C4824",
"% c #744C28",
"& c gray25",
"* c #484848",
"= c gray33",
"- c #80502C",
"; c #885830",
": c #905C34",
"> c #9C6038",
", c #A0643C",
"< c #A86840",
"1 c #B47044",
"2 c #980088",
/* pixels */
"2222222222222222222222222222222222222222222222222222222222222222",
"2222222222222222222222222222222222222222222222222222222222222222",
"2222222222222222222222222222222222222222222222222222222222222222",
"2222222222222222222222222222222222222222222222222222222222222222",
"2222222222222222222222222222222222222222222222222222222222222222",
"2222222222222222222222222222222222222222222222222222222222222222",
"2222222222222222222222222222222222222222222222222222222222222222",
"2222222222222222222222222222222222222222222222222222222222222222",
"2222222222222222222222222222222222222222222222222222222222222222",
"2222222222222222222222222222222222222222222222222222222222222222",
"2222222222222222222222222222222222222222222222222222222222222222",
"2222222222222222222222222222222222222222222222222222222222222222",
"2222222222222222222222222222222222222222222222222222222222222222",
"2222222222222222222222222222222222222222222222222222222222222222",
"2222222222222222222222222222222222222222222222222222222222222222",
"2222222222222222222222222222222222222222222222222222222222222222",
"2222222222222222222222222222222222222222222222222222222222222222",
"2222222222222222222222222222222222222222222222222222222222222222",
"2222222222222222222222222222222222222222222222222222222222222222",
"2222222222222222222222222222222222222222222222222222222222222222",
"2222222222222222222222222222222222222222222222222222222222222222",
"2222222222222222222222222222222222222222222222222222222222222222",
"2222222222222222222222222222222222222222222222222222222222222222",
"2222222222222222222222222222222222222222222222222222222222222222",
"2222222222222222222222222222222222222222222222222222222222222222",
"2222222222222222222222222222222222222222222222222222222222222222",
"2222222222222222222222222222222222222222222222222222222222222222",
"2222222222222222222222222222222222222222222222222222222222222222",
"2222222222222222222222222222222222222222222222222222222222222222",
"2222222222222222222222222222222222222222222222222222222222222222",
"2222222222222222222222222222222222222222222222222222222222222222",
"2222222222222222222222222222222222222222222222222222222222222222",
"2222222222222222222222222222222222222222222222222222222222222222",
"2222222222222222222222222222222222222222222222222222222222222222",
"2222222222222222222222222222222222222222222222222222222222222222",
"222222222222222222222222222222222222:=2222<>*2222222222222222222",
"222222222222222222222222222222222222<<=+22<>=+222222222222222222",
"2222222222222222222222222222222222222<*+++<=+.X22222222222222222",
"2222222222222222222222222222222222222-<==<>++++X2222222222222222",
"222222222222222222222222222222222222-:<<<,**+% +X  2222222222222",
"222222222222222222222222222222222222-<<<,>;;%%%%+  2222222222222",
"222222222222   22222222222***&&2222-:<<<,>;;%%%+++.2222222222222",
"222222222222  ... 2222222>>>**&++22-<<<<>;;%%++++.22222222222222",
"22222222222222 XX+X+2222<<<<<<*&+++&*=<,>;;%+%+X.222222222222222",
"222222222222222++@$$-;:::<<<>>>*&OOOO*=,,;;+%+ 22222222222222222",
"22222222222222222++@$$-;<<<>>>>>=*XooO*<;;;++2222222222222222222",
"2222222222222222222++++&&**>>>>;;=oXXX;*;;;++2222222222222222222",
"222222222222222222222<>==-:<>>;;;;+oo+;;*;;+22222222222222222222",
"222222222222222222222<>:=:-<>;;;;;;**;;;**;+22222222222222222222",
"222222222222222222221,>=*%1$$;;;;;;$;;;;;++222222222222222222222",
"222222222222222222221-**,11::$;;;;;#;;;;;++222222222222222222222",
"22222222222222222221,***11,:::;;;;#$;%%%;;2222222222222222222222",
"22222222222222222221-**,11:**::;;*++&&+%%;2222222222222222222222",
"2222222222222222221,*2211,:22**&&ooXXX+%%;2222222222222222222222",
"22222222222222222<<-*2<11:2222222222;+++%%;222222222222222222222",
"222222222222222221<:2<<1,:2222222222;$+@+%;222222222222222222222",
"22222222222222222<,:2<<<:222222222222;+@+%%;22222222222222222222",
"222222222222222222222<<<:222222222222;$+@+%;22222222222222222222",
"22222222222222222222222222222222222222;$@++%;**===22222222222222",
"22222222222222222222222222222222222222**+XX%%%%+++**==2222222222",
"22222222222222222222222222222222222**+++XXXX%%%XXXX++*=222222222",
"222222222222222222222222222====****+XXXXXXXXXXXXX++***=222222222",
"22222222222222222222========***+++++++++++++++****===22222222222",
"22222222222222222222222=======***************=====22222222222222"
};
