/* XPM */
static char *_7226_30c73f8fd15d2f10c3e15b04716471b89f689ac006958a97223c470c4e58ae99[] = {
/* columns rows colors chars-per-pixel */
"64 64 22 1 ",
"  c black",
". c #28200C",
"X c #382C14",
"o c #202020",
"O c #2C2C2C",
"+ c gray19",
"@ c #343434",
"# c gray22",
"$ c #483818",
"% c #5C4020",
"& c #6C4824",
"* c #744C28",
"= c gray25",
"- c #484848",
"; c gray33",
": c #646464",
"> c #80502C",
", c #885830",
"< c #905C34",
"1 c #9C6038",
"2 c #A86840",
"3 c #980088",
/* pixels */
"3333333333333333333333333333333333333333333333333333333333333333",
"3333333333333333333333333333333333333333333333333333333333333333",
"3333333333333333333333333333333333333333333333333333333333333333",
"3333333333333333333333333333333333333333333333333333333333333333",
"3333333333333333333333333333333333333333333333333333333333333333",
"3333333333333333333333333333333333333333333333333333333333333333",
"3333333333333333333333333333333333333333333333333333333333333333",
"3333333333333333333333333333333333333333333333333333333333333333",
"3333333333333333333333333333333333333333333333333333333333333333",
"3333333333333333333333333333333333333333333333333333333333333333",
"3333333333333333333333333333333333333333333333333333333333333333",
"3333333333333333333333333333333333333333333333333333333333333333",
"3333333333333333333333333333333333333333333333333333333333333333",
"3333333333333333333333333333333333333333333333333333333333333333",
"3333333333333333333333333333333333333333333333333333333333333333",
"3333333333333333333333333333333333333333333333333333333333333333",
"3333333333333333333333333333333333333333333333333333333333333333",
"3333333333333333333333333333333333333333333333333333333333333333",
"3333333333333333333333333333333333333333333333333333333333333333",
"3333333333333333333333333333333333333333333333333333333333333333",
"3333333333333333333333333333333333333333333333333333333333333333",
"3333333333333333333333333333333333333333333333333333333333333333",
"3333333333333333333333333333333333333333333333333333333333333333",
"3333333333333333333333333333333333333333333333333333333333333333",
"3333333333333333333333333333333333333333333333333333333333333333",
"3333333333333333333333333333333333333333333333333333333333333333",
"3333333333333333333333333333333333333333333333333333333333333333",
"3333333333333333333333333333333333333333333333333333333333333333",
"3333333333333333333333333333333333333333333333333333333333333333",
"3333333333333333333333333333333333333333333333333333333333333333",
"3333333333333333333333333333333333333333333333333333333333333333",
"3333333333333333333333333333333333333333333333333333333333333333",
"3333333333333333333333333333333333333333333333333333333333333333",
"3333333333333333333333333333333333333333333333333333333333333333",
"3333333333333333333333333333333333333333333323233333333333333333",
"3333333333333333333333333333333333333333333;2>133333333333333333",
"333333333333333333333333333333333333333333311>133333333333333333",
"333333333333333333333333333333333333333333O1-OO33333333333333333",
"33333333333333333333333333333333333333333<21-OOOO333333333333333",
"3333333333333333333333333333333333333333<21--;-##OO3333333333333",
"333333333333333333333333333333333333333<221;;11: OOOO  333333333",
"3333    333333333333<<-----33333333333<<222,,211,,-#O  333333333",
"3333  .XX333333333><2--==#####33333333<222222211<,,-##o333333333",
"33333 .X$$$*>>333><222;-#@+OO+##3#33#-<222222<;;;;-#Oo3333333333",
"333333 X&&,,<1<<<222222;@+OOOOOO+#+##-222222<;>>OOoo333333333333",
"33333333$$>>,,2222222222=@+OOOOOO#O@#;2222<,>;-#3333333333333333",
"33333333333333<<<<,22222;=@+OOOOo+oO-;222<<>;-#33333333333333333",
"33333333333333333,2222221;#-##+++++@-;22<<,>-=333333333333333333",
"33333333333333333,,22222<;-;2;--==22;-;<<>>-=#333333333333333333",
"3333333333333222,2222221,-;<222222222--;>>;-#3333333333333333333",
"33333333333332222222221;;=><<<22222222:-;>;-#3333333333333333333",
"33333333333322<,;;11<<;-=#=>><<<<<22222:-;-=%3333333333333333333",
"33333333333221;=#=;;;-=#33O+@=>>,,;2222:--=#%3333333333333333333",
"3333333333322;3333&=###33333O+@==---<222<###&3333333333333333333",
"3333333333221;333&=##33333333OOO+@@#<222<&##&3333333333333333333",
"333333332221;3333&##333333333333OO+++<22<>###&333333333333333333",
"33333332221;3333&##333333333333333333<222<###%&33333333333333333",
"3333333<<<;333&&&#3333333333333333333<<22<>###&33333333333333333",
"33333333333333&&##33333333333333333333<222<3###&3333333333333333",
"333333333333333333333333333333333333333<222>3##%&333333333333333",
"3333333333333333333333333333333333333333<<2<>3##%&33333333333333",
"3333333333333333333333:::;;;;;--------####<2<>###%O##---:::33333",
"3333333333333333:::::;;----####OOOOOOOOOOOO<2<<>OOOOOO##--;;:::3",
"3333333333333333333:::::;;;;-------#########<2<>####---;;::::333"
};
