/* XPM */
static char *_9437_6f9b7b1c29fd4649a51e7fb2f3de6d4591534ccbe5e57d75ad92607014053a9a[] = {
/* columns rows colors chars-per-pixel */
"64 64 25 1 ",
"  c black",
". c #28200C",
"X c #202020",
"o c #2C2C2C",
"O c gray19",
"+ c #343434",
"@ c gray22",
"# c #403018",
"$ c #543C1C",
"% c #5C4020",
"& c #6C4824",
"* c #744C28",
"= c gray25",
"- c #484848",
"; c gray33",
": c #646464",
"> c gray44",
", c #7C7C7C",
"< c #80502C",
"1 c #885830",
"2 c #905C34",
"3 c #9C6038",
"4 c #A86840",
"5 c #980088",
"6 c gray55",
/* pixels */
"5555555555555555555555555555555555555555555555555555555555555555",
"5555555555555555555555555555555555555555555555555555555555555555",
"5555555555555555555555555555555555555555555555555555555555555555",
"5555555555555555555555555555555555555555555555555555555555555555",
"5555555555555555555555555555555555555555555555555555555555555555",
"5555555555555555555555555555555555555555555555555555555555555555",
"5555555555555555555555555555555555555555555555555555555555555555",
"5555555555555555555555555555555555555555555555555555555555555555",
"5555555555555555555555555555555555555555555555555555555555555555",
"5555555555555555555555555555555555555555555555555555555555555555",
"5555555555555555555555555555555555555555555555555555555555555555",
"5555555555555555555555555555555555555555555555555555555555555555",
"5555555555555555555555555555555555555555555555555555555555555555",
"5555555555555555555555555555555555555555555555555555555555555555",
"5555555555555555555555555555555555555555555555555555555555555555",
"5555555555555555555555555555555555555555555555555555555555555555",
"5555555555555555555555555555555555555555555555555555555555555555",
"5555555555555555555555555555555555555555555555555555555555555555",
"5555555555555555555555555555555555555555555555555555555555555555",
"5555555555555555555555555555555555555555555555555555555555555555",
"5555555555555555555555555555555555555555555555555555555555555555",
"5555555555555555555555555555555555555555555555555555555555555555",
"5555555555555555555555555555555555555555555555555555555555555555",
"5555555555555555555555555555555555555555555555555555555555555555",
"5555555555555555555555555555555555555555555555555555555555555555",
"5555555555555555555555555555555555555555555555555555555555555555",
"5555555555555555555555555555555555555555555555555555555555555555",
"5555555555555555555555555555555555555555555555555555555555555555",
"5555555555555555555555555555555555555555555555555555555555555555",
"5555555555555555555555555555555555555555555555555555555555555555",
"5555555555555555555555555555555555555555555555555555555555555555",
"5555555555555555555555555555555555555555555555555555555555555555",
"5555555555555555555555555555555555555555555555555555555555555555",
"5555555555555555555555555555555555555555555555555555555555555555",
"5555555555555555555555555555555555555555555555555555555555555555",
"5555555555555555555555555555555555555425554555555555555555555555",
"5555555555555555555555555555555555555&22542555555555555555555555",
"55555555555555555555555555555555555554&2;;2555555555555555555555",
"55555555555555555555555555555555555554;-@ooo55555555555555555555",
"555555555555555    5555555555555555544;--@ooo5555555555555555555",
"55555555555555 ..#$$$*5555555555555444;3: @-@oo  555555555555555",
"555555555555555  #$*<<<**@@@o55555544433311;--@  555555555555555",
"55555555555555555 #$*&22-ooooo55554444333%@:6%@@o555555555555555",
"555555555555555555555244-oXXXXX5554444311@-,:>;-5555555555555555",
"55555555555555555555524421$XXXXX@@444331;%%@ooo55555555555555555",
"555555555555555555555444441$ooo@@1444331<*-&55555555555555555555",
"555555555555555555555444444*@@@@-4443331<;-&55555555555555555555",
"5555555555555555555551444444;-;44--33331*;-&55555555555555555555",
"5555555555555555554414444444444444--31*;;--&55555555555555555555",
"55555555555555555544444444144444443--1*;--&555555555555555555555",
"55555555555555555444444441;44444443----;-@&555555555555555555555",
"5555555555555555544&14444;-444444433----=@&555555555555555555555",
"5555555555555554441&&111@Oo+@44;444%====@o&555555555555555555555",
"555555555555554441&55oooo+OOO@-;444%@+Ooo+&555555555555555555555",
"55555555555555444&555555%@@++oo;4441%ooO+@&555555555555555555555",
"5555555555555555555555555%@@@5551443%55@@@&&55555555555555555555",
"555555555555555555555555555555551443%555@@@&55555555555555555555",
"555555555555555555555555555555551143%5555@@&&5555555555555555555",
"5555555555555555555555555555555551431%555@@@&5555555555555555555",
"5555555555555555555555555555555551443%5555@@@&555555555555555555",
"55555555555555555555555555555555551431%5555@@@&55555555555555555",
"5555555555555555555555555::::;;-@@@133%ooooo@@@@@--;;:::55555555",
"55555555555555555555:::;;;;--@@@oooo431%%oooooooo@@@---;;::55555",
"55555555555555555555555:::;;;--@@oooo431%oooo@@@@@@--;;:::555555"
};
