/* XPM */
static char *_390_ef591c091e21c3e754ae1400250eb22ccf81745464d8ba4949f32b884f6342c8[] = {
/* columns rows colors chars-per-pixel */
"64 64 22 1 ",
"  c black",
". c #202020",
"X c #2C2C2C",
"o c gray22",
"O c #483818",
"+ c #543C1C",
"@ c #5C4020",
"# c #6C4824",
"$ c #744C28",
"% c gray25",
"& c #484848",
"* c gray33",
"= c #646464",
"- c #7C7C7C",
"; c #80502C",
": c #885830",
"> c #905C34",
", c #9C6038",
"< c #A86840",
"1 c #B47044",
"2 c #980088",
"3 c gray55",
/* pixels */
"2222222222222222222222222222222222222222222222222222222222222222",
"2222222222222222222222222222222222222222222222222222222222222222",
"2222222222222222222222222222222222222222222222222222222222222222",
"2222222222222222222222222222222222222222222222222222222222222222",
"2222222222222222222222222222222222222222222222222222222222222222",
"2222222222222222222222222222222222222222222222222222222222222222",
"2222222222222222222222222222222222222222222222222222222222222222",
"2222222222222222222222222222222222222222222222222222222222222222",
"2222222222222222222222222222222222222222222222222222222222222222",
"2222222222222222222222222222222222222222222222222222222222222222",
"2222222222222222222222222222222222222222222222222222222222222222",
"2222222222222222222222222222222222222222222222222222222222222222",
"2222222222222222222222222222222222222222222222222222222222222222",
"2222222222222222222222222222222222222222222222222222222222222222",
"2222222222222222222222222222222222222222222222222222222222222222",
"2222222222222222222222222222222222222222222222222222222222222222",
"2222222222222222222222222222222222222222222222222222222222222222",
"2222222222222222222222222222222222222222222222222222222222222222",
"2222222222222222222222222222222222222222222222222222222222222222",
"2222222222222222222222222222222222222222222222222222222222222222",
"2222222222222222222222222222222222222222222222222222222222222222",
"2222222222222222222222222222222222222222222222222222222222222222",
"2222222222222222222222222222222222222222222222222222222222222222",
"2222222222222222222222222222222222222222222222222222222222222222",
"2222222222222222222222222222222222222222222222222222222222222222",
"2222222222222222222222222222222222222222222222222222222222222222",
"2222222222222222222222222222222222222222222222222222222222222222",
"2222222222222222222222222222222222222222222222222222222222222222",
"2222222222222222222222222222222222222222222222222222222222222222",
"2222222222222222222222222222222222222222222222222222222222222222",
"2222222222222222222222222222222222222222222222222222222222222222",
"2222222222222222222222222222222222222222222222222222222222222222",
"2222222222222222222222222222222222222222222222222222222222222222",
"222222222222222222222222222<;22222222<;2222222222222222222222222",
"222222222222222222222222222*<;222222<<;2222222222222222222222222",
"2222222222222222222222222222*o;;22;;o*22222222222222222222222222",
"2222222222222222222222222222*oXXXXXXo*22222222222222222222222222",
"2222222222222222222222222222o*&XXXX&*o22222222222222222222222222",
"2222222222222222222222222222,&.XooX.&*22222222222222222222222222",
"222222222222222222222222222;,,1....<,#+2222222222222222222222222",
"222222222222222222222222222;,1o&  &X>#+2222222222222222222222222",
"222222222222222222222222222;;*oooooX*#+2222222222222222222222222",
"2222222222222222222222222222;*o3**-X*#22222222222222222222222222",
"222222222222222222222222222;;<o*oo*o>;;2222222222222222222222222",
"222222222222222222222222222,,<>&&&&&>;;2222222222222222222222222",
"222222222222222222222222222,<<>*****>;;2222222222222222222222222",
"222222222222222222222222222,<<<=***=>*;#222222222222222222222222",
"22222222222222222222222222;,<<=*=,=*>*;#222222222222222222222222",
"22222222222222222222222222;,<<<=,*,=*:;#222222222222222222222222",
"22222222222222222222222222;,<<=,====>:##222222222222222222222222",
"2222222222222222222222222;>$<<*==****:##@22222222222222222222222",
"2222222222222222222222222;>#<:*&&&&&:;#O@22222222222222222222222",
"2222222222222222222222222;>#,:*%%%%%:;#O@22222222222222222222222",
"2222222222222222222222222#:@>:$ooooo:#+O+22222222222222222222222",
"22222222222222222222222222$@;:$XXXX&:#+OO22222222222222222222222",
"22222222222222222222222222$@$:$X222&##+O222222222222222222222222",
"222222222222222222222222222@#:$X22&##+O2222222222222222222222222",
"22222222222222222222222222222$$X22OOO+22222222222222222222222222",
"22222222222222222222222222222++X222OOo22222222222222222222222222",
"22222222222222222222222222222##o222o+O22222222222222222222222222",
"22222222222222222222222222222##+222##O22222222222222222222222222",
"222222222222222222222222222222=*&oXXXXXXXoooo&&*==22222222222222",
"2222222222222222222222222222222=**&oXXXXXXXXoooo&&&**====2222222",
"22222222222222222222222222222222==*&&ooooooooo&&&**==22222222222"
};
