/* XPM */
static char *_0735_d27f401ac0e8398d9a3ba5b8221e2b0844a63710ac225bad0ff987bc8e96c625[] = {
/* columns rows colors chars-per-pixel */
"64 64 25 1 ",
"  c black",
". c #382C14",
"X c #202020",
"o c #2C2C2C",
"O c gray19",
"+ c gray22",
"@ c #403018",
"# c #543C1C",
"$ c #5C4020",
"% c #6C4824",
"& c #744C28",
"* c gray25",
"= c #484848",
"- c gray33",
"; c #646464",
": c gray44",
"> c #7C7C7C",
", c #80502C",
"< c #885830",
"1 c #905C34",
"2 c #9C6038",
"3 c #A0643C",
"4 c #A86840",
"5 c #980088",
"6 c gray55",
/* pixels */
"5555555555555555555555555555555555555555555555555555555555555555",
"5555555555555555555555555555555555555555555555555555555555555555",
"5555555555555555555555555555555555555555555555555555555555555555",
"5555555555555555555555555555555555555555555555555555555555555555",
"5555555555555555555555555555555555555555555555555555555555555555",
"5555555555555555555555555555555555555555555555555555555555555555",
"5555555555555555555555555555555555555555555555555555555555555555",
"5555555555555555555555555555555555555555555555555555555555555555",
"5555555555555555555555555555555555555555555555555555555555555555",
"5555555555555555555555555555555555555555555555555555555555555555",
"5555555555555555555555555555555555555555555555555555555555555555",
"5555555555555555555555555555555555555555555555555555555555555555",
"5555555555555555555555555555555555555555555555555555555555555555",
"5555555555555555555555555555555555555555555555555555555555555555",
"5555555555555555555555555555555555555555555555555555555555555555",
"5555555555555555555555555555555555555555555555555555555555555555",
"5555555555555555555555555555555555555555555555555555555555555555",
"5555555555555555555555555555555555555555555555555555555555555555",
"5555555555555555555555555555555555555555555555555555555555555555",
"5555555555555555555555555555555555555555555555555555555555555555",
"5555555555555555555555555555555555555555555555555555555555555555",
"5555555555555555555555555555555555555555555555555555555555555555",
"5555555555555555555555555555555555555555555555555555555555555555",
"5555555555555555555555555555555555555555555555555555555555555555",
"5555555555555555555555555555555555555555555555555555555555555555",
"5555555555555555555555555555555555555555555555555555555555555555",
"5555555555555555555555555555555555555555555555555555555555555555",
"5555555555555555555555555555555555555555555555555555555555555555",
"5555555555555555555555555555555555555555555555555555555555555555",
"5555555555555555555555555555555555555555555555555555555555555555",
"5555555555555555555555555555555555555555555555555555555555555555",
"5555555555555555555555555555555555555555555555555555555555555555",
"5555555555555555555555555555555555555555555555555555555555555555",
"5555555555555555555555545545555555555555555555555555555555555555",
"55555555555555555555554-554-555555555555555555555555555555555555",
"5555555555555555555554--54--555555555555555555555555555555555555",
"55555555555555555555ooooo--%555555555555555555555555555555555555",
"5555555555555555555+++=-43--%55555555555555555555555555555555555",
"5555555555555555  oo+% +;441%55555555555555555555555555555555555",
"5555555555555555  +-11444443,%5555555555555@    5555555555555555",
"5555555555555555o+++-6:+44431%555555555555$,$#@  555555555555555",
"55555555555555555-;>;:>@#-431%55555555555<<&#@. 5555555555555555",
"555555555555555555 ooo#--,332,ooXoooo555<4<.  555555555555555555",
"55555555555555555555+++,,33322,*oXoooO2442@@55555555555555555555",
"555555555555555555555===-443222-*XooO+-24&5555555555555555555555",
"555555555555555555555-==-4422;-2-*++*=22155555555555555555555555",
"5555555555555555555555----44--22;=*==222<55555555555555555555555",
"5555555555555555555555--------222;--2444,55555555555555555555555",
"55555555555555555555555-;----22222-;4444&55555555555555555555555",
"55555555555555555555555--;-4422,2;-24444&55555555555555555555555",
"55555555555555555555555&---4442&-=-24422&55555555555555555555555",
"55555555555555555555555<-==*442&=+*2221<&55555555555555555555555",
"55555555555555555555555<-*++442&+o*2211,555555555555555555555555",
"5555555555555555555555552ooo=422&o*211<,555555555555555555555555",
"55555555555555555555555552-=5442&o*211,5555555555555555555555555",
"55555555555555555555555552-=5542&o*11<,5555555555555555555555555",
"55555555555555555555555552-=5542&o*11,55555555555555555555555555",
"55555555555555555555555552-=5542&o=1<,55555555555555555555555555",
"555555555555555555555555522,,5442&=1,555555555555555555555555555",
"555555555555555555555555552,,5442&21,555555555555555555555555555",
"55555555555555555555555555551%%%11115555555555555555555555555555",
"5555555555555555555555555551%%%5111ooooo+++===---;;;;55555555555",
"555555555555555555555555555;;-=+++++ooooooooooo++===---;;;555555",
"55555555555555555555555555;;;;--===+++++++++=====--;;;;555555555"
};
