/* XPM */
static char *_9580_8be285282ec0a58d2502627d86c4b5d857cc9d2b08283b5b5ebfa4fbca7ffbf4[] = {
/* columns rows colors chars-per-pixel */
"64 64 25 1 ",
"  c black",
". c #382C14",
"X c #202020",
"o c #2C2C2C",
"O c gray19",
"+ c #343434",
"@ c gray22",
"# c #403018",
"$ c #543C1C",
"% c #5C4020",
"& c #6C4824",
"* c #744C28",
"= c gray25",
"- c #484848",
"; c gray33",
": c #646464",
"> c #80502C",
", c #885830",
"< c #905C34",
"1 c #9C6038",
"2 c #A0643C",
"3 c #A86840",
"4 c #B47044",
"5 c #BC7848",
"6 c #980088",
/* pixels */
"6666666666666666666666666666666666666666666666666666666666666666",
"6666666666666666666666666666666666666666666666666666666666666666",
"6666666666666666666666666666666666666666666666666666666666666666",
"6666666666666666666666666666666666666666666666666666666666666666",
"6666666666666666666666666666666666666666666666666666666666666666",
"6666666666666666666666666666666666666666666666666666666666666666",
"6666666666666666666666666666666666666666666666666666666666666666",
"6666666666666666666666666666666666666666666666666666666666666666",
"6666666666666666666666666666666666666666666666666666666666666666",
"6666666666666666666666666666666666666666666666666666666666666666",
"6666666666666666666666666666666666666666666666666666666666666666",
"6666666666666666666666666666666666666666666666666666666666666666",
"6666666666666666666666666666666666666666666666666666666666666666",
"6666666666666666666666666666666666666666666666666666666666666666",
"6666666666666666666666666666666666666666666666666666666666666666",
"6666666666666666666666666666666666666666666666666666666666666666",
"6666666666666666666666666666666666666666666666666666666666666666",
"6666666666666666666666666666666666666666666666666666666666666666",
"6666666666666666666666666666666666666666666666666666666666666666",
"6666666666666666666666666666666666666666666666666666666666666666",
"6666666666666666666666666666666666666666666666666666666666666666",
"6666666666666666666666666666666666666666666666666666666666666666",
"6666666666666666666666666666666666666666666666666666666666666666",
"6666666666666666666666666666666666666666666666666666666666666666",
"6666666666666666666666666666666666666666666666666666666666666666",
"6666666666666666666666666666666666666666666666666666666666666666",
"6666666666666666666666666666666666666666666666666666666666666666",
"6666666666666666666666666666666666666666666666666666666666666666",
"6666666666666666666666666666666666666666666666666666666666666666",
"6666666666666666666666666666666666666666666666666666666666666666",
"6666666666666666666666666666666666666666666666666666666666666666",
"6666666666666666666666666666666666666666666666666666666666666666",
"6666666666666666666666666666666666666666666666666666666666666666",
"6666666666666666666666666666666666666666666666666666666666666666",
"6666666666666666666666666666666666666666666666666666666666666666",
"6666666666666666666333666666666666666666666666666666666666666666",
"6666666666666666663;3@666666666666666666666666666666666666666666",
"66666666666666666oo1;6666666666666666666666666666666666666666666",
"666666666666666ooo@@@6666666666666666666666666666666666666666666",
"6666666666666oo@;;;--**66666666666666666666666666666666666666666",
"666666666  ooo@ :33;;,,*666666666666666666666666666666$.    6666",
"666666666  o@;33333::11,*6666666666666666666666666666$#..   6666",
"666666666@-;;3333333331,**o66666666@@@@@@=-,,66666%%%##.  666666",
"6666666666@@--;;;:333331,*@oXoX6@@@@@@@@==-33<>**%>*%. 666666666",
"666666666666@@@=33;33333,,@oXoXoO+@@@=-;;33333<<<>%%%66666666666",
"666666666666666@@;3333333,=oXoXoo+@==-;333333%;>%%66666666666666",
"66666666666666666@=-;3333:=@ooXoO=-;;;24444333%%6666666666666666",
"666666666666666666@=;:333:;=@oo@=;;3<<544433<<666666666666666666",
"666666666666666666@@;:333;;;3;=33333>5444333<>666666666666666666",
"6666666666666666666@-;;:3;;33333333<@54433<<,>666666666666666666",
"6666666666666666666@=-;;:;333<>><<<;@4433<<,,*666666666666666666",
"66666666666666666666@@o;;3333333>--@@443<<,,>&666666666666666666",
"6666666666666666666666@oo>>>1333>@oo@,43<<,>&6666666666666666666",
"6666666666666666666666>&@ooo>133>o@@@,33<,>&66666666666666666666",
"66666666666666666666666>&@@oo>13>@@@@@33<,&666666666666666666666",
"666666666666666666666666&@@66613>@@@@6@<<,6666666666666666666666",
"666666666666666666666666>@@@6613>@@@66<<<,6666666666666666666666",
"666666666666666666666666>&@@@613&1@666<<,&6666666666666666666666",
"6666666666666666666666666&&&@6>>>>@66,<,&66666666666666666666666",
"666666666666666666666666666666&&@@66,,,&666666666666666666666666",
"66666666666666666666666666666&&@@@,,,<66666666666666666666666666",
"6666666666666666666666666666-----@,,,ooooooooo@@--;;;:::66666666",
"6666666666666666666666666666;;;--@@@@@@oooooooooo@@@---;;;;:::66",
"66666666666666666666666666::::;;;;---@@@@@@@@@@----;;;;:::666666"
};
