/* XPM */
static char *_330_49eb22f3127c4399719236fe16a1666b201b37c03ebc10374c6aec1b63ce29a0[] = {
/* columns rows colors chars-per-pixel */
"64 64 24 1 ",
"  c black",
". c #28200C",
"X c #382C14",
"o c #2C2C2C",
"O c gray19",
"+ c #343434",
"@ c gray22",
"# c #403018",
"$ c #483818",
"% c #543C1C",
"& c #5C4020",
"* c #6C4824",
"= c #744C28",
"- c gray25",
"; c #484848",
": c gray33",
"> c #646464",
", c #80502C",
"< c #885830",
"1 c #905C34",
"2 c #9C6038",
"3 c #A86840",
"4 c #B47044",
"5 c #980088",
/* pixels */
"5555555555555555555555555555555555555555555555555555555555555555",
"5555555555555555555555555555555555555555555555555555555555555555",
"5555555555555555555555555555555555555555555555555555555555555555",
"5555555555555555555555555555555555555555555555555555555555555555",
"5555555555555555555555555555555555555555555555555555555555555555",
"5555555555555555555555555555555555555555555555555555555555555555",
"5555555555555555555555555555555555555555555555555555555555555555",
"5555555555555555555555555555555555555555555555555555555555555555",
"5555555555555555555555555555555555555555555555555555555555555555",
"5555555555555555555555555555555555555555555555555555555555555555",
"5555555555555555555555555555555555555555555555555555555555555555",
"5555555555555555555555555555555555555555555555555555555555555555",
"5555555555555555555555555555555555555555555555555555555555555555",
"5555555555555555555555555555555555555555555555555555555555555555",
"5555555555555555555555555555555555555555555555555555555555555555",
"5555555555555555555555555555555555555555555555555555555555555555",
"5555555555555555555555555555555555555555555555555555555555555555",
"5555555555555555555555555555555555555555555555555555555555555555",
"5555555555555555555555555555555555555555555555555555555555555555",
"5555555555555555555555555555555555555555555555555555555555555555",
"5555555555555555555555555555555555555555555555555555555555555555",
"5555555555555555555555555555555555555555555555555555555555555555",
"5555555555555555555555555555555555555555555555555555555555555555",
"5555555555555555555555555555555555555555555555555555555555555555",
"5555555555555555555555555555555555555555555555555555555555555555",
"5555555555555555555555555555555555555555555555555555555555555555",
"5555555555555555555555555555555555555555555555555555555555555555",
"5555555555555555555555555555555555555555555555555555555555555555",
"5555555555555555555555555555555555555555555555555555555555555555",
"5555555555555555555555555555555555555555555555555555555555555555",
"5555555555555555555555555555555555555555555555555555555555555555",
"5555555555555555555555555555555555555555555555555555555555555555",
"5555555555555555555555555555555555555555555555555555555555555555",
"5555555555555555555555335553355555555555555555555555555555555555",
"5555555555555555555553:;55<<;55555555555555555555555555555555555",
"5555555555555555555oo::;@:;@;55555555555555555555555555555555555",
"555555555555555555o;:oo:;@@;@55555555555555555555555555555555555",
"555555555555555  o; 3::====1=55555555555555555555555555555555555",
"555555555555555o@:3333331111=55555555555555555555555555555555555",
"555555555555555o:33333331111=55555555555555555555555555555555555",
"5555555555555555@::::3333111==5555555555555555555555555555555555",
"55555555555555555@;;2>3331111=5555555555555555555555555555555555",
"555555555555555555 :233331=ooO+@@@555555555555555555555555555555",
"5555555555555555555:23333=ooO+@@-;;:<5555555555    5555555555555",
"5555555555555555555:23333oOO+@-;;>>322555=&&$$##.  5555555555555",
"5555555555555555555:23333O+@@-;:>333322==,,,%%#. 555555555555555",
"5555555555555555555:2333:;--;;>3333333<<2,&&X. 55555555555555555",
"55555555555555555555:2:::3;;::3333322222&&5555555555555555555555",
"55555555555555555555:2:33333>3333332==@%%55555555555555555555555",
"55555555555555555555::33323>4444443*@@%%%55555555555555555555555",
"5555555555555555555552223,3>4443332<@@%%%55555555555555555555555",
"555555555555555555555222,*;14432221*@@%%555555555555555555555555",
"555555555555555555555522,*-1432211,*&%%%555555555555555555555555",
"555555555555555555555552,*@@43211,*&@@%5555555555555555555555555",
"555555555555555555555552,*oo1121,*&@@%55555555555555555555555555",
"555555555555555555555552,*555121*&@@%%55555555555555555555555555",
"555555555555555555555552,,*55221&5@@%%55555555555555555555555555",
"5555555555555555555555522::@521155@%%%55555555555555555555555555",
"555555555555555555555555222@211%5@@%%555555555555555555555555555",
"555555555555555555555555555511*55@%%5555555555555555555555555555",
"55555555555555555555555555,11,55@@%55555555555555555555555555555",
"55555555555555555555555555,,,55@@%%@@@@@@@;;;::::>>>555555555555",
"555555555555555555555555555>:;;@@@oooooooooo@@@@@@;;::>>>>555555",
"5555555555555555555555555555555>>>:::;;;;@@@@@@;;;:>>>5555555555"
};
