/* XPM */
static char *_029_8d77f44c4c11f65d978b3d236f8b41580d7a8b804c72591539953445622c219f[] = {
/* columns rows colors chars-per-pixel */
"64 64 22 1 ",
"  c black",
". c #382C14",
"X c #2C2C2C",
"o c gray19",
"O c gray22",
"+ c #403018",
"@ c #483818",
"# c #543C1C",
"$ c #5C4020",
"% c #6C4824",
"& c #744C28",
"* c gray25",
"= c #484848",
"- c gray33",
"; c #646464",
": c #80502C",
"> c #885830",
", c #905C34",
"< c #9C6038",
"1 c #A0643C",
"2 c #A86840",
"3 c #980088",
/* pixels */
"3333333333333333333333333333333333333333333333333333333333333333",
"3333333333333333333333333333333333333333333333333333333333333333",
"3333333333333333333333333333333333333333333333333333333333333333",
"3333333333333333333333333333333333333333333333333333333333333333",
"3333333333333333333333333333333333333333333333333333333333333333",
"3333333333333333333333333333333333333333333333333333333333333333",
"3333333333333333333333333333333333333333333333333333333333333333",
"3333333333333333333333333333333333333333333333333333333333333333",
"3333333333333333333333333333333333333333333333333333333333333333",
"3333333333333333333333333333333333333333333333333333333333333333",
"3333333333333333333333333333333333333333333333333333333333333333",
"3333333333333333333333333333333333333333333333333333333333333333",
"3333333333333333333333333333333333333333333333333333333333333333",
"3333333333333333333333333333333333333333333333333333333333333333",
"3333333333333333333333333333333333333333333333333333333333333333",
"3333333333333333333333333333333333333333333333333333333333333333",
"3333333333333333333333333333333333333333333333333333333333333333",
"3333333333333333333333333333333333333333333333333333333333333333",
"3333333333333333333333333333333333333333333333333333333333333333",
"3333333333333333333333333333333333333333333333333333333333333333",
"3333333333333333333333333333333333333333333333333333333333333333",
"3333333333333333333333333333333333333333333333333333333333333333",
"3333333333333333333333333333333333333333333333333333333333333333",
"3333333333333333333333333333333333333333333333333333333333333333",
"3333333333333333333333333333333333333333333333333333333333333333",
"3333333333333333333333333333333333333333333333333333333333333333",
"3333333333333333333333333333333333333333333333333333333333333333",
"3333333333333333333333333333333333333333333333333333333333333333",
"3333333333333333333333333333333333333333333333333333333333333333",
"3333333333333333333333333333333333333333333333333333333333333333",
"3333333333333333333333333333333333333333333333333333333333333333",
"3333333333333333333333333333333333333333333333333333333333333333",
"3333333333333333333333333333333333333333333333333333333333333333",
"33333333333333333333333333332-3333333322333333333333333333333333",
"333333333333333333333333333322-33333322;333333333333333333333333",
"3333333333333333333333333333222-X33X>2;-333333333333333333333333",
"3333333333333333333333333333322XXXXX22-3333333333333333333333333",
"33333333333333333333333333333--2-----2-3333333333333333333333333",
"33333333333333333333333333333222<<<<<-%3333333333333333333333333",
"3333333333333333333333333333322<<<<<<>%3333333333333333333333333",
"33333333333333333333333333333<  <<<<<>%3333333333333333333333333",
"33333333333333333333333333333    ===--%3333333333333333333333333",
"33333333333333333333333333333++++OOOOOX3333333333333333333333333",
"33333333333333333333333333333+@+@XXXXXX3333333333333333333333333",
"3333333333333333333333333333=O%%@XXXXXXX333333333333333333333333",
"3333333333333333333333333333=O:,>%$::XXX333333333333333333333333",
"3333333333333333333333333333=2:,,,:$:%XX333333333333333333333333",
"33333333333333333333333333332222,,:::>%%333333333333333333333333",
"3333333333333333333333333333222>>----,,:333333333333333333333333",
"3333333333333333333333333332,,2>>***-,,:%33333333333333333333333",
"3333333333333333333333333332,,2==*OO=-,:%33333333333333333333333",
"3333333333333333333333333332,,2=*OXOO>>:%33333333333333333333333",
"3333333333333333333333333331,,,OXoXoO>>:%33333333333333333333333",
"33333333333333333333333333331,,XXXXXX>>:%33333333333333333333333",
"333333333333333333333333333311,Xoo3oX2>%333333333333333333333333",
"333333333333333333333333333311,XXO3O%2>%333333333333333333333333",
"3333333333333333333333333333>2,-XO3O:::%333333333333333333333333",
"3333333333333333333333333333>>,#XO3O:##3333333333333333333333333",
"33333333333333333333333333333>&#X333:##3333333333333333333333333",
"33333333333333333333333333333>&#X333###3333333333333333333333333",
"333333333333333333333333333333&##333##.3333333333333333333333333",
"333333333333333333333333333333&##.X###.OOOOOOO==--;;;33333333333",
"333333333333333333333333333333;-=OOOOXXXXXXXXXXXXOO==-;;;;333333",
"3333333333333333333333333333333;;;---===OOOOOOO===-;;;;333333333"
};
