/* XPM */
static char *_9439_d519a522d8c12ea2152f51c442b9b7235437d39cd4f8b24b27e25b1946b10866[] = {
/* columns rows colors chars-per-pixel */
"64 64 22 1 ",
"  c black",
". c #28200C",
"X c #382C14",
"o c #202020",
"O c #2C2C2C",
"+ c gray19",
"@ c gray22",
"# c #483818",
"$ c #543C1C",
"% c #5C4020",
"& c #6C4824",
"* c #744C28",
"= c gray25",
"- c #484848",
"; c gray33",
": c #646464",
"> c #80502C",
", c #885830",
"< c #905C34",
"1 c #9C6038",
"2 c #A86840",
"3 c #980088",
/* pixels */
"3333333333333333333333333333333333333333333333333333333333333333",
"3333333333333333333333333333333333333333333333333333333333333333",
"3333333333333333333333333333333333333333333333333333333333333333",
"3333333333333333333333333333333333333333333333333333333333333333",
"3333333333333333333333333333333333333333333333333333333333333333",
"3333333333333333333333333333333333333333333333333333333333333333",
"3333333333333333333333333333333333333333333333333333333333333333",
"3333333333333333333333333333333333333333333333333333333333333333",
"3333333333333333333333333333333333333333333333333333333333333333",
"3333333333333333333333333333333333333333333333333333333333333333",
"3333333333333333333333333333333333333333333333333333333333333333",
"3333333333333333333333333333333333333333333333333333333333333333",
"3333333333333333333333333333333333333333333333333333333333333333",
"3333333333333333333333333333333333333333333333333333333333333333",
"3333333333333333333333333333333333333333333333333333333333333333",
"3333333333333333333333333333333333333333333333333333333333333333",
"3333333333333333333333333333333333333333333333333333333333333333",
"3333333333333333333333333333333333333333333333333333333333333333",
"3333333333333333333333333333333333333333333333333333333333333333",
"3333333333333333333333333333333333333333333333333333333333333333",
"3333333333333333333333333333333333333333333333333333333333333333",
"3333333333333333333333333333333333333333333333333333333333333333",
"3333333333333333333333333333333333333333333333333333333333333333",
"3333333333333333333333333333333333333333333333333333333333333333",
"3333333333333333333333333333333333333333333333333333333333333333",
"3333333333333333333333333333333333333333333333333333333333333333",
"3333333333333333333333333333333333333333333333333333333333333333",
"3333333333333333333333333333333333333333333333333333333333333333",
"3333333333333333333333333333333333333333333333333333333333333333",
"3333333333333333333333333333333333333333333333333333333333333333",
"3333333333333333333333333333333333333333333333333333333333333333",
"3333333333333333333333333333333333333333333333333333333333333333",
"3333333333333333333333333333333333333333332323333333333333333333",
"33333333333333333333333333333333333333333322>1333333333333333333",
"33333333333333333333333333333333333333333311>1333333333333333333",
"33333333333333333333333333333333333333333O1-OO333333333333333333",
"3333333333333333333333333333333333333333<21-OOOO3333333333333333",
"333333333333333333333333333333333333333<21--;-@@OO33333333333333",
"33333333    33333333333333333333333333<221;;11: OOOO  3333333333",
"33333333  .XX3333333333333333333333333<222,,211,,-@O  3333333333",
"33333333  .X##33333333@@@@@3333333333<222222211<,,-@@o3333333333",
"333333333.XX&&*33333@@@@+OOOOO333333@<222222<;;;;-@Oo33333333333",
"3333333333X&&,,><<<22-@+OOOOOOOO3@3@@222222<;>>OOoo3333333333333",
"33333333333&,>>1112222--@OOOOOOOo@o@@2222<,>;-@33333333333333333",
"3333333333333>,,<2;22222-@OOOOOOo@o@=222<<>;-@333333333333333333",
"3333333333333333332222222-=@@OOOoOo@-22<<,>-@3333333333333333333",
"33333333333333333322221<<2;;-=@@OOo=;22<<,>-@3333333333333333333",
"333333333333333333222211<<222;;-==;;;-2<<,>-@3333333333333333333",
"333333333333333333222221<<&<22222222;-<<,;-=@3333333333333333333",
"333333333333333333222221<<&@<<222222;-<<;-=@@3333333333333333333",
"333333333333333333322221<<&@-<<>2222;----=@@33333333333333333333",
"333333333333333333322221<,&@@-><222<;-===@@@33333333333333333333",
"333333333333333333332221<,&@OO>222<>-=@@@@@333333333333333333333",
"333333333333333333333221<,&@@@&21>>@@@@@@@3333333333333333333333",
"333333333333333333333321<,@@@@&21>@@@@@%%33333333333333333333333",
"333333333333333333333321<,@%@@&21>333@@%333333333333333333333333",
"333333333333333333333321<,@3%@&21>33@@@%333333333333333333333333",
"3333333333333333333333211,@33&2&1>3@@@@%333333333333333333333333",
"3333333333333333333333311,>33&111>3@@@$3333333333333333333333333",
"3333333333333333333333331,>>%3>&&&3$$$33333333333333333333333333",
"3333333333333333333333333,,>>%%@@@@33333333333333333333333333333",
"33333333333333333333333333,,>>%O@@@@@@@@@@@@@----;;;;:::33333333",
"333333333333333333333333333:;-@@@@@OOOOOOOOOOOOOOO@@--;;:::::333",
"3333333333333333333333333333::::;;;--------@@@@@@--;;::::3333333"
};
