/* XPM */
static char *_865_cdf753bd4cbc9198731c080346d319074ec509409630d298fadb9ff0edac257b[] = {
/* columns rows colors chars-per-pixel */
"64 64 23 1 ",
"  c black",
". c #28200C",
"X c #2C2C2C",
"o c gray22",
"O c #403018",
"+ c #543C1C",
"@ c #5C4020",
"# c #6C4824",
"$ c #744C28",
"% c gray25",
"& c #484848",
"* c gray33",
"= c #646464",
"- c gray44",
"; c #7C7C7C",
": c #80502C",
"> c #885830",
", c #905C34",
"< c #9C6038",
"1 c #A0643C",
"2 c #A86840",
"3 c #980088",
"4 c gray55",
/* pixels */
"3333333333333333333333333333333333333333333333333333333333333333",
"3333333333333333333333333333333333333333333333333333333333333333",
"3333333333333333333333333333333333333333333333333333333333333333",
"3333333333333333333333333333333333333333333333333333333333333333",
"3333333333333333333333333333333333333333333333333333333333333333",
"3333333333333333333333333333333333333333333333333333333333333333",
"3333333333333333333333333333333333333333333333333333333333333333",
"3333333333333333333333333333333333333333333333333333333333333333",
"3333333333333333333333333333333333333333333333333333333333333333",
"3333333333333333333333333333333333333333333333333333333333333333",
"3333333333333333333333333333333333333333333333333333333333333333",
"3333333333333333333333333333333333333333333333333333333333333333",
"3333333333333333333333333333333333333333333333333333333333333333",
"3333333333333333333333333333333333333333333333333333333333333333",
"3333333333333333333333333333333333333333333333333333333333333333",
"3333333333333333333333333333333333333333333333333333333333333333",
"3333333333333333333333333333333333333333333333333333333333333333",
"3333333333333333333333333333333333333333333333333333333333333333",
"3333333333333333333333333333333333333333333333333333333333333333",
"3333333333333333333333333333333333333333333333333333333333333333",
"3333333333333333333333333333333333333333333333333333333333333333",
"3333333333333333333333333333333333333333333333333333333333333333",
"3333333333333333333333333333333333333333333333333333333333333333",
"3333333333333333333333333333333333333333333333333333333333333333",
"3333333333333333333333333333333333333333333333333333333333333333",
"3333333333333333333333333333333333333333333333333333333333333333",
"3333333333333333333333333333333333333333333333333333333333333333",
"3333333333333333333333333333333333333333333333333333333333333333",
"3333333333333333333333333333333333333333333333333333333333333333",
"3333333333333333333333333333333333333333333333333333333333333333",
"3333333333333333333333333333333333333333333333333333333333333333",
"3333333333333333333333333333333333333333333333333333333333333333",
"3333333333333333333333333333333333333333333333333333333333333333",
"3333333333333333333333333333333333322,33233333333333333333333333",
"333333333333333333333333333333333333#,,32,3333333333333333333333",
"3333333333333333333333333333333333332#,**,3333333333333333333333",
"3333333333333333333333333333333333332*&oXXX333333333333333333333",
"3333333333333333333333333333333333322*&&oXXX33333333333333333333",
"3333333333333333   333333333333333322*<= o&oXX  3333333333333333",
"3333333333333333..OO33333333333333222<<<$$$$@o  3333333333333333",
"3333333333333333  O+33333333333333222<<<@o=4@ooX3333333333333333",
"33333333333333333  $#333&&&&&33333222<>>o&;=-*&33333333333333333",
"333333333333333333O+:#>&&oooXXXooo22<<>*@@oXXX333333333333333333",
"3333333333333333333$##22*&XXXXooo&222<>:$&#333333333333333333333",
"33333333333333333333>>>222&ooooo&2222<>:$&#333333333333333333333",
"3333333333333333333333<2222&&&&&2*222<>$&&#333333333333333333333",
"333333333333333333333<22222&&&&*22*<<<>&&&%333333333333333333333",
"333333333333333333333<22<<>2&&&222**<<>&&&%333333333333333333333",
"333333333333333333333<22<<<>2222222*&<>&&%3333333333333333333333",
"333333333333333333333<222<>$<<<<<22,&**&%%3333333333333333333333",
"333333333333333333333<222<:@:,,,,22,&&&%%o3333333333333333333333",
"333333333333333333333<222<$o:>>,222,&%ooo33333333333333333333333",
"333333333333333333333<222<@o&&&122,:ooo#333333333333333333333333",
"3333333333333333333333<22<@ooo111,:XXoo#333333333333333333333333",
"3333333333333333333333322<oXXX11::XXoo#3333333333333333333333333",
"33333333333333333333333<2<o33o1<:333&o#3333333333333333333333333",
"33333333333333333333333<2<o33o1<:333&o#3333333333333333333333333",
"333333333333333333333333<<#33o1<:33&%o#3333333333333333333333333",
"3333333333333333333333333<>3311<#3&%oo#3333333333333333333333333",
"3333333333333333333333333<>:311<#3&%%#33333333333333333333333333",
"33333333333333333333333333<>:####ooooo&&&&&**===3333333333333333",
"333333333333333333333333333<>>Xoooooooooooo&&&&**===333333333333",
"333333333333333333333333333=*&XXXXXXXXXXXXXXXoo&&&&**====3333333",
"3333333333333333333333333333===**&&oooooooooo&&&&**==33333333333"
};
