/* XPM */
static char *_7362_b5fefa508c39119c953afb0432e38f02e93444a0c02e255cd69dee004eb23cc8[] = {
/* columns rows colors chars-per-pixel */
"64 64 30 1 ",
"  c black",
". c #382C14",
"X c #202020",
"o c #2C2C2C",
"O c gray22",
"+ c #400000",
"@ c #580000",
"# c #640000",
"$ c #700000",
"% c #403018",
"& c #543C1C",
"* c #5C4020",
"= c #6C4824",
"- c #744C28",
"; c #484848",
": c gray33",
"> c #646464",
", c #7C7C7C",
"< c #880000",
"1 c #980000",
"2 c #A80000",
"3 c #BC0000",
"4 c #D40000",
"5 c #80502C",
"6 c #885830",
"7 c #905C34",
"8 c #9C6038",
"9 c #A86840",
"0 c #B47044",
"q c #980088",
/* pixels */
"qqqqqqqqqqqqqqqqqqqqqqqqqqqqqqqqqqqqqqqqqqqqqqqqqqqqqqqqqqqqqqqq",
"qqqqqqqqqqqqqqqqqqqqqqqqqqqqqqqqqqqqqqqqqqqqqqqqqqqqqqqqqqqqqqqq",
"qqqqqqqqqqqqqqqqqqqqqqqqqqqqqqqqqqqqqqqqqqqqqqqqqqqqqqqqqqqqqqqq",
"qqqqqqqqqqqqqqqqqqqqqqqqqqqqqqqqqqqqqqqqqqqqqqqqqqqqqqqqqqqqqqqq",
"qqqqqqqqqqqqqqqqqqqqqqqqqqqqqqqqqqqqqqqqqqqqqqqqqqqqqqqqqqqqqqqq",
"qqqqqqqqqqqqqqqqqqqqqqqqqqqqqqqqqqqqqqqqqqqqqqqqqqqqqqqqqqqqqqqq",
"qqqqqqqqqqqqqqqqqqqqqqqqqqqqqqqqqqqqqqqqqqqqqqqqqqqqqqqqqqqqqqqq",
"qqqqqqqqqqqqqqqqqqqqqqqqqqqqqqqqqqqqqqqqqqqqqqqqqqqqqqqqqqqqqqqq",
"qqqqqqqqqqqqqqqqqqqqqqqqqqqqqqqqqqqqqqqqqqqqqqqqqqqqqqqqqqqqqqqq",
"qqqqqqqqqqqqqqqqqqqqqqqqqqqqqqqqqqqqqqqqqqqqqqqqqqqqqqqqqqqqqqqq",
"qqqqqqqqqqqqqqqqqqqqqqqqqqqqqqqqqqqqqqqqqqqqqqqqqqqqqqqqqqqqqqqq",
"qqqqqqqqqqqqqqqqqqqqqqqqqqqqqqqqqqqqqqqqqqqqqqqqqqqqqqqqqqqqqqqq",
"qqqqqqqqqqqqqqqqqqqqqqqqqqqqqqqqqqqqqqqqqqqqqqqqqqqqqqqqqqqqqqqq",
"qqqqqqqqqqqqqqqqqqqqqqqqqqqqqqqqqqqqqqqqqqqqqqqqqqqqqqqqqqqqqqqq",
"qqqqqqqqqqqqqqqqqqqqqqqqqqqqqqqqqqqqqqqqqqqqqqqqqqqqqqqqqqqqqqqq",
"qqqqqqqqqqqqqqqqqqqqqqqqqqqqqqqqqqqqqqqqqqqqqqqqqqqqqqqqqqqqqqqq",
"qqqqqqqqqqqqqqqqqqqqqqqqqqqqqqqqqqqqqqqqqqqqqqqqqqqqqqqqqqqqqqqq",
"qqqqqqqqqqqqqqqqqqqqqqqqqqqqqqqqqqqqqqqqqqqqqqqqqqqqqqqqqqqqqqqq",
"qqqqqqqqqqqqqqqqqqqqqqqqqqqqqqqqqqqqqqqqqqqqqqqqqqqqqqqqqqqqqqqq",
"qqqqqqqqqqqqqqqqqqqqqqqqqqqqqqqqqqqqqqqqqqqqqqqqqqqqqqqqqqqqqqqq",
"qqqqqqqqqqqqqqqqqqqqqqqqqqqqqqqqqqqqqqqqqqqqqqqqqqqqqqqqqqqqqqqq",
"qqqqqqqqqqqqqqqqqqqqqqqqqqqqqqqqqqqqqqqqqqqqqqqqqqqqqqqqqqqqqqqq",
"qqqqqqqqqqqqqqqqqqqqqqqqqqqqqqqqqqqqqqqqqqqqqqqqqqqqqqqqqqqqqqqq",
"qqqqqqqqqqqqqqqqqqqqqqqqqqqqqqqqqqqqqqqqqqqqqqqqqqqqqqqqqqqqqqqq",
"qqqqqqqqqqqqqqqqqqqqqqqqqqqqqqqqqqqqqqqqqqqqqqqqqqqqqqqqqqqqqqqq",
"qqqqqqqqqqqqqqqqqqqqqqqqqqqqqqqqqqqqqqqqqqqqqqqqqqqqqqqqqqqqqqqq",
"qqqqqqqqqqqqqqqqqqqqqqqqqqqqqqqqqqqqqqqqqqqqqqqqqqqqqqqqqqqqqqqq",
"qqqqqqqqqqqqqqqqqqqqqqqqqqqqqqqqqqqqqqqqqqqqqqqqqqqqqqqqqqqqqqqq",
"qqqqqqqqqqqqqqqqqqqqqqqqqqqqqqqqqqqqqqqqqqqqqqqqqqqqqqqqqqqqqqqq",
"qqqqqqqqqqqqqqqqqqqqqqqqqqqqqqqqqqqqqqqqqqqqqqqqqqqqqqqqqqqqqqqq",
"qqqqqqqqqqqqqqqqqqqqqqqqqqqqqqqqqqqqqqqqqqqqqqqqqqqqqqqqqqqqqqqq",
"qqqqqqqqqqqqqqqqqqqqqqqqqqqqqqqqqqqqqqqqqqqqqqqqqqqqqqqqqqqqqqqq",
"qqqqqqqqqqqqqqqqq95qqqqqqqq95qqqqqqqqqqqqqqqqqqqqqqqqqqqqqqqqqqq",
"qqqqqqqqqqqqqqqqq:95qqqqqq995qqqqqqqqqqqqqqqqqqqqqqqqqqqqqqqqqqq",
"qqqqqqqqqqqqqqqqqq:O55qq55O:qqqqqqqqqqqqqqqqqqqqqqqqqqqqqqqqqqqq",
"qqqqqqqqqqqqqqqqqq:OooooooO:qqqqqqqqq2qqqqqqqqqqqqqqqqqqqqqqqqqq",
"qqqqqqqqqqqqqqqqqqO::OooO::Oqqqqqqqqqqqqqqqqqqqqqqqqqqqqqqqqqqqq",
"qqqqqqqqqqqqqqqqqq8;o:OO:oO:qqqqqqqqqqqqqqqqqqqqqqqqqqqqqqqqqqqq",
"qqqqqqqqqqqqqqqqq5880XXXX98=&q1qqqqqqqqqqqqqqqqqqqqqqqqqqqqqqqqq",
"qqqqqqqqqqqqqqqqq580O;  ;o7=&qqqqq42qqqqqqqqqqqqq%    qqqqqqqqqq",
"qqqqqqqqqqqqqqqqq55:O::::o:=&qqq2qqqqqqqqqqqqqqq*5*&%  qqqqqqqqq",
"qqqqqqqqqqqqqqqqqq5:O:oo:o:=qqqq42qqooooooqqqq666-&%. qqqqqqqqqq",
"qqqqqqqqqqqqqqqqqq69OOOOOO753qqqqoo33oooooo666996.  qqqqqqqqqqqq",
"qqqqqqqqqqqqqqqqqq6:;,$$,;9oooooooo3$ooOO9999995%%qqqqqqqqqqqqqq",
"qqqqqqqqqqqqqqqqqq66;;  ;;9o:oo4ooooooOO::96:9==qqqqqqqqqqqqqqqq",
"qqqqqqqqqqqqqqqqqq66:;;;;941:2@ooooooOO:999966qqqqqqqqqqqqqqqqqq",
"qqqqqqqqqqqqqqqqqq66::::9:11#4<OOOOOOO:99988=qqqqqqqqqqqqqqqqqqq",
"qqqqqqqqqqqqqqqqqqq6:>:::::@+#3<;;;;;:899888=qqqqqqqqqqqqqqqqqqq",
"qqqqqqqqqqqqqqqqq$q6:::>:::9@3<:::::::999888=qqqqqqqqqqqqqqqqqqq",
"qqqqqqqqqqqqqqqqqqq$6:>:::9999999999:8998886=qqqqqqqqqqqqqqqqqqq",
"qqqqqqqqqqqqqqqqqqqq6;::::9958888888:8998886qqqqqqqqqqqqqqqqqqqq",
"qqqqqqqqqqqqqqqqqq$q6;;:::999556666::899888=qqqqqqqqqqqqqqqqqqqq",
"qqqqqqqqqqqqqqqqqqqqq6;;;;99999&OOOOO899886qqqqqqqqqqqqqqqqqqqqq",
"qqqqqqqqqqqqqqqqqqqqq6:;oo79999&ooooo89988=qqqqqqqqqqqqqqqqqqqqq",
"qqqqqqqqqqqqqqqqqqqqqq6:;o-7999&OOOOq:9986qqqqqqqqqqqqqqqqqqqqqq",
"qqqqqqqqqqqqqqqqqqqqqq6:;oq-999&OOOOq:9986qqqqqqqqqqqqqqqqqqqqqq",
"qqqqqqqqqqqqqqqqqqqqqq6:;oqq799&OOOqq:998=qqqqqqqqqqqqqqqqqqqqqq",
"qqqqqqqqqqqqqqqqqqqqqq6:;;oq799&OOqqq:996=qqqqqqqqqqqqqqqqqqqqqq",
"qqqqqqqqqqqqqqqqqqqqqq6::;;-7999&qqqq996=qqqqqqqqqqqqqqqqqqqqqqq",
"qqqqqqqqqqqqqqqqqqqqqqq666--7997&qq9996=qqqqqqqqqqqqqqqqqqqqqqqq",
"qqqqqqqqqqqqqqqqqqqqqqqq---&&--&qq9996=qqqqqqqqqqqqqqqqqqqqqqqqq",
"qqqqqqqqqqqqqqqqqqqqqqqqqqq&&OOqq9996oooOOOOO;;;:::>>>qqqqqqqqqq",
"qqqqqqqqqqqqqqqqqqqqqqqqqqqOoooooooooooooooooooOOOO;;::>>>>>>qqq",
"qqqqqqqqqqqqqqqqqqqqqqqqqq>>>>>:::;;;;;;;;;;;;;;;;::>>>>qqqqqqqq"
};
