/* XPM */
static char *_0365_680909cff9760c408c69d3de3b64bc6cc00af842558a24b63f2c5f1d6a8fea5d[] = {
/* columns rows colors chars-per-pixel */
"64 64 31 1 ",
"  c black",
". c #382C14",
"X c #202020",
"o c #2C2C2C",
"O c gray22",
"+ c #400000",
"@ c #580000",
"# c #700000",
"$ c #403018",
"% c #543C1C",
"& c #5C4020",
"* c #6C4824",
"= c #744C28",
"- c gray25",
"; c #484848",
": c gray33",
"> c #646464",
", c #7C7C7C",
"< c #880000",
"1 c #A80000",
"2 c #BC0000",
"3 c #C80000",
"4 c #E00000",
"5 c #80502C",
"6 c #885830",
"7 c #905C34",
"8 c #9C6038",
"9 c #A0643C",
"0 c #A86840",
"q c #B47044",
"w c #980088",
/* pixels */
"wwwwwwwwwwwwwwwwwwwwwwwwwwwwwwwwwwwwwwwwwwwwwwwwwwwwwwwwwwwwwwww",
"wwwwwwwwwwwwwwwwwwwwwwwwwwwwwwwwwwwwwwwwwwwwwwwwwwwwwwwwwwwwwwww",
"wwwwwwwwwwwwwwwwwwwwwwwwwwwwwwwwwwwwwwwwwwwwwwwwwwwwwwwwwwwwwwww",
"wwwwwwwwwwwwwwwwwwwwwwwwwwwwwwwwwwwwwwwwwwwwwwwwwwwwwwwwwwwwwwww",
"wwwwwwwwwwwwwwwwwwwwwwwwwwwwwwwwwwwwwwwwwwwwwwwwwwwwwwwwwwwwwwww",
"wwwwwwwwwwwwwwwwwwwwwwwwwwwwwwwwwwwwwwwwwwwwwwwwwwwwwwwwwwwwwwww",
"wwwwwwwwwwwwwwwwwwwwwwwwwwwwwwwwwwwwwwwwwwwwwwwwwwwwwwwwwwwwwwww",
"wwwwwwwwwwwwwwwwwwwwwwwwwwwwwwwwwwwwwwwwwwwwwwwwwwwwwwwwwwwwwwww",
"wwwwwwwwwwwwwwwwwwwwwwwwwwwwwwwwwwwwwwwwwwwwwwwwwwwwwwwwwwwwwwww",
"wwwwwwwwwwwwwwwwwwwwwwwwwwwwwwwwwwwwwwwwwwwwwwwwwwwwwwwwwwwwwwww",
"wwwwwwwwwwwwwwwwwwwwwwwwwwwwwwwwwwwwwwwwwwwwwwwwwwwwwwwwwwwwwwww",
"wwwwwwwwwwwwwwwwwwwwwwwwwwwwwwwwwwwwwwwwwwwwwwwwwwwwwwwwwwwwwwww",
"wwwwwwwwwwwwwwwwwwwwwwwwwwwwwwwwwwwwwwwwwwwwwwwwwwwwwwwwwwwwwwww",
"wwwwwwwwwwwwwwwwwwwwwwwwwwwwwwwwwwwwwwwwwwwwwwwwwwwwwwwwwwwwwwww",
"wwwwwwwwwwwwwwwwwwwwwwwwwwwwwwwwwwwwwwwwwwwwwwwwwwwwwwwwwwwwwwww",
"wwwwwwwwwwwwwwwwwwwwwwwwwwwwwwwwwwwwwwwwwwwwwwwwwwwwwwwwwwwwwwww",
"wwwwwwwwwwwwwwwwwwwwwwwwwwwwwwwwwwwwwwwwwwwwwwwwwwwwwwwwwwwwwwww",
"wwwwwwwwwwwwwwwwwwwwwwwwwwwwwwwwwwwwwwwwwwwwwwwwwwwwwwwwwwwwwwww",
"wwwwwwwwwwwwwwwwwwwwwwwwwwwwwwwwwwwwwwwwwwwwwwwwwwwwwwwwwwwwwwww",
"wwwwwwwwwwwwwwwwwwwwwwwwwwwwwwwwwwwwwwwwwwwwwwwwwwwwwwwwwwwwwwww",
"wwwwwwwwwwwwwwwwwwwwwwwwwwwwwwwwwwwwwwwwwwwwwwwwwwwwwwwwwwwwwwww",
"wwwwwwwwwwwwwwwwwwwwwwwwwwwwwwwwwwwwwwwwwwwwwwwwwwwwwwwwwwwwwwww",
"wwwwwwwwwwwwwwwwwwwwwwwwwwwwwwwwwwwwwwwwwwwwwwwwwwwwwwwwwwwwwwww",
"wwwwwwwwwwwwwwwwwwwwwwwwwwwwwwwwwwwwwwwwwwwwwwwwwwwwwwwwwwwwwwww",
"wwwwwwwwwwwwwwwwwwwwwwwwwwwwwwwwwwwwwwwwwwwwwwwwwwwwwwwwwwwwwwww",
"wwwwwwwwwwwwwwwwww05wwwwwwww05wwwwwwwwwwwwwwwwwwwwwwwwwwwwwwwwww",
"wwwwwwwwwwwwwwwwww:05wwwwww005wwwwwwwwwwwwwwwwwwwwwwwwwwwwwwwwww",
"wwwwwwwwwwwwwwwwwww:O55ww55O:wwwwwwwwwwwwwwwwwwwwwwwwwwwwwwwwwww",
"wwwwwwwwwwwwwwwwwww:OooooooO:wwwwwwwwwwwww1wwwwwwwwwwwwwwwwwwwww",
"wwwwwwwwwwwwwwwwwwwO::O;XXXX0wwwwwwwwwwwwwwwwwwwwwwwwwwwwwwwwwww",
"wwwwwwwwwwwwwwwwwww8;o:O;  ;owwww4ww3wwwwwwwwwwwwwwwwwwwwwwwwwww",
"wwwwwwwwwwwwwwwwww58qqqO::::o%wwwwwwwwwwwwwwwwwwwwwwwwwwwwwwwwww",
"wwwwwwwwwwwwwwwwww58qq:O:oo:o%wwwwwwwwwwwwwwwwwwwwwwwwwwwwwwwwww",
"wwwwwwwwwwwwwwwwww55q::O,##,O%1wwwwww42wwwwwwwwwwwwwwwwwwwwwwwww",
"wwwwwwwwwwwwwwwwwww56:@@@@#:* ww1ww<w2<wwwwwwwwwwwwwwwwwwwwwwwww",
"wwwwwwwwwwwwwwwwwww66:>,##,;52oowwwwwww1wwwwwwwwwwwwwwwwwwwwwwww",
"wwwwwwwwwwwwwwwwwww66:;;  ;;3ooooowwwwwwwwwwwwwwwwwwwwwwwwwwwwww",
"wwwwwwwwwwwwwwwwwww66::::::00+3o3oowwwwwwwwwwwwwwwwwwwwwwwwwwwww",
"wwwwwwwwwwwwwwwwwwww6::>:>:1#3++Ooooowwwwwwwwwwwwwwwwwwwwwwwwwww",
"wwwwwwwwwwwwwwwwwwww66::::::##+1;3OOOooooowwwwwwwwwwwwwwwwwwwwww",
"wwwwwwwwwwwwwwwwwwwww6::>:qq0110::;OOOOOOOOoowwwwwwwwwwwwwwwwwww",
"wwwwwwwwwwwwwwwwwww<ww6:qqq000000>::;;OOOOO:>8wwwwwwwwwwwwwwwwww",
"wwwwwwwwwwwwwwwwwwwqqqqqqq0000*800000>:;;:>00008wwwwwwwwwwwwwwww",
"wwwwwwwwwwwwwwwwwwqqqqq000000*;:880000000000000086wwwwwwwwwwwwww",
"wwwwwwwwwwwwwwww00qqq0*******;;::888800000000990006=wwwwwwwwwwww",
"wwwwwwwwwwwwww0055qqq*OOO----;;;:::88888000009977006=wwwwwwwwwww",
"wwwwwwwwwwwww055;;;88*w<wOO---;;;;;::::::00009997*666=wwwwwwwwww",
"wwwwwwwwwwww05;;OOOwwwwww#wOOO----;;;;;;;:00099997**6==    wwwww",
"wwwwwwwwwwww05;Owwwwwwww#<wwwOOOOOOOOOooo:00009997w&&&&&%$  wwww",
"wwwwwwwwwwwwwOOwwwwwwwwwwwwwwwwwwww%%%OOoo:00009997ww$$$$. wwwww",
"wwwwwwwwwwwwwwwww<wwwwwwwww#wwwwwwwwww%OOOo:0000098=www   wwwwww",
"wwwwwwwwwwwwwwwwwwwwwwwwwwwwwwwwwwwwwww%%OOO::00008=wwwwwwwwwwww",
"wwwwwwwwwwwwwwwwwwwwwwwwwwwwwwwwwwwwwwwww%%%Oow:008=wwwwwwwwwwww",
"wwwwwwwwwwwwwwwwwwww<wwwwwwwwwwwwwwwwwww%OOOowww708=wwwwwwwwwwww",
"wwwwwwwwwwwwwwwwwwwwwwwwwwwwwwwwwwwwww==OOOowwww798=wwwwwwwwwwww",
"wwwwwwwwwwwwwwwwwwwwwwwwwwwwwwwwwwww===OOOowwwww798=wwwwwwwwwwww",
"wwwwwwwwwwwwwwwwwwwwwwwwwwwwwwwwwww==%%%%%wwwwww7987=wwwwwwwwwww",
"wwwwwwwwwwwwwwwwwwwwwwwwwwwwwwwwwww%%%%%wwwwwwww7777=wwwwwwwwwww",
"wwwwwwwwwwwwwwwwwwwwwwwwwwwwwwwwwwwwwwwwwwwwwwwww=777=wwwwwwwwww",
"wwwwwwwwwwwwwwwwwwwwwwwwwwwwwwwwwwwwwwwwwwwwwwwwww===wwwwwwwwwww",
"wwwwwwwwwwwwwwwwwwwwwwwwwwwwwwwwwwwwwwwwwwwwwwwwwwwwwwwwwwwwwwww",
"wwwwwwwwwwwwwwwwwwwwwww>>>>:;;;;OOOOOOOOOOOO;;;;::>>>wwwwwwwwwww",
"wwwwwwwwwwwwwwwww>>::;;;;OOOOOoooooooooooooooooOOO;;;:::>>>>>www",
"wwwwwwwwwwwwwwwwwwww>>>>:::;;;;OOOOOOOOOOOO;;;;;:::>>>>>>wwwwwww"
};
