/* XPM */
static char *_6329_60d3eea224c76f7cff706989c984f1b1b3fd4fda2fc472dce9c743fbd9171c6c[] = {
/* columns rows colors chars-per-pixel */
"64 64 34 1 ",
"  c black",
". c #382C14",
"X c #2C2C2C",
"o c gray22",
"O c #400000",
"+ c #4C0000",
"@ c #580000",
"# c #640000",
"$ c #700000",
"% c #7C0000",
"& c #403018",
"* c #483818",
"= c #543C1C",
"- c #5C4020",
"; c #6C4824",
": c #744C28",
"> c gray25",
", c #484848",
"< c gray33",
"1 c #646464",
"2 c #880000",
"3 c #980000",
"4 c #A80000",
"5 c #B00000",
"6 c #BC0000",
"7 c #C80000",
"8 c #80502C",
"9 c #885830",
"0 c #905C34",
"q c #9C6038",
"w c #A0643C",
"e c #A86840",
"r c #BC7848",
"t c #980088",
/* pixels */
"tttttttttttttttttttttttttttttttttttttttttttttttttttttttttttttttt",
"tttttttttttttttttttttttttttttttttttttttttttttttttttttttttttttttt",
"tttttttttttttttttttttttttttttttttttttttttttttttttttttttttttttttt",
"tttttttttttttttttttttttttttttttttttttttttttttttttttttttttttttttt",
"tttttttttttttttttttttttttttttttttttttttttttttttttttttttttttttttt",
"tttttttttttttttttttttttttttttttttttttttttttttttttttttttttttttttt",
"tttttttttttttttttttttttttttttttttttttttttttttttttttttttttttttttt",
"tttttttttttttttttttttttttttttttttttttttttttttttttttttttttttttttt",
"tttttttttttttttttttttttttttttttttttttttttttttttttttttttttttttttt",
"tttttttttttttttttttttttttttttttttttttttttttttttttttttttttttttttt",
"tttttttttttttttttttttttttttttttttttttttttttttttttttttttttttttttt",
"tttttttttttttttttttttttttttttttttttttttttttttttttttttttttttttttt",
"tttttttttttttttttttttttttttttttttttttttttttttttttttttttttttttttt",
"tttttttttttttttttttttttttttttttttttttttttttttttttttttttttttttttt",
"tttttttttttttttttttttttttttttttttttttttttttttttttttttttttttttttt",
"tttttttttttttttttttttttttttttttttttttttttttttttttttttttttttttttt",
"tttttttttttttttttttttttttttttttttttttttttttttttttttttttttttttttt",
"tttttttttttttttttttttttttttttttttttttttttttttttttttttttttttttttt",
"tttttttttttttttttttttttttttttttttttttttttttttttttttttttttttttttt",
"tttttttttttttttttttttttttttttttttttttttttttttttttttttttttttttttt",
"tttttttttttttttttttttttttttttttttttttttttttttttttttttttttttttttt",
"tttttttttttttttttttttttttttttttttttttttttttttttttttttttttttttttt",
"tttttttttttttttttttttttttttttttttttttttttttttttttttttttttttttttt",
"tttttttttttttttttttttttttttttttttttttttttttttttttttttttttttttttt",
"tttttttttttttttttttttttttttttttttttttttttttttttttttttttttttttttt",
"tttttttttttttttttttttttttttttttttttttttttttttttttttttttttttttttt",
"tttttttttttttttttttttttttttttttttttttttttttttttttttttttttttttttt",
"tttttttttttttttttttttttttttttttttttttttttttttttttttttttttttttttt",
"tttttttttttttttttttttttttttttttttttttttttttttttttttttttttttttttt",
"tttttttttttttttttttttttttttttttttttttttttttttttttttttttttttttttt",
"tttttttttttttttttttttttttttttttttttttttttttttttttttttttttttttttt",
"tttttttttttttttttttttttttttttttttttttttttttttttttttttttttttttttt",
"ttttttttttttttttt    ttttttttttttttttttttttttttttttttttttttttttt",
"ttttttttttttttttt  2$#tttttttttttttttttttttttttttttttttttttttttt",
"ttttttttttttttttXX2$  tttt4ttttttttttttttttttttttttttttttttttttt",
"ttttttttttttttXXoX#XX tttttttttttttttttttttttttttttttttttttttttt",
"ttttttttttttttX,<oXXoXtttttttttttttttttttttttttttttttttttttttttt",
"tttttttttttttX,e<#oo<Xttt6ttt6tttttttttttttttttttttttttttttttttt",
"tttttttttttttXeee<<<<Xttttt4tttttttttttttttttttttttttttttttttttt",
"tttttttttttt08eeerrr<<ottttttttttttttttttttttttttttttttttttttttt",
"ttttttttttt08;eerree0e<,++37t4$ttttttttttttttttttttttttttttttttt",
"ttttttttttt0;;eeree;0eee92+++$$ttttttttttttttttttttttttttttttttt",
"ttttttttttt0;t88ree9;0eee992++ootttttttttttttttttttttttttttttttt",
"tttttttttttttt88<e99;;eeee999@,oottttttttttttttttttttttttttttttt",
"ttttttttttttttt8<<99;;0eeee<921<,oottttttttttttttttttttttttttttt",
"ttttttttttttttt88<,;;,;00000<eee11<,,,,,tttttttttttttttttttttttt",
"tttttttttttttttt88,,,,,;000<<0eeeeeewww000tttttttttttttttttttttt",
"ttttttttttttttttt8<,,<<,;;<<<<<weeeeeeeewwwwq0999ttttttttttttttt",
"tttttttttttttttttt8>,,<<<,,,<<<<<<<<qeeeeewwwqqq099----ttttttttt",
"ttttttttttttteee0008>>,,,<<<<<<<<<,<0weeeeeewww88888:--&&.    tt",
"tttttttttteee0000088;>>>,,,,,,,,,,,,<0weeeeeeeww::::::-....   tt",
"ttttttttee000888;;;;;;=>>>>>>>>>>ooo,<<0wweeeeeww0ttt--     tttt",
"tttttttee0;============oooo>>>>>ooooo,,<<<<<0eeew0tttttttttttttt",
"ttttttee0;==tttttttt====tttoooooooooooooooX<<eeew0tttttttttttttt",
"ttttttee0=ttttttttt5ttt$ttttttttt-=*oooXXXXt<0eew0tttttttttttttt",
"ttttttt;;tttttttttt2ttttttttttttt-=**oooXXXtt<eee0tttttttttttttt",
"tttttttttttttttttttttttttttttttttt-==**ooooXo<0ee0tttttttttttttt",
"ttttttttttttttttttttt2t5tttttttttttt-==**oooot<weewq00tttttttttt",
"ttttttttttttttttttttt$ttt%%tttttttttt----ooottt0weeq008ttttttttt",
"tttttttttttttt%@@@tttttttttt%ttttt;;;;;;oottttttqqqq008ttttttttt",
"tttttttttttt%ttttt%%t%%@@@tttttt;;;;;oooottttttttt8888tttttttttt",
"ttttttttttttttttttOOOOOOOOOooooo;;;oXXXXXXXoooo,,<<ttttttttttttt",
"tttttttttt111111<,oooXXXXXXXXXXX;;XXXXXXXXXXXXooo,,,<1111111tttt",
"tttttttttttttt11111<<,,,,oooooooooooooooooo,,,,<<111111ttttttttt"
};
