/* XPM */
static char *_7478_ac40bc8a937189e5538abbd9b41aeac97a3027408440fa9feaeb5c0df760fa5f[] = {
/* columns rows colors chars-per-pixel */
"64 64 28 1 ",
"  c black",
". c #382C14",
"X c #2C2C2C",
"o c gray22",
"O c #400000",
"+ c #580000",
"@ c #640000",
"# c #700000",
"$ c #7C0000",
"% c #403018",
"& c #543C1C",
"* c #5C4020",
"= c #6C4824",
"- c #744C28",
"; c #484848",
": c gray33",
"> c #646464",
", c #880000",
"< c #980000",
"1 c #B00000",
"2 c #D40000",
"3 c #80502C",
"4 c #885830",
"5 c #905C34",
"6 c #9C6038",
"7 c #A86840",
"8 c #B47044",
"9 c #980088",
/* pixels */
"9999999999999999999999999999999999999999999999999999999999999999",
"9999999999999999999999999999999999999999999999999999999999999999",
"9999999999999999999999999999999999999999999999999999999999999999",
"9999999999999999999999999999999999999999999999999999999999999999",
"9999999999999999999999999999999999999999999999999999999999999999",
"9999999999999999999999999999999999999999999999999999999999999999",
"9999999999999999999999999999999999999999999999999999999999999999",
"9999999999999999999999999999999999999999999999999999999999999999",
"9999999999999999999999999999999999999999999999999999999999999999",
"9999999999999999999999999999999999999999999999999999999999999999",
"9999999999999999999999999999999999999999999999999999999999999999",
"9999999999999999999999999999999999999999999999999999999999999999",
"9999999999999999999999999999999999999999999999999999999999999999",
"9999999999999999999999999999999999999999999999999999999999999999",
"9999999999999999999999999999999999999999999999999999999999999999",
"9999999999999999999999999999999999999999999999999999999999999999",
"9999999999999999999999999999999999999999999999999999999999999999",
"9999999999999999999999999999999999999999999999999999999999999999",
"9999999999999999999999999999999999999999999999999999999999999999",
"9999999999999999999999999999999999999999999999999999999999999999",
"9999999999999999999999999999999999999999999999999999999999999999",
"9999999999999999999999999999999999999999999999999999999999999999",
"9999999999999999999999999999999999999999999999999999999999999999",
"9999999999999999999999999999999999999999999999999999999999999999",
"9999999999999999999999999999999999999999999999999999999999999999",
"9999999999999999999999999999999999999999999999999999999999999999",
"9999999999999999999999999999999999999999999999999999999999999999",
"9999999999999999999999999999999999999999999999999999999999999999",
"9999999999999999999999999999999999999999999999999999999999999999",
"9999999999999999999999999999999999999999999999999999999999999999",
"9999999999999999999999999999999999999999999999999999999999999999",
"9999999999999999999999999999999999999999999999999999999999999999",
"9999999999999999999999999999999999999999999999999999999999999999",
"9999999999999999999999999999999999999999999999999999999999999999",
"9999999999999999999999999999999999999999999999999999999999999999",
"9999999999999999999999999999999999999999999999999999999999999999",
"9999999999999999999999999999999999999999999999999999999999999999",
"9999999999999999999999999999999999999999999999999999999999999999",
"9999999999999999999999999999999999999999999999999999999999999999",
"9999999999999999999999999999999999999999999999999999999999999999",
"9999999999999999999999999999999999999999999999999999999999999999",
"9999999999999999999999999999999999999999999999999999999999999999",
"9999999999999999999999999999999999999999999999999999999999999999",
"9999999999999999999999999999999999999999999999999999999999999999",
"9999999999999999999999999999999999999999999999999999999999999999",
"9999999999999999999999999999999999999999999999999999999999999999",
"9999999999999999999999999999999999999999999999999999999999999999",
"9999999999999999999999999999999999999999999999999999999999999999",
"9999999999999999999999999999999999999999999999999999999999999999",
"9999999999999999999999999999999999999999999999999999999999999999",
"9999999999999999999999999999999999999999999999999999999999999999",
"9999999999999999979999999999999999999999999999999999999999999999",
"99999999999999999:779999777777221<777999999999999999999999999999",
"99999999999999999o:***778888888888887775555559999999999999999999",
"999999999999999ooo**78888888888888888777777775549999999999999999",
"99999999999oooo77*7777777777777387878777777777535499999999999999",
"9999999999X##++=3*677==33444443557777777777777753354999999999999",
"9999999999X#XXXXX*4477774====oo:::::;:>>77777777-=33399999999999",
"999999999$$XXXXX:::=44444oooo;;;;;;;oo;;;;:77777-9====9999999999",
"9999999$$+++++6:::;ooXXXXooooooooooooooooooX77774-9&*&&&99999999",
"99999999999996444==oXXXXXXXXXXXXXXXXXXX777777774o-99&%%.&9999999",
"999999999999944==:;;oXXXXXXXXXXXXXXX::X555;;oooo&&999...... 9999",
"999999999999@==@@++++++OOOOoooo;333-==*33o&&&&&&&&99999  .     9",
"9999999999,,,,,,,,,###,,,,,##99933-=*&&&&&&&&&999999999999999999"
};
