/* XPM */
static char *_3719_0f7a50bf22f10ab8bead49f6b71724af33d0b9b621f186669c05fd76f8520cf6[] = {
/* columns rows colors chars-per-pixel */
"64 64 24 1 ",
"  c black",
". c #202020",
"X c #2C2C2C",
"o c gray22",
"O c #700000",
"+ c #483818",
"@ c #543C1C",
"# c #5C4020",
"$ c #6C4824",
"% c #744C28",
"& c gray25",
"* c #484848",
"= c gray33",
"- c #646464",
"; c gray44",
": c #7C7C7C",
"> c #80502C",
", c #885830",
"< c #905C34",
"1 c #9C6038",
"2 c #A86840",
"3 c #B47044",
"4 c #BC7848",
"5 c #980088",
/* pixels */
"5555555555555555555555555555555555555555555555555555555555555555",
"5555555555555555555555555555555555555555555555555555555555555555",
"5555555555555555555555555555555555555555555555555555555555555555",
"5555555555555555555555555555555555555555555555555555555555555555",
"5555555555555555555555555555555555555555555555555555555555555555",
"5555555555555555555555555555555555555555555555555555555555555555",
"5555555555555555555555555555555555555555555555555555555555555555",
"5555555555555555555555555555555555555555555555555555555555555555",
"5555555555555555555555555555555555555555555555555555555555555555",
"5555555555555555555555555555555555555555555555555555555555555555",
"5555555555555555555555555555555555555555555555555555555555555555",
"5555555555555555555555555555555555555555555555555555555555555555",
"5555555555555555555555555555555555555555555555555555555555555555",
"5555555555555555555555555555555555555555555555555555555555555555",
"5555555555555555555555555555555555555555555555555555555555555555",
"5555555555555555555555555555555555555555555555555555555555555555",
"5555555555555555555555555555555555555555555555555555555555555555",
"5555555555555555555555555555555555555555555555555555555555555555",
"5555555555555555555555555555555555555555555555555555555555555555",
"5555555555555555555555555555555555555555555555555555555555555555",
"5555555555555555555555555555555555555555555555555555555555555555",
"5555555555555555555555555555555555555555555555555555555555555555",
"5555555555555555555555555555555555555555555555555555555555555555",
"55555555555555555555555555555552>5555555555555555555555555555555",
"55555555555555555555555555555552>5555555555555555555555555555555",
"5555555555555555555555555555555>=5555555555555555555555555555555",
"5555555555555555555555555555552o=5555555555555555555555555555555",
"55555555555555555555552>55555XX==o555555555555555555555555555555",
"5555555555555555555555512>>XXoo=o=@55555555555555555555555555555",
"5555555555555555555555551oXoo*XX11>@5555555555555555555555555555",
"5555555555555555555555555==*X...X<>@5555555555555555555555555555",
"55555555555555555555555551-X.. oXX>$5555555555555555555555555555",
"5555555555555555555555555113oo*=;*;:5555555555555555555555555555",
"5555555555555555555555555>13o*=Xoo<>5555555555555555555555555555",
"55555555555555555555555555>=o;ooO:*2>555555555555555555555555555",
"555555555555555555555555555>2o:==X*2>555555555555555555555555555",
"555555555555555555555555555,=**  **<<555555555555555555555555555",
"555555555555555555555555555,,,***===<%55555555555555555555555555",
"555555555555555555555555555======-=2<<%5555555555555555555555555",
"55555555555555555555555555,=222===-=<<%#555555555555555555555555",
"55555555555555555555555555,2222=-===2<%#555555555555555555555555",
"55555555555555555555555555,224=*====2<%#555555555555555555555555",
"555555555555555555555555555224-&**=22<##555555555555555555555555",
"555555555555555555555555555,244&&&&22<#5555555555555555555555555",
"555555555555555555555555555%244-&&o22>#5555555555555555555555555",
"555555555555555555555555555<2444ooo22>#5555555555555555555555555",
"555555555555555555555555555<%22<ooo<<>#5555555555555555555555555",
"555555555555555555555555555<%22<ooo<<$+5555555555555555555555555",
"55555555555555555555555555<<$>>>oX>>>@++555555555555555555555555",
"5555555555555555555555555<2<$oXXXX$>>@@@+55555555555555555555555",
"5555555555555555555555555<22$oXXXX$$@###+55555555555555555555555",
"5555555555555555555555555<22$ooXXXXX####+55555555555555555555555",
"5555555555555555555555555<22$$oo..oo$$##+55555555555555555555555",
"555555555555555555555555552<>$@o55o*$$#+555555555555555555555555",
"55555555555555555555555555<,>>@ooo@@$$+5555555555555555555555555",
"555555555555555555555555555<<>$@oo@@##55555555555555555555555555",
"55555555555555555555555555552,$@oo@@@555555555555555555555555555",
"55555555555555555555555555555,@ooo*@@555555555555555555555555555",
"55555555555555555555555555552,@o55*@##55555555555555555555555555",
"55555555555555555555555555552,@5555*$$55555555555555555555555555",
"5555555555555555555555555552<$o555522$$5555555555555555555555555",
"5555555555555555555555555552$$$5ooo2<$$XXooo**==---5555555555555",
"555555555555555555555555555555---==**oooooXXXXooo***=----5555555",
"55555555555555555555555555555555-----==********==-----5555555555"
};
