/* XPM */
static char *_8810_9cc0fb1457f773f6b53203de2d03894817cd0b22f6900cfdfcc9fc2ab2899470[] = {
/* columns rows colors chars-per-pixel */
"64 64 30 1 ",
"  c black",
". c #202020",
"X c #2C2C2C",
"o c gray19",
"O c gray22",
"+ c #400000",
"@ c #580000",
"# c #700000",
"$ c #483818",
"% c #543C1C",
"& c #5C4020",
"* c #6C4824",
"= c #744C28",
"- c gray25",
"; c #484848",
": c gray33",
"> c #646464",
", c gray44",
"< c #7C7C7C",
"1 c #880000",
"2 c #80502C",
"3 c #885830",
"4 c #905C34",
"5 c #9C6038",
"6 c #A86840",
"7 c #B47044",
"8 c #BC7848",
"9 c #980088",
"0 c gray55",
"q c #989898",
/* pixels */
"9999999999999999999999999999999999999999999999999999999999999999",
"9999999999999999999999999999999999999999999999999999999999999999",
"9999999999999999999999999999999999999999999999999999999999999999",
"9999999999999999999999999999999999999999999999999999999999999999",
"9999999999999999999999999999999999999999999999999999999999999999",
"9999999999999999999999999999999999999999999999999999999999999999",
"9999999999999999999999999999999999999999999999999999999999999999",
"9999999999999999999999999999999999999999999999999999999999999999",
"9999999999999999999999999999999999999999999999999999999999999999",
"9999999999999999999999999999999999999999999999999999999999999999",
"9999999999999999999999999999999999999999999999999999999999999999",
"9999999999999999999999999999999999999999999999999999999999999999",
"9999999999999999999999999999999999999999999999999999999999999999",
"9999999999999999999999999999999999999999999999999999999999999999",
"9999999999999999999999999999999999999999999999999999999999999999",
"9999999999999999999999999999999999999999999999999999999999999999",
"9999999999999999999999999999999999999999999999999999999999999999",
"9999999999999999999999999999999999999999999999999999999999999999",
"9999999999999999999999999999999999999999999999999999999999999999",
"9999999999999999999999999999999999999999999999999999999999999999",
"9999999999999999999999999962999999999999999999999999999999999999",
"9999999999999999999999999962299999999999999999999999999999999999",
"99999999999999999999999992OOO:9999999999999999999999999999999999",
"9999999999999999999999999X;;:**999999999999999999999999999999999",
"999999999999999999999999XX;X54**99999999999999999999999999999999",
"99999999999999999999965XXO.;:X:**9999999999999999999999999999999",
"99999999999999999999652XO  ::@X>,9999999999999999999999999999999",
"999999999999999999999;:;X :XO<#X4,999999999999999999999999999999",
"999999999999999999999;;5 ::O>+@:X49<9999999999999999999999999999",
"9999999999999999999999557X@<++@@;4499999999999999999999999999999",
"9999999999999999999999925XX#;@@@< 4=9999999999999999999999999999",
"99999999999999999999999922<:1:@:> 449999999999999999999999999999",
"99999999999999999999999999q33X<> ;;4=999999999999999999999999999",
"99999999999999999999999999333;  ;;>:4=99999999999999999999999999",
"9999999999999999999999999:::::::>::>66=9999999999999999999999999",
"9999999999999999999999993366=:>::>::664&999999999999999999999999",
"9999999999999999999999993808=::>::::444&999999999999999999999999",
"99999999999999999999999902;2,::::::;244&999999999999999999999999",
"9999999999999999999999996;2;2;;:::;O266=999999999999999999999999",
"99999999999999999999999993&&&;;;;;-OO88=999999999999999999999999",
"9999999999999999999999999944:;;;;;-28888499999999999999999999999",
"9999999999999999999999999944:;;;---206,4:99999999999999999999999",
"99999999999999999999999999944:;---OO2====99999999999999999999999",
"99999999999999999999999999944:--OOOOX2&9999999999999999999999999",
"99999999999999999999999999444:-OOOOoX2&$999999999999999999999999",
"999999999999999999999999994442-OOooo&*&$999999999999999999999999",
"99999999999999999999999999462=-OoXoo&*&$999999999999999999999999",
"99999999999999999999999999662*-OoXXX&*&$999999999999999999999999",
"9999999999999999999999999966**oooXXX&*&$999999999999999999999999",
"99999999999999999999999999662OooXXXX&*&$999999999999999999999999",
"99999999999999999999999999462OXXXXXX**&$999999999999999999999999",
"99999999999999999999999999463OOXXXXX*&%9999999999999999999999999",
"99999999999999999999999999963*OO99OO*&99999999999999999999999999",
"99999999999999999999999999996*OO99O;*&99999999999999999999999999",
"999999999999999999999999999963OO99O;&999999999999999999999999999",
"999999999999999999999999999963*O99;%&999999999999999999999999999",
"999999999999999999999999999963*O99;%%999999999999999999999999999",
"999999999999999999999999999963O999;%%%99999999999999999999999999",
"99999999999999999999999999996*O9999;&&99999999999999999999999999",
"99999999999999999999999999996*O9999;**99999999999999999999999999",
"99999999999999999999999999964*O999966**9999999999999999999999999",
"9999999999999999999999999996***9XXX64**XXOOO;;:::>>9999999999999",
"99999999999999999999999999999>>:;OOOXXXXXXXXXOOOOOO;;;;::>>>9999",
"99999999999999999999999999999999>>>>>::;;;;;;;;;;:::>>>>99999999"
};
