/* XPM */
static char *_3856_5bcbe2e93cd7787ab0272ac64129b9d5c2a598fbd22a302f25bda18e791c8deb[] = {
/* columns rows colors chars-per-pixel */
"64 64 30 1 ",
"  c black",
". c #202020",
"X c #2C2C2C",
"o c gray19",
"O c #343434",
"+ c gray22",
"@ c #580000",
"# c #640000",
"$ c #403018",
"% c #483818",
"& c #543C1C",
"* c #5C4020",
"= c #6C4824",
"- c #744C28",
"; c gray25",
": c #484848",
"> c gray33",
", c #646464",
"< c gray44",
"1 c #880000",
"2 c #80502C",
"3 c #885830",
"4 c #905C34",
"5 c #9C6038",
"6 c #A0643C",
"7 c #A86840",
"8 c #B47044",
"9 c #BC7848",
"0 c #980088",
"q c gray55",
/* pixels */
"0000000000000000000000000000000000000000000000000000000000000000",
"0000000000000000000000000000000000000000000000000000000000000000",
"0000000000000000000000000000000000000000000000000000000000000000",
"0000000000000000000000000000000000000000000000000000000000000000",
"0000000000000000000000000000000000000000000000000000000000000000",
"0000000000000000000000000000000000000000000000000000000000000000",
"0000000000000000000000000000000000000000000000000000000000000000",
"0000000000000000000000000000000000000000000000000000000000000000",
"0000000000000000000000000000000000000000000000000000000000000000",
"0000000000000000000000000000000000000000000000000000000000000000",
"0000000000000000000000000000000000000000000000000000000000000000",
"0000000000000000000000000000000000000000000000000000000000000000",
"0000000000000000000000000000000000000000000000000000000000000000",
"0000000000000000000000000000000000000000000000000000000000000000",
"0000000000000000000000000000000000000000000000000000000000000000",
"0000000000000000000000000000000000000000000000000000000000000000",
"0000000000000000000000000000000000000000000000000000000000000000",
"0000000000000000000000000000000000000000000000000000000000000000",
"0000000000000000000000000000000000000000000000000000000000000000",
"0000000000000000000000000000000000000000000000000000000000000000",
"0000000000000000000000002000000000000000000000000000000000000000",
"00000000000000000000000052000#0000000000000000000000000000000000",
"00000000000000000000000+++>=000100000000000000000000000000000000",
"0000000000000000000000XXX>42#=0000000000000000000000000000000000",
"0000000000000000000000+.:>@X>==000000000000000000000000000000000",
"000000000000000000000X  >+, X*==00000000000000000000000000000000",
"00000000000000000000XX >X>:  X+*=0000000000000000000000000000000",
"00000000000000000005>:>>+: ++++**0000000000000000000000000000000",
"0000000000000000000::4X@, ++++++**000000000000000000000000000000",
"00000000000000000000244X@ ++++++***00000000000000000000000000000",
"00000000000000000000022>X  +++++:**:0000000000000000000000000000",
"0000000000000000000010#--*+++++::::::*00000000000000000000000000",
"000000000000000000000000333::::::::===*0000000000000000000000000",
"000000000000000000000#03,,>3>::::::==22*000000000000000000000000",
"000000000000000000000003773>>>::::++:>34-00000000000000000000000",
"000000000000000000000003755-::::;;+X+:47430000000000000000000000",
"000000000000000000000003555-;;;;;;+X*+47996000000000000000000000",
"000000000000000000000003555-;;;;;;+X%049999>00000000000000000000",
"0000000000000000000000006886;;;;;++X%*06994-00000000000000000000",
"0000000000000000000000008999-;;;;++X$*0467,000000000000000000000",
"000000000000000000000000q2q2<;;;;+OX$*002,0000000000000000000000",
"0000000000000000000000000043>>;;++OXX*00000000000000000000000000",
"000000000000000000000000003-*;;++OoXX*00000000000000000000000000",
"0000000000000000000000000004**++OooXX=&0000000000000000000000000",
"00000000000000000000000000472:oooooX*=&0000000000000000000000000",
"00000000000000000000000000472-XoXoXX*=&0000000000000000000000000",
"00000000000000000000000000472=XXXXXX*=*0000000000000000000000000",
"0000000000000000000000000047==XXXXXX*=*0000000000000000000000000",
"00000000000000000000000000472+XXXXXX==*0000000000000000000000000",
"00000000000000000000000000462+XXXXX+==&0000000000000000000000000",
"00000000000000000000000000463++XXXX+==&0000000000000000000000000",
"00000000000000000000000000063++X00X+=*00000000000000000000000000",
"00000000000000000000000000007=++00+:=*00000000000000000000000000",
"00000000000000000000000000007-++00+:*000000000000000000000000000",
"000000000000000000000000000073++00::*000000000000000000000000000",
"000000000000000000000000000073++00:&*000000000000000000000000000",
"000000000000000000000000000073+000:&&000000000000000000000000000",
"000000000000000000000000000073+0000:=&00000000000000000000000000",
"00000000000000000000000000007-+0000:-*00000000000000000000000000",
"00000000000000000000000000007-+0000:--00000000000000000000000000",
"00000000000000000000000000074=+000077==0000000000000000000000000",
"0000000000000000000000000007===0XXX74==XX+++::>>>,,0000000000000",
"00000000000000000000000000000,,>:+++XXXXXXXXX++++++::::>>,,,0000",
"00000000000000000000000000000000,,,,,>>::::::::::>>>,,,,00000000"
};
