/* XPM */
static char *result[] = {
/* columns rows colors chars-per-pixel */
"64 64 212 2 ",
"   c #020202",
".  c #0D0703",
"X  c #0D0905",
"o  c #0C0C0B",
"O  c #06080A",
"+  c #150D06",
"@  c #120E09",
"#  c #180F06",
"$  c #151007",
"%  c #1C1307",
"&  c #15120D",
"*  c #1C140B",
"=  c #0C1412",
"-  c #141313",
";  c #1A1612",
":  c #1C1914",
">  c #1B1B1B",
",  c #15181A",
"<  c #1C0A12",
"1  c #240E04",
"2  c #310F00",
"3  c #21190C",
"4  c #261408",
"5  c #331302",
"6  c #391A07",
"7  c #221C13",
"8  c #221D1C",
"9  c #291616",
"0  c #321E15",
"q  c #3C2008",
"w  c #36220A",
"e  c #24201C",
"r  c #2C2215",
"t  c #372615",
"y  c #1E1F20",
"u  c #0C1A27",
"i  c #290925",
"p  c #320E2E",
"a  c #370C27",
"s  c #2B1A29",
"d  c #281727",
"f  c #3B1129",
"g  c #321B2A",
"h  c #340E31",
"j  c #281B33",
"k  c #351531",
"l  c #331F32",
"z  c #3A1436",
"x  c #1F2022",
"c  c #18222B",
"v  c #1F2B35",
"b  c #242424",
"n  c #292623",
"m  c #242629",
"M  c #262A2D",
"N  c #2B2B2B",
"B  c #2B212F",
"V  c #3B332A",
"C  c #292D31",
"Z  c #352135",
"A  c #333333",
"S  c #3B3B3B",
"D  c #373838",
"F  c #343033",
"G  c #461C03",
"H  c #411C1D",
"J  c #761D1C",
"K  c #422D1E",
"L  c #462311",
"P  c #533016",
"I  c #692603",
"U  c #702701",
"Y  c #742C01",
"T  c #7B2D0C",
"R  c #7A2A08",
"E  c #6A3409",
"W  c #753003",
"Q  c #7B3504",
"!  c #7F3905",
"~  c #79360B",
"^  c #7D2914",
"/  c #7B231B",
"(  c #782317",
")  c #6E3912",
"_  c #46123B",
"`  c #401E2A",
"'  c #7E1C2C",
"]  c #463529",
"[  c #543925",
"{  c #443B32",
"}  c #493E32",
"|  c #502230",
" . c #4E4339",
".. c #57473E",
"X. c #634528",
"o. c #6F5335",
"O. c #351540",
"+. c #313B45",
"@. c #4F0946",
"#. c #680956",
"$. c #6E0863",
"%. c #700865",
"&. c #37424B",
"*. c #434343",
"=. c #4B4B4B",
"-. c #535353",
";. c #5E4D45",
":. c #665A4C",
">. c #833401",
",. c #843C05",
"<. c #8A3D04",
"1. c #853E0B",
"2. c #8B3702",
"3. c #943E05",
"4. c #832C1D",
"5. c #813412",
"6. c #893E13",
"7. c #821B36",
"8. c #81133E",
"9. c #811838",
"0. c #8C3627",
"q. c #923827",
"w. c #8B2738",
"e. c #862C28",
"r. c #874207",
"t. c #844209",
"y. c #8A460A",
"u. c #8D4A0B",
"i. c #8C4304",
"p. c #924603",
"a. c #934B06",
"s. c #924E0D",
"d. c #93520D",
"f. c #9D590C",
"g. c #995209",
"h. c #8C4115",
"j. c #924817",
"k. c #965511",
"l. c #985613",
"z. c #9B5B13",
"x. c #975719",
"c. c #A15A0A",
"v. c #9E6115",
"b. c #A16516",
"n. c #A36917",
"m. c #AD6B12",
"M. c #A36718",
"N. c #A56C19",
"B. c #A86F1A",
"V. c #AB741C",
"C. c #AE791E",
"Z. c #B07C1F",
"A. c #964526",
"S. c #9B4533",
"D. c #AF7B21",
"F. c #B17E20",
"G. c #841344",
"H. c #891945",
"J. c #87114D",
"K. c #8A144F",
"L. c #8E1E49",
"P. c #8A0E59",
"I. c #8B1453",
"U. c #911B54",
"Y. c #850F4D",
"T. c #972355",
"R. c #8D0B64",
"E. c #8F0969",
"W. c #890563",
"Q. c #910E66",
"!. c #920A6D",
"~. c #951565",
"^. c #820575",
"/. c #88047A",
"(. c #95047C",
"). c #950976",
"_. c #981270",
"`. c #9C2660",
"'. c #B48323",
"]. c #B78825",
"[. c #B98B27",
"{. c #BB8E28",
"}. c #BD922A",
"|. c #C0962C",
" X c #C29A2E",
".X c #C49D30",
"XX c #C7A132",
"oX c #C9A334",
"OX c #CBA837",
"+X c #CEAC3A",
"@X c #D1B23D",
"#X c #D4B640",
"$X c #D6BA42",
"%X c #D9BF45",
"&X c #DDC549",
"*X c #DDC549",
"=X c #E1CB4D",
"-X c #E4D04F",
";X c #E5D251",
":X c #E9D655",
">X c #EAD956",
",X c #EDDE59",
"<X c #EFE15B",
"1X c #F1E55E",
"2X c #F3E962",
"3X c #FCFA6E",
"4X c #F9F46A",
"5X c #FEFE75",
"6X c #FFFF7B",
"7X c #960185",
"8X c #980087",
"9X c #980088",
/* pixels */
"9X9X9X9X9X9X9X9X9X9X9X9X9X9X9X9X9X9X9X9X9X9X9X9X9X9X9X9X9X9X9X9X9X9X9X9X9X9X9X9X9X9X9X9X9X9X9X9X9X9X9X9X9X9X9X9X9X9X9X9X9X9X9X9X",
"9X9X9X9X9X9X9X9X9X9X9X9X9X9X9X9X9X9X9X9X9X9X9X9X9X9X9X9X9X9X9X9X9X9X9X9X9X9X9X9X9X9X9X9X9X9X9X9X9X9X9X9X9X9X9X9X9X9X9X9X9X9X9X9X",
"9X9X9X9X9X9X9X9X9X9X9X9X9X9X9X9X9X9X9X9X9X9X9X9X9X9X9X9X9X9X9X9X9X9X9X9X9X9X9X9X9X9X9X9X9X9X9X9X9X9X9X9X9X9X9X9X9X9X9X9X9X9X9X9X",
"9X9X9X9X9X9X9X9X9X9X9X9X9X9X9X9X9X9X9X9X9X9X9X9X9X9X9X9X9X9X9X9X9X9X9X9X9X9X9X9X9X9X9X9X9X9X9X9X9X9X9X9X9X9X(.Q.`.W Y 9X9X9X9X9X",
"9X9X9X9X9X9X9X9X9X9X9X9X9X9X9X9X9X9X9X9X9X9X9X9X9X9X9X9X9X9X9X9X9X9X9X9X9X9X9X9X9X9X9X9X9X9X9X9X9X7X(.(.9X7XG.,.z.h.T 9X9X9X9X9X",
"9X9X9X9X9X9X9X9X9X9X9X9X9X9X9X9X9X9X9X9X9X9X9X9X9X9X9X9X9X9X9X9X9X9X9X9X9X9X9X9X9X7X9X9X9X9X9X9X9XQ.Y Y 7X' 1.k.6.(.7X9X9X9X9X9X",
"9X9X9X9X9X9X9X9X9X9X9X9X9X9X9X9X9X9X9X9X9X9X9X9X9X9X9X9X9X9X9X9X9X9X9X9X9X!.J / T R.9X9X9X9X' 4.q.w.E.E.9Xw.j.k.Y 7X9X9X9X9X9X9X",
"9X9X9X9X9X9X9X9X9X9X9X9X9X9X9X9X9X9X9X9X9X9X9X9X9X9X9X9X9X9X9X9X9X9X9XI.7.0.y.Y J.7XR.7.w.w.y.z.y.^ 7X9XL.h.v.A.P.7X9X9X9X9X9X9X",
"9X9X9X9X9X9X9X9X9X9X9X9X9X9X9X9X9X9X9X9X9X9X9X9X9X9X9X9X9X9X8X8X8XY.T.x.k.M.z.U Y.I.0.t.u.u.M.d.e.I.U.U.u.v.z.e.9X9XI.9X9X9X9X9X",
"9X9X9X9X9X9X9X9X9X9X9X9X9X9X9X9X9X9X9X9X9X9X9X9X9X9X9X9X9X9X9X7XI.,.N..X XM.y.! Q ,.z.N.v.M.z.Q H.U.u.d.z.z.5.G.9XQ.^ 9X9X9X9X9X",
"9X9X9X9X9X9X9X9X9X9X9X9X9X9X9X9X9X9X9X9X9X9X9X9X9X9X9X9X9X9X8XJ.! ].%XOXV.1.W z.b.z.B.F.'.C.u.r.y.u.M.D.M.~ G.9X_.r.!.9X9X9X9X9X",
"9X9X9X9X9X9X9X9X9X9X9X9X9X9X9X9X9X9X9X9X9X9X9X9X9X9X9X9X9X9XG.~ M..X{.h.I ! f.z.V.}.{.C.C.z.r.v.Z.C.C.v.>.J.9X!.6.Y E.9X9X9X9X9X",
"9X9X9X9X9X9X9X9X9X9X9X9X9X9X9X9X9X9X9X9X9X9X9X9X9X9X9X9X7X' 4.v.V.k.u.y.k.n.V.[.|.[.'.V.z.V.n.V.'.C.z.Q P.(.P.^ r.R.7X9X9X9X9X9X",
"9X9X9X9X9X9X9X9X9X9X9X9X9X9X9X9X9X9X9X9X9X9X9X9X9X9X9X9XG.T z.D.V.y.y.v.'. X+X@X}.F.N.z.N.{. X].V.v.k.Y ).9X9.W U.9X7X9X9X9X9X9X",
"9X9X9X9X9X9X9X9X9X9X9X9X9X9X9X9X9X9X9X9X9X9X9X9X9X9X8XT.y.n.{.].V.n.v.D. X@X&X@XF.V.N.D.XXXX XC.b.b.l.9.(.9XR.H.9X9X9X9X9X9X9X9X",
"9X9X9X9X9X9X9X9X9X9X9X9X9X9X9X9X9X9X9X9X9X9X9X9X9X(.I.M.]. XoX}.C.'.'. X$X*X@X|.'.F..X$X@X XV.v.B.D.h.9X9X9X9X9X9X9X9X9X9X9X9X9X",
"9X9X9X9X9X9X9X9X9X9X9X9X9X9X9X9X9X9X9X9X9X9X9X9X9XI.t.'..X.X X}.C.D.}.#X%X@X}. X.X@X>X=X}.C.z.V.].M./ 9X9X9X9X9X9X9X9X9X9X9X9X9X",
"9X9X9X9X9X9X9X9X9X9X9X9X9X9X9X9X9X9X9X9X9X9X9X9X9X`.D..X.XXX{.V.'..XXX[.C.]..X X&X,X;X@X}.V.D.F.B.q.9X9X9X9X9X9X9X9X9X9X9X9X9X9X",
"9X9X9X9X9X9X9X9X9X9X9X9X9X9X9X9X9X9X9X9X9X9X9X9X9X~.oXXX'.D.'.V.v.N.n.N.'.}..X@X>X2X*X X X}.'.B.t.T S.S.q.~.9X9X9X9X9X9X9X9X9X9X",
"9X9X9X9X9X9X9X9X9X9X9X9X9X9X9X9X9X9X9X9X9X9X9X9XR.0.}.'.'.}.C.v.k.k.z.]..X.XoX=X<X>X@X}..X{.].v.k.z.V.k.! I.9X9X9X9X9X9X9X9X9X9X",
"9X9X9X9X9X9X9X9X9X9X9X9X9X9X9X9X9X9X9X9X9X9X9XQ.' a.C.}.+XoXB.s.z.M.'.}.}.[.OX<X>X$XXX X{.F.V.v.C.].v.! ' E.9X9X9X9X9X9X9X9X9X9X",
"9X9X9X9X9X9X9X9X9X9X9X9X9X9X9X9X9X9X9X9X7X!._.5.y.D. X&X#X{.N.z.M.'..X'.V.'.OX:X$X.X}.[.N.n.s.V.D.l.4./ 7X9X9X9X9X9X9X9X9X9X9X9X",
"9X9X9X9X9X9X9X9X9X9X9X9X9X9X9X9X9X9X9X7XQ.Y l.z.M.|.*X#XF.|.[.V.'..X.X'.{.XXXX$X.X.X{.N.s.Y U M.x.' 9X9X7X9X9X9X9X9X9X9X9X9X9X9X",
"9X9X9X9X9X9X9X9X9X9X9X9X9X9X9X9X9X9X9XP.T z.V.V.[.oX X'.|.F.[..X|. X@X@X$X+X X.XXX[.V.u.Y ,.Y W 7.(.9X9X7X9X9X9X9X9X9X9X9X9X9X9X",
"9X9X9X9X9X9X9X9X9X9X9X9X9X9X9X9X9X9XY.^ l.V.}.F.F.].F.V..X|.[..X@X&X:X=X@X.X|. X[.'.N.y.Q k.I.R.(.9X9X9X9X9X9X9X9X9X9X9X9X9X9X9X",
"9X9X9X9X9X9X9X9X9X9X9X9X9X9X9X9X9X9Xw.v.V.}.#X.XD.B.V.[.{..X+X=X2X3X1X$X X X+XXXC.M.M.N.b.b.(.8X7X9X9X9X9X9X9X9X9X9X9X9X9X9X9X9X",
"9X9X9X9X9X9X9X9X9X9X9X9X9X9X9X9X9XR.S.{.}.@XOXoX[.]. XOX+X=X2X3X6X4X>XoX|.@X$X[.[.V.V.F.B.u.).8X9X9X9X9X9X9X9X9X9X9X9X9X9X9X9X9X",
"9X9X9X9X9X9X9X9X9X9X9X9X9X9X9X9X9X/ z.{.XX+XD.{.XX@X&X&X<X5X6X5X4X:X$XoX#X&X+X'. XoX{.V.s.( ).8X9X9X9X9X9X9X9X9X9X9X9X9X9X9X9X9X",
"9X9X9X9X9X9X9X9X9X9X9X9X9X9X9X9X9XS.B.F.V.l.V.}.+X%X%X,X3X5X3X4X;X#X.X+X:X&X}. X.X'.D.V.A.9X9X9X9X9X9X9X9X9X9X9X9X9X9X9X9X9X9X9X",
"9X9X9X9X9X9X9X9X9X9X9X9X9X9X9X9X7Xq.a.s.a.p.a.z.D.].[.+X+X+X|.|.'.M.v.F.}.F.v.N.M.v.k.t.T 9X9X9X9X9X9X9X9X9X9X9X9X9X9X9X9X9X9X9X",
"9X9X9X9X9X9X9X9X9X9X9X9X9X9X9X9X7X| t K ] K ] Y p.c.m.m.m.m.c.g.a.>.>.2.p.<.2.,.,.2.2.E f 7X9X9X9X9X9X9X9X9X9X9X9X9X9X9X9X9X9X9X",
"9X9X9X9X9X9X9X9X9X9X9X9X9X9X9X9X9XO.u c M c M K P X.X.X.o.:.X.[ [ L L G 5 2 2 6 G G G w j 9X9X9X9X9X9X9X9X9X9X9X9X9X9X9X9X9X9X9X",
"9X9X9X9X9X9X9X9X9X9X9X9X9X9X9X9X$.| P [ A N A &.+.+.A ] ..;...] V v c 7 5 +   X @ = = 7 H $.7X8X9X9X9X9X9X9X9X9X9X9X9X9X9X9X9X9X",
"9X9X9X9X9X9X9X9X9X9X9X9X9X9X9X9X> E g.o.&.S  .:.=.{ [ >.Y i.g.p.~ } V E 3.E r 6 4 3 e L Y > ^.9X9X9X9X9X9X9X9X9X9X9X9X9X9X9X9X9X",
"9X9X9X9X9X9X9X9X9X9X9X9X9X9X9X9X> x n m A *.t.l.s.1.y.z.z.V.D.'.D.l.l.V.'.B.k.y.Y U ! r.I > ^.9X9X9X9X9X9X9X9X9X9X9X9X9X9X9X9X9X",
"9X9X9X9X9X9X9X9X9X9X9X9X9X9X9X9X= : b m N A V { } { } } W p.g.g.a.>.{ ) 3.E r r + % 6 r n > ^.8X9X9X9X9X9X9X9X9X9X9X9X9X9X9X9X9X",
"9X9X9X9X9X9X9X9X9X9X9X9X9X9X9X9X$.d : , > > y M C c b m t w q q 6 5 ; % 1 1 X O   & ; y M $.7X9X9X9X9X9X9X9X9X9X9X9X9X9X9X9X9X9X",
"9X9X9X9X9X9X9X9X9X9X9X9X9X9X9X9X7Xk = - - o - x n y y b , = & & X X +       + X X + * > l 9X7X9X9X9X9X9X9X9X9X9X9X9X9X9X9X9X9X9X",
"9X9X9X9X9X9X9X9X9X9X9X9X9X9X9X9X9Xp - - - - - b N m m N e x 8 7 : ; * - O o ; % + + % 7 Z 9X9X9X9X9X9X9X9X9X9X9X9X9X9X9X9X9X9X9X",
"9X9X9X9X9X9X9X9X9X9X9X9X9X9X9X9X9Xp ; d > - > b N N N N A N M m n n x > > e > *   . % 8 Z 9X9X9X9X9X9X9X9X9X9X9X9X9X9X9X9X9X9X9X",
"9X9X9X9X9X9X9X9X9X9X9X9X9X9X9X9X9Xp ; y > - > b A N N A A S D A N n n > y b : 3   X % 7 Z 7X9X9X9X9X9X9X9X9X9X9X9X9X9X9X9X9X9X9X",
"9X9X9X9X9X9X9X9X9X9X9X9X9X9X9X9X9Xh - > , = : b N N N N D A D D C m m > > b > *     $ r B 7X9X9X9X9X9X9X9X9X9X9X9X9X9X9X9X9X9X9X",
"9X9X9X9X9X9X9X9X9X9X9X9X9X9X9X9X_ s y > ; = , b A A N N A A D D N n b > y b > 3     X ; d @./.9X9X9X9X9X9X9X9X9X9X9X9X9X9X9X9X9X",
"9X9X9X9X9X9X9X9X9X9X9X9X9X9X9X9X, m y > y x x n A A A D S  .S D A N m > y > * % . X + % : > ^.9X9X9X9X9X9X9X9X9X9X9X9X9X9X9X9X9X",
"9X9X9X9X9X9X9X9X9X9X9X9X9X9X9X9X, , > d N A A D A S *.=.-.-.=.=.*.*.A F m 8 3 & * & + $ 3 > ^.9X9X9X9X9X9X9X9X9X9X9X9X9X9X9X9X9X",
"9X9X9X9X9X9X9X9X9X9X9X9X9X9X9X9Xd > : > N N D *.*.*.=.=.-.-.-.-.=.=.*.S A N b > > * X o y s /.9X9X9X9X9X9X9X9X9X9X9X9X9X9X9X9X9X",
"9X9X9X9X9X9X9X9X9X9X9X9X9X9X9X9X7Xk & & y m m N A A D D D D A A C n N n x : * + $ + X o s 9X9X9X9X9X9X9X9X9X9X9X9X9X9X9X9X9X9X9X",
"9X9X9X9X9X9X9X9X9X9X9X9X9X9X9X9X7Xh - - ; ; * * % ; x > 8 e 3 * * & & @ O X % O O + & * 9 9X9X9X9X9X9X9X9X9X9X9X9X9X9X9X9X9X9X9X",
"9X9X9X9X9X9X9X9X9X9X9X9X9X9X9X9X9Xp , ; = - - - ; > d > : ; ; ; & & - - = - ; $ @ + % 3 g 9X9X9X9X9X9X9X9X9X9X9X9X9X9X9X9X9X9X9X",
"9X9X9X9X9X9X9X9X9X9X9X9X9X9X9X9X9Xp > , - - y y b N N N x y x m m b b > e x 8 3 + + % 8 Z 9X9X9X9X9X9X9X9X9X9X9X9X9X9X9X9X9X9X9X",
"9X9X9X9X9X9X9X9X9X9X9X9X9X9X9X9X9Xp ; , - = > b N N A N N N A A F m n > x b > *   . % 7 l 9X9X9X9X9X9X9X9X9X9X9X9X9X9X9X9X9X9X9X",
"9X9X9X9X9X9X9X9X9X9X9X9X9X9X9X9X7Xp > > - - : b b N N F A N A D N n b > y x : 4   . % : l 9X9X9X9X9X9X9X9X9X9X9X9X9X9X9X9X9X9X9X",
"9X9X9X9X9X9X9X9X9X9X9X9X9X9X9X9X9Xp , > - - > b n M A N F N A D N m b > x b : :   . * : d 9X9X9X9X9X9X9X9X9X9X9X9X9X9X9X9X9X9X9X",
"9X9X9X9X9X9X9X9X9X9X9X9X9X9X9X9Xk d y ; o - ; b e N A V N A A A D N b b x : * + - ; > : 7 k /.9X9X9X9X9X9X9X9X9X9X9X9X9X9X9X9X9X",
"9X9X9X9X9X9X9X9X9X9X9X9X9X9X9X9X> n y > y b m A D A S &.S *.=.=.=.*.S S N n e ; e x : : : > ^.9X9X9X9X9X9X9X9X9X9X9X9X9X9X9X9X9X",
"9X9X9X9X9X9X9X9X9X9X9X9X9X9X9X9X: 8 > > b b m A D A D D S *.*.=.*.S S D F m e ; = - * 3 x > ^.9X9X9X9X9X9X9X9X9X9X9X9X9X9X9X9X9X",
"9X9X9X9X9X9X9X9X9X9X9X9X9X9X9X9Xf 4 ; : : , - 8 b x b y m n e b b e > : , & % +   . % 3 b z /.9X9X9X9X9X9X9X9X9X9X9X9X9X9X9X9X9X",
"9X9X9X9X9X9X9X9X9X9X9X9X9X9X9X9X9Xa @ # # @ + % ; > : > : : 3 * + $ & X O X + O   X % : g 9X9X9X9X9X9X9X9X9X9X9X9X9X9X9X9X9X9X9X",
"9X9X9X9X9X9X9X9X9X9X9X9X9X9X9X9X9Xa & ; - - - = ; > > > > > : > > b > : > ; + $   X 4 : d 9X9X9X9X9X9X9X9X9X9X9X9X9X9X9X9X9X9X9X",
"9X9X9X9X9X9X9X9X9X9X9X9X9X9X9X9X7Xp , , - - ; y x b b b b b m e b n b m n y ; %   X % 7 l 9X9X9X9X9X9X9X9X9X9X9X9X9X9X9X9X9X9X9X",
"9X9X9X9X9X9X9X9X9X9X9X9X9X9X9X9X9Xh , > ; - > b n m n N N N N A N m N N m y : :   . + & l 7X9X9X9X9X9X9X9X9X9X9X9X9X9X9X9X9X9X9X",
"9X9X9X9X9X9X9X9X9X9X9X9X9X9X9X9X9Xd ; : , - , x m m m m F F A D N m A M m b : 3 O + X O 8 8X9X9X9X9X9X9X9X9X9X9X9X9X9X9X9X9X9X9X",
"9X9X9X9X9X9X9X9X9X9X9X9X9X9X9X9X9X@.f 9 - - > x b b n m N N N N N b N n y ; ; * . & < i _ 8X9X9X9X9X9X9X9X9X9X9X9X9X9X9X9X9X9X9X",
"9X9X9X9X9X9X9X9X9X9X9X9X9X9X9X9X9X9X9X#.* * : > > 8 b b b b b b b > > y o         % @.8X8X8X9X9X9X9X9X9X9X9X9X9X9X9X9X9X9X9X9X9X"
};
