/* XPM */
static char *result[] = {
/* columns rows colors chars-per-pixel */
"64 64 210 2 ",
"   c #020202",
".  c #0D0703",
"X  c #0D0905",
"o  c #0B0B0B",
"O  c #06080A",
"+  c #140D06",
"@  c #130E0A",
"#  c #180A03",
"$  c #161107",
"%  c #1C1307",
"&  c #15110C",
"*  c #1C140B",
"=  c #141313",
"-  c #191613",
";  c #1C1913",
":  c #1B1B1B",
">  c #14171A",
",  c #1C0A12",
"<  c #290D01",
"1  c #251304",
"2  c #2B1204",
"3  c #21190C",
"4  c #29170B",
"5  c #391B04",
"6  c #351A06",
"7  c #221C13",
"8  c #2C1F12",
"9  c #221D1C",
"0  c #291418",
"q  c #341716",
"w  c #3D2108",
"e  c #23201C",
"r  c #2E241D",
"t  c #3C2717",
"y  c #1E1F20",
"u  c #171E22",
"i  c #0E1D28",
"p  c #290925",
"a  c #320E2E",
"s  c #370C27",
"d  c #2C1B2A",
"f  c #281727",
"g  c #3B1129",
"h  c #321B2A",
"j  c #340E31",
"k  c #2D1C32",
"l  c #351531",
"z  c #331F32",
"x  c #3A1436",
"c  c #1E2022",
"v  c #19232C",
"b  c #242424",
"n  c #282523",
"m  c #2B2B2B",
"M  c #29272A",
"N  c #232B31",
"B  c #2F2F30",
"V  c #352135",
"C  c #2B333A",
"Z  c #333333",
"A  c #3B3B3B",
"S  c #363736",
"D  c #3D332B",
"F  c #401C1D",
"G  c #771D1C",
"H  c #48260E",
"J  c #462A17",
"K  c #592D12",
"L  c #652A04",
"P  c #742B01",
"I  c #7A2E02",
"U  c #77290B",
"Y  c #7B3503",
"T  c #7E3804",
"R  c #773709",
"E  c #783206",
"W  c #7B241A",
"Q  c #772414",
"!  c #703911",
"~  c #663F1C",
"^  c #46123B",
"/  c #471D28",
"(  c #7C1D26",
")  c #7C1B2A",
"_  c #453222",
"`  c #45392C",
"'  c #5C3B23",
"]  c #433D36",
"[  c #512E2D",
"{  c #7E2222",
"}  c #784714",
"|  c #5B452E",
" . c #474339",
".. c #524538",
"X. c #604027",
"o. c #614938",
"O. c #351740",
"+. c #2E3A46",
"@. c #353D45",
"#. c #4F0946",
"$. c #680956",
"%. c #6E0863",
"&. c #700865",
"*. c #434343",
"=. c #4B4B4B",
"-. c #535353",
";. c #685949",
":. c #833401",
">. c #843D05",
",. c #8A3B04",
"<. c #81390A",
"1. c #8B3A1D",
"2. c #863815",
"3. c #812C1A",
"4. c #801C2F",
"5. c #821B33",
"6. c #81143E",
"7. c #841A3A",
"8. c #882F23",
"9. c #872C29",
"0. c #8D3626",
"q. c #8D322C",
"w. c #8A2636",
"e. c #953731",
"r. c #8C4303",
"t. c #84410A",
"y. c #89450A",
"u. c #8D4A0B",
"i. c #864207",
"p. c #924603",
"a. c #954B05",
"s. c #934E0B",
"d. c #94520E",
"f. c #9A540C",
"g. c #995105",
"h. c #8C4414",
"j. c #955510",
"k. c #9B5B13",
"l. c #9A5817",
"z. c #904A12",
"x. c #A55A07",
"c. c #9E6215",
"v. c #A16416",
"b. c #A36817",
"n. c #A56B19",
"m. c #A86A17",
"M. c #AB741C",
"N. c #AE791E",
"B. c #B07C1F",
"V. c #99452C",
"C. c #A5503B",
"Z. c #AF7B21",
"A. c #B17E21",
"S. c #851545",
"D. c #87124C",
"F. c #8B184B",
"G. c #890F54",
"H. c #8B0E5C",
"J. c #8A1252",
"K. c #8E125A",
"L. c #911B55",
"P. c #92175D",
"I. c #982754",
"U. c #902645",
"Y. c #8E0B65",
"T. c #920B6C",
"R. c #900C67",
"E. c #951367",
"W. c #820575",
"Q. c #88047A",
"!. c #920773",
"~. c #95047D",
"^. c #960B74",
"/. c #B48323",
"(. c #B98B26",
"). c #BB8E29",
"_. c #B78925",
"`. c #BE922B",
"'. c #BF9531",
"]. c #C0972D",
"[. c #C29A2E",
"{. c #C59E31",
"}. c #C7A132",
"|. c #C9A535",
" X c #CEAC3A",
".X c #CCA837",
"XX c #D0AF3C",
"oX c #D2B43E",
"OX c #D6BA41",
"+X c #D9BD44",
"@X c #D5B741",
"#X c #DDC549",
"$X c #DCC448",
"%X c #E2CC4D",
"&X c #E5D151",
"*X c #E8D654",
"=X c #EADA56",
"-X c #EBDD5A",
";X c #EFE15C",
":X c #F0E45C",
">X c #F4EC65",
",X c #F3E963",
"<X c #F9F46A",
"1X c #F6F069",
"2X c #FDFD74",
"3X c #FFFE7A",
"4X c #960184",
"5X c #980186",
"6X c #980088",
"7X c #FFFF83",
/* pixels */
"6X6X6X6X6X6X6X6X6X6X6X6X6X6X6X6X6X6X6X6X6X6X6X6X6X6X6X6X6X6X6X6X6X6X6X6X6X6X6X6X6X6X6X6X6X6X6X6X6X6X6X6X6X6X6X6X6X6XW P P 6X6X6X",
"6X6X6X6X6X6X6X6X6X6X6X6X6X6X6X6X6X6X6X6X6X6X6X6X6X6X6X6X6X6X6X6X6X6X6X6X6X6X6X6X6X6X6X6X6X6X6X5X6X6X6X6X6X6X6X~.) { P { J.6X6X6X",
"6X6X6X6X6X6X6X6X6X6X6X6X6X6X6X6X6X6X6X6X6X6X6X6X6X6X6X6X6X6X6X6X6X6X6X6X6X6X6X6X6X6X6X6X6XS.~.5X6X6X6X6X6X6XT.( P ) S.!.6X6X6X6X",
"6X6X6X6X6X6X6X6X6X6X6X6X6X6X6X6X6X6X6X6X6X6X6X6X6X6X6X6X6X6X6X6X6X6X6X6X6X6X6X6X6X6X6X4XJ.Q !.5X6X6X6X6X6XT.7.W ) 6X6X6X6X6X6X6X",
"6X6X6X6X6X6X6X6X6X6X6X6X6X6X6X6X6X6X6X6X6X6X6X6X6X6X6X6X6X6X6X6X6X6X6X6X6X6X6X6X6X4X~.F.P 6X6X6X6X6X6X6X6X{ 5.5X6X6X6X6X6X6X6X6X",
"6X6X6X6X6X6X6X6X6X6X6X6X6X6X6X6X6X6X6X6X6X6X6X6X6X6X6X6X6X6X6X6X6X6X6X6X6X6X6X6X6Xw.R >.U 5X6X6X6X6X6X6X6X5X5X6X6X6X6X6X6X6X6X6X",
"6X6X6X6X6X6X6X6X6X6X6X6X6X6X6X6X6X6X6X6X6X6X6X6X6X6X6X6X6X6X6X6X6X6X6X6X6X6X6X6X9.z.u.9.!.4X6X6X6X6X6X6X6X5X5X6X6X6X6X6X6X6X6X6X",
"6X6X6X6X6X6X6X6X6X6X6X6X6X6X6X6X6X6X6X6X6X6X6X6X6X6X6X6X6X6X6X6X6X6X6X6X6X6X~.5.c.M.u.{ 6X6X6X6X6X6X6X6X6XF.S.6X6X6X6X6X6X6X6X6X",
"6X6X6X6X6X6X6X6X6X6X6X6X6X6X6X6X6X6X6X6X6X6X6X6X6X6X6X6X6X6X6X6X6X6X6X6X5X6XT.T k.j.W J.6X6X6X6X6X6X6XD.F.w.D.6X6X6X6X6X6X6X6X6X",
"6X6X6X6X6X6X6X6X6X6X6X6X6X6X6X6X6X6X6X6X6X6X6X6X6X6X6X6X6X6X6X6X6X6X5X!.R.^.~.0.( ( H.6X6X6X6X6X~.R.P.T >.K.6X6X6X6X6X6X6X6X6X6X",
"6X6X6X6X6X6X6X6X6X6X6X6X6X6X6X6X6X6X6X6X6X6X6X6X6X6X6X6X6X6X6X6X5X5X4XW Y q.6X6X5X5X5X6X6X6X6X~.) U u.k.U H.6X6X6X6X6X6X6X6X6X6X",
"6X6X6X6X6X6X6X6X6X6X6X6X6X6X6X6X6X6X6X6X6X6X6X6X6X6X6X6X6X6X5X5X6X5X0.i.Y ) 6X6XW U S.6X6X6X6Xw.<.v.k.P T.6X6X6X6X6X6X6X6X6X6X6X",
"6X6X6X6X6X6X6X6X6X6X6X6X6X6X6X6X6X6X6X6X6X6X6X6X6X6X6X6X6X6X6XT.0.V.b.M.I.E.( 3.j.E L.4XW 8.V.h.c.M.2.R.6X7.7.6X6X6X6X6X6X6X6X6X",
"6X6X6X6X6X6X6X6X6X6X6X6X6X6X6X6X6X6X6X6X6X6X6X6X6X6X6X6X6X5XE.0.d.n.).(.C.e.y.c.j.P q.e.t.c.b././.l.E 6XU.w.H.6X6X6X6X6X6X6X6X6X",
"6X6X6X6X6X6X6X6X6X6X6X6X6X6X6X6X6X6X6X6X6X6X6X6X6X5X6X6XK.L.V.j.n.).|./.k.k.M./.u.P d./.(./._.'.A.1.D.L.t.J.6X6X6X6X6X6X6X6X6X6X",
"6X6X6X6X6X6X6X6X6X6X6X6X6X6X6X6X6X6X6X6X6X6X6X6X6X4XT.E.Y s.N.(.`.[.`.b.k.Z.A.M.s.c.`.oXXX/.{._.v.q.!.u.Q Y.6X6X6X6X6X6X6X6X6X6X",
"6X6X6X6X6X6X6X6X6X6X6X6X6X6X6X6X6X6X6X6X6X6X6X4X4XI.E k.k.Z.`.oX@XN.k.n.].].n.k.M. X%X|.N.[.{.(.k.Y E k.^.4X6X6X6X6X6X6X6X6X6X6X",
"6X6X6X6X6X6X6X6X6X6X6X6X6X6X6X6X6X6X6X6X6X6X6X) h.l.k.N.).$X:X%X(.k.n.`.).M.k.N.).%X=X|.N.[._.b.u.y.k.y.^.4X6X6X6X6X6X6X6X6X6X6X",
"6X6X6X6X6X6X6X6X6X6X6X6X6X6X6X6X6X6X6X6X6X5X) t.j.k.Z.`.%X*X+X|.).n.(.@X).k.Z.[.}. X{.A.].OX(.k.b.n.y.P 4XU.w.6X6X6X6X6X6X6X6X6X",
"6X6X6X6X6X6X6X6X6X6X6X6X6X6X6X6X6X6X6X6X6X6Xt.j.v.N.{.OX$X{.).`.[.}..X@XA.d.n.N./.).[..XoX{.M.n.N.c.P D.w.w.E.6X6X6X6X6X6X6X6X6X",
"6X6X6X6X6X6X6X6X6X6X6X6X6X6X6X6X6X6X6X5X5XJ.l.v.A.`.`.'._.B.(.[..X$X&X XB.k.b.n.A.}.@XOX}.b.k.b.k.<.S.5Xw.E.6X6X6X6X6X6X6X6X6X6X",
"6X6X6X6X6X6X6X6X6X6X6X6X6X6X6X6X6X6X6X~.J.T k.N.).).M.k.N.[.|.@X&X$X*X.X/.N./.}.{. X.X/.b.d.j.1.W 6.6X6X6X5X6X6X6X6X6X6X6X6X6X6X",
"6X6X6X6X6X6X6X6X6X6X6X6X6X6X6X6X6X6X6XJ.T k.N.A.v.c./.{.{.oX&X>X2X*X|.A.M.(.}.{.{./.N.M.j.t.P E.6X6X6X6X6X6X6X6X6X6X6X6X6X6X6X6X",
"6X6X6X6X6X6X6X6X6X6X6X6X6X6X6X6X6X6X5XK.y.i.y.j.n.N./.@X>X2X-XXX{.|./.M./.}.+X*X).v.k.j.>.P !.6X6X6X6X6X6X6X6X6X6X6X6X6X6X6X6X6X",
"6X6X6X6X6X6X6X6X6X6X6X6X6X6X6X6X6X6XG.G :.b.s.b.N.N.{.1X2X1X%XOX+X/.M./.[.%X<X#X}.n.s.i.>.d.0.E.6X6X6X6X6X6X6X6X6X6X6X6X6X6X6X6X",
"6X6X6X6X6X6X6X6X6X6X6X6X6X6X6X6X6XD.W u.k.].n././.].&X3X3X<X*X%X$Xn./.}.+X:X>X|.`.k.t.d.c.d.T J.6X6X6X6X6X6X6X6X6X6X6X6X6X6X6X6X",
"6X6X6X6X6X6X6X6X6X6X6X6X6X6X6X6X6XQ u.B.[.{.].{.XX%X<X2X<X2X2X=X.X].|.#X,X,X#X[./.j.j.Z.M.T ( T.6X6X6X6X6X6X6X6X6X6X6X6X6X6X6X6X",
"6X6X6X6X6X6X6X6X6X6X6X6X6X6X6X6X6X0.s.N.{.[.]. X&X<X3X2X-X>X3X>XoX+XOX<X7X>X.X].A.k.b.M.u.W 4X5X6X6X6X6X6X6X6X6X6X6X6X6X6X6X6X6X",
"6X6X6X6X6X6X6X6X6X6X6X6X6X6X6X6X6XV.l.c./.{.B._.+X>X2X2X=X&X<X,X X[.XX>X3X-X).N.c.y.s.u.Q 6X6X6X6X6X6X6X6X6X6X6X6X6X6X6X6X6X6X6X",
"6X6X6X6X6X6X6X6X6X6X6X6X6X6X6X6X6X0.p.p.s.m.v.c.Z.).).).M.A.`.A.m.v./.).)./.v.c.g.:.:.L q 6X6X6X6X6X6X6X6X6X6X6X6X6X6X6X6X6X6X6X",
"6X6X6X6X6X6X6X6X6X6X6X6X6X6X6X6X6X[ J _ _ _ ` E p.g.g.a.I ,.f.p.:.:.g.f.a.:.,.,.2 1 5 8 d 6X6X6X6X6X6X6X6X6X6X6X6X6X6X6X6X6X6X6X",
"6X6X6X6X6X6X6X6X6X6X6X6X6X6X6X6X6XO.i v N y N _ K X.X.| ' o.o.' J H J H 5 < < 6 X X $ > k 6X6X6X6X6X6X6X6X6X6X6X6X6X6X6X6X6X6X6X",
"6X6X6X6X6X6X6X6X6X6X6X6X6X6X6X6X%.h H _ B m S @.@.+.@...;.;.o.] +.v q 8 5 < # 2 % - = 3 J %.4X5X5X6X6X6X6X6X6X6X6X6X6X6X6X6X6X6X",
"6X6X6X6X6X6X6X6X6X6X6X6X6X6X6X6X: L ,.X.C A ...... .| g.m.M.x.}  .] Y a.k.g.,.:.5 e e H P : W.6X6X6X6X6X6X6X6X6X6X6X6X6X6X6X6X6X",
"6X6X6X6X6X6X6X6X6X6X6X6X6X6X6X6X: e b m S *.} f.k.b.B.B.].{.(.N.Z.l.l.M.A.A.M.k.y.i.:.P L 9 W.5X6X6X6X6X6X6X6X6X6X6X6X6X6X6X6X6X",
"6X6X6X6X6X6X6X6X6X6X6X6X6X6X6X6X- : b M m S D ` ] ' ,.g.f.f.d.p.E ` S ! ,.>.R r + 1 6 r M : W.5X6X6X6X6X6X6X6X6X6X6X6X6X6X6X6X6X",
"6X6X6X6X6X6X6X6X6X6X6X6X6X6X6X6X%.f > - > > c N N e q J t 5 w 5 < > > 1 < 2 2 O   @ - : M %.4X6X6X6X6X6X6X6X6X6X6X6X6X6X6X6X6X6X",
"6X6X6X6X6X6X6X6X6X6X6X6X6X6X6X6X6Xj = = = & = b b y c v > > & & + # # O     @ O X + - : k 6X4X6X6X6X6X6X6X6X6X6X6X6X6X6X6X6X6X6X",
"6X6X6X6X6X6X6X6X6X6X6X6X6X6X6X6X6Xj = = = = = c m M n m b : 9 7 ; * & @ O o & % + + % 7 z 6X6X6X6X6X6X6X6X6X6X6X6X6X6X6X6X6X6X6X",
"6X6X6X6X6X6X6X6X6X6X6X6X6X6X6X6X6Xj > : : = : b m m M B Z m M M M b y : 9 y : 3   X % 9 V 6X6X6X6X6X6X6X6X6X6X6X6X6X6X6X6X6X6X6X",
"6X6X6X6X6X6X6X6X6X6X6X6X6X6X6X6X6Xa > : - = : b m m M B S S A Z m M b : y e ; *   + % 7 V 4X6X6X6X6X6X6X6X6X6X6X6X6X6X6X6X6X6X6X",
"6X6X6X6X6X6X6X6X6X6X6X6X6X6X6X6X5Xj > : : = > b m B B B S S S S m M b : y b : *     $ e V 6X6X6X6X6X6X6X6X6X6X6X6X6X6X6X6X6X6X6X",
"6X6X6X6X6X6X6X6X6X6X6X6X6X6X6X6X^ d c : > & - b B Z B m S S S Z m b b : y b ; 3     X ; f ^ Q.6X6X6X6X6X6X6X6X6X6X6X6X6X6X6X6X6X",
"6X6X6X6X6X6X6X6X6X6X6X6X6X6X6X6X: c y : y y b M Z S Z S A ] @.A Z B b y c : * % . . + % ; : W.6X6X6X6X6X6X6X6X6X6X6X6X6X6X6X6X6X",
"6X6X6X6X6X6X6X6X6X6X6X6X6X6X6X6X: > : y M Z S S S A *.=.=.-.=.=.*.*.Z B m e ; & * $ & + ; : W.6X6X6X6X6X6X6X6X6X6X6X6X6X6X6X6X6X",
"6X6X6X6X6X6X6X6X6X6X6X6X6X6X6X6X0 : ; y m m S *.*.*.=.=.-.-.-.-.=.=.*.A Z m b : : * X o 9 d Q.6X6X6X6X6X6X6X6X6X6X6X6X6X6X6X6X6X",
"6X6X6X6X6X6X6X6X6X6X6X6X6X6X6X6X6Xl & & c M M m B Z A S A A Z Z B m M M y ; * $ & $ . o d 6X6X6X6X6X6X6X6X6X6X6X6X6X6X6X6X6X6X6X",
"6X6X6X6X6X6X6X6X6X6X6X6X6X6X6X6X6Xj = & > ; $ $ % - y y e 7 3 ; $ $ $ @ O X $ X O + % $ 0 6X6X6X6X6X6X6X6X6X6X6X6X6X6X6X6X6X6X6X",
"6X6X6X6X6X6X6X6X6X6X6X6X6X6X6X6X6Xa > > & = - = - : b : > ; * - & - - = = = - % @ + % 7 h 6X6X6X6X6X6X6X6X6X6X6X6X6X6X6X6X6X6X6X",
"6X6X6X6X6X6X6X6X6X6X6X6X6X6X6X6X6Xa : : = = : y b M m M b c c b b c y : : c : 3 . + % 7 V 6X6X6X6X6X6X6X6X6X6X6X6X6X6X6X6X6X6X6X",
"6X6X6X6X6X6X6X6X6X6X6X6X6X6X6X6X6Xa - > o = : b M m B B m M m Z B m n : y b : 3   . % 7 z 6X6X6X6X6X6X6X6X6X6X6X6X6X6X6X6X6X6X6X",
"6X6X6X6X6X6X6X6X6X6X6X6X6X6X6X6X6Xa : : = = : b b m B B B B S S m M b : y b ; *   X * 7 k 6X6X6X6X6X6X6X6X6X6X6X6X6X6X6X6X6X6X6X",
"6X6X6X6X6X6X6X6X6X6X6X6X6X6X6X6X6Xj : : = = : b m m B B B B S S m M b : e c : *   . 1 ; d 6X6X6X6X6X6X6X6X6X6X6X6X6X6X6X6X6X6X6X",
"6X6X6X6X6X6X6X6X6X6X6X6X6X6X6X6Xl b : > o = > b b b B Z B B S S S m b b c ; * % = > : ; 3 l Q.6X6X6X6X6X6X6X6X6X6X6X6X6X6X6X6X6X",
"6X6X6X6X6X6X6X6X6X6X6X6X6X6X6X6X: b c : : b M B S S A *. .*.=.=.=.*.A A B b e > e c - ; - : W.6X6X6X6X6X6X6X6X6X6X6X6X6X6X6X6X6X",
"6X6X6X6X6X6X6X6X6X6X6X6X6X6X6X6X; 7 : y b b M Z S Z S S A *.*.*.*.A A S B n e - = & ; 3 c : W.6X6X6X6X6X6X6X6X6X6X6X6X6X6X6X6X6X",
"6X6X6X6X6X6X6X6X6X6X6X6X6X6X6X6Xg 3 - ; - - - 9 b c b c n n n n b e e > > & % X   . % 3 b x Q.6X6X6X6X6X6X6X6X6X6X6X6X6X6X6X6X6X",
"6X6X6X6X6X6X6X6X6X6X6X6X6X6X6X6X6Xs + $ @ + $ % ; : : ; e ; * $ + $ $ X O X $ X   X % ; h 6X6X6X6X6X6X6X6X6X6X6X6X6X6X6X6X6X6X6X",
"6X6X6X6X6X6X6X6X6X6X6X6X6X6X6X6X6Xs & - = = = = - : : : > : ; : : c ; : > - $ +   . * 3 d 6X6X6X6X6X6X6X6X6X6X6X6X6X6X6X6X6X6X6X",
"6X6X6X6X6X6X6X6X6X6X6X6X6X6X6X6X5Xs > > = = > : y b b b b b b b b M b M M y ; %   X 1 7 l 6X6X6X6X6X6X6X6X6X6X6X6X6X6X6X6X6X6X6X",
"6X6X6X6X6X6X6X6X6X6X6X6X6X6X6X6X6Xa > u > = : e M b m b m m B B m M m m b c ; *   . + = k 6X6X6X6X6X6X6X6X6X6X6X6X6X6X6X6X6X6X6X",
"6X6X6X6X6X6X6X6X6X6X6X6X6X6X6X6X6Xf ; ; : = : c b m n M B B S S m m B m M b e 3   @ X O 9 5X6X6X6X6X6X6X6X6X6X6X6X6X6X6X6X6X6X6X",
"6X6X6X6X6X6X6X6X6X6X6X6X6X6X6X6X6X#.g 0 & = : c e b b m m m m m m b m M y > - $ . % , p ^ 5X6X6X6X6X6X6X6X6X6X6X6X6X6X6X6X6X6X6X",
"6X6X6X6X6X6X6X6X6X6X6X6X6X6X6X6X6X6X6X$.* * : : : y b c b b b M c ; ; y o         % #.5X5X5X6X6X6X6X6X6X6X6X6X6X6X6X6X6X6X6X6X6X"
};
