/* XPM */
static char *result[] = {
/* columns rows colors chars-per-pixel */
"64 64 212 2 ",
"   c #020202",
".  c #0D0905",
"X  c #0B0B0B",
"o  c #080708",
"O  c #150D06",
"+  c #130E0A",
"@  c #180F06",
"#  c #151007",
"$  c #1C1307",
"%  c #15110D",
"&  c #1C140B",
"*  c #0B1212",
"=  c #141313",
"-  c #1A1612",
";  c #1C1914",
":  c #1B1B1B",
">  c #14171A",
",  c #1C0A12",
"<  c #250F04",
"1  c #310F00",
"2  c #21190C",
"3  c #22120C",
"4  c #331301",
"5  c #351C06",
"6  c #3A1C08",
"7  c #221C13",
"8  c #211E1C",
"9  c #291418",
"0  c #3F1C1D",
"q  c #39230B",
"w  c #25221C",
"e  c #31261B",
"r  c #372516",
"t  c #2A210F",
"y  c #1E1F21",
"u  c #0C1A27",
"i  c #290925",
"p  c #320E2E",
"a  c #370C27",
"s  c #2B1A29",
"d  c #281727",
"f  c #381429",
"g  c #340E31",
"h  c #2B1B32",
"j  c #351531",
"k  c #331F32",
"l  c #3A1436",
"z  c #1E2022",
"x  c #1C2329",
"c  c #17212B",
"v  c #242424",
"b  c #292623",
"n  c #262A2D",
"m  c #2B2B2B",
"M  c #29242C",
"N  c #292D31",
"B  c #352135",
"V  c #333333",
"C  c #3B3B3B",
"Z  c #373838",
"A  c #36302F",
"S  c #451C02",
"D  c #761D19",
"F  c #71141E",
"G  c #6B1A0B",
"H  c #412C1C",
"J  c #452312",
"K  c #533016",
"L  c #6E2400",
"P  c #662A06",
"I  c #742B02",
"U  c #772908",
"Y  c #6B350A",
"T  c #7B3504",
"R  c #7E3905",
"E  c #773107",
"W  c #792417",
"Q  c #792515",
"!  c #7F3210",
"~  c #6D3812",
"^  c #46123B",
"/  c #7C1A2D",
"(  c #7B162F",
")  c #7E1439",
"_  c #492226",
"`  c #443324",
"'  c #483829",
"]  c #443B33",
"[  c #542D2E",
"{  c #5B432B",
"}  c #54473A",
"|  c #644426",
" . c #6C5034",
".. c #351540",
"X. c #313B44",
"o. c #4F0946",
"O. c #680956",
"+. c #6D0864",
"@. c #700865",
"#. c #37424B",
"$. c #434343",
"%. c #4B4B4B",
"&. c #484541",
"*. c #5F5040",
"=. c #535353",
"-. c #665849",
";. c #853501",
":. c #833C06",
">. c #893B04",
",. c #833B0B",
"<. c #8A3501",
"1. c #943E05",
"2. c #873818",
"3. c #831C35",
"4. c #83153F",
"5. c #832A25",
"6. c #8D253F",
"7. c #903625",
"8. c #854109",
"9. c #8A460A",
"0. c #8D4B0C",
"q. c #884207",
"w. c #944B06",
"e. c #954F0B",
"r. c #954A05",
"t. c #8F500E",
"y. c #93520E",
"u. c #9B5409",
"i. c #8B4512",
"p. c #8F4C10",
"a. c #955510",
"s. c #995711",
"d. c #965A13",
"f. c #9C5C13",
"g. c #954F15",
"h. c #A15B0C",
"j. c #A15F15",
"k. c #9E6215",
"l. c #A26516",
"z. c #A46A17",
"x. c #A36619",
"c. c #A56A19",
"v. c #A86E1B",
"b. c #AB6911",
"n. c #AB741C",
"m. c #AE7A1E",
"M. c #B17C1F",
"N. c #A5600E",
"B. c #924323",
"V. c #99432E",
"C. c #A45339",
"Z. c #AF7C22",
"A. c #B17E21",
"S. c #830E4A",
"D. c #831344",
"F. c #87134C",
"G. c #88124E",
"H. c #8F1C4E",
"J. c #8A0E57",
"K. c #8A1155",
"L. c #8E1951",
"P. c #92185B",
"I. c #9A304A",
"U. c #992557",
"Y. c #982557",
"T. c #942749",
"R. c #8E0C64",
"E. c #900A6B",
"W. c #910E65",
"Q. c #8F1060",
"!. c #941465",
"~. c #99176A",
"^. c #820575",
"/. c #88047A",
"(. c #920773",
"). c #96057C",
"_. c #990D78",
"`. c #B48323",
"'. c #B78825",
"]. c #BA8C27",
"[. c #BB8E28",
"{. c #B88723",
"}. c #BE932B",
"|. c #C0962C",
" X c #C2992E",
".X c #C59E31",
"XX c #C6A132",
"oX c #C9A535",
"OX c #CEAC3A",
"+X c #CCA936",
"@X c #D2B23D",
"#X c #D5B741",
"$X c #D6BA42",
"%X c #D9BE44",
"&X c #DBC246",
"*X c #DDC549",
"=X c #E1CC4D",
"-X c #E3CF50",
";X c #E5D252",
":X c #E9D956",
">X c #ECDD59",
",X c #E8D755",
"<X c #F0E45D",
"1X c #EFE15A",
"2X c #F5EB64",
"3X c #F6EF6B",
"4X c #F9F56C",
"5X c #FEFE74",
"6X c #FFFF78",
"7X c #960185",
"8X c #980186",
"9X c #980088",
/* pixels */
"9X9X9X9X9X9X9X9X9X9X9X9X9X9X9X9X9X9X9X9X9X9X9X9X9X9X9X9X9X9X9X9X9X9X9X9X9X9X9X9X9X9X9X9X9X9X9X9XF.I Q 7X9X9X9X9X9X9X9X9X9X9X9X9X",
"9X9X9X9X9X9X9X9X9X9X9X9X9X9X9X9X9X9X9X9X9X9X9X9X9X9X9X9X9X9X9X9X9X9X9X9X9X9X9X9X9X9X9X9X9X9X9XD.I I K.7X9X9X9X9X9X9X9X9X9X9X9X9X",
"9X9X9X9X9X9X9X9X9X9X9X9X9X9X9X9X9X9X9X9X9X9X9X9X9X9X9X9X9X9X9X9X9X9X9X9X9X9X9X9X9X9X9X8X9XF.).G.3.K.8X7X9X9X9X9X9X9X9X9X9X9X9X9X",
"9X9X9X9X9X9X9X9X9X9X9X9X9X9X9X9X9X9X9X9X9X9X9X9X9X9X9X9X9X9X9X9X9X9X9X9X9X9X9X9X9X8X).W.Y.I E.9X9X9X9X9X9X9X9X9X9X9X9X9X9X9X9X9X",
"9X9X9X9X9X9X9X9X9X9X9X9X9X9X9X9X9X9X9X9X9X9X9X9X9X9X9X9X9X9X9X9X9X9X9X9X9X9X9X9X).).T.R a.U (.9X9X9X9X9X9X9X9X9X9X9X9X9X9X9X9X9X",
"9X9X9X9X9X9X9X9X9X9X9X9X9X9X9X9X9X9X9X9X9X9X9X9X9X9X9X9X9X9X9X9X9X9X9X9X9X9X9X9XD i.k.0.Q 7X8X9X9X9X9X9X9X9X9X9X9X9X9X9X9X9X9X9X",
"9X9X9X9X9X9X9X9X9X9X9X9X9X9X9X9X9X9X9X9X9X9X9X9X9X9X9X9X9X9X9X9X9X9X9X9X9X7X8XD a.'.[.c.B.7X9X9X9X9X9X9X9X7XP.D Q 7X9X9X9X9X9X9X",
"9X9X9X9X9X9X9X9X9X9X9X9X9X9X9X9X9X9X9X9X9X9X9X9X9X9X9X9X9X9X9X9X9X9X9X9X!.6.C.s.[.oX[.a.2.7X7XH.S.9X9X9XF.6.2.! F.9X9X9X9X9X9X9X",
"9X9X9X9X9X9X9X9X9X9X9X9X9X9X9X9X9X9X9X9X9X9X9X9X9X9X9X9X9X9X9X9X9X9XJ.U.C.k.].}.XX Xm.q.G S.U.8.) 9XG.U.p.t.0.5.9X9X9X9X9X9X9X9X",
"9X9X9X9X9X9X9X9X9X9X9X9X9X9X9X9X9X9X9X9X9X9X9X9X9X9X9X9X9X9X9X).E.~.R k.XX@X.XXX X`.l.0.T :.e.5.K.G.:.k.{.c.,.D.9X9X9X9X9X9X9X9X",
"9X9X9X9X9X9X9X9X9X9X9X9X9X9X9X9X9X9X9X9X9X9X9X9X9X9X9X9X9X7X7XY.T f.`. X@X@X X XM.k.d.f.f.f.I E.L.R x.m.`.,.D.7X9X9X9X9X9X9X9X9X",
"9X9X9X9X9X9X9X9X9X9X9X9X9X9X9X9X9X9X9X9X9X9X9X9X9X9X9X8X8X/ ,.x.m.m.OX:X&X].m.M.w.0.v.m.d.I L E p.s.f.`.8.R.G.Q 9X9X9X9X9X9X9X9X",
"9X9X9X9X9X9X9X9X9X9X9X9X9X9X9X9X9X9X9X9X9X9X9X9X9X9X9X9X/ ,.x.m.`.OX;X:XXXc.f.f.k.n.m.y.E 0.f.`.n.k.m.8.E.D.) E.9X9X9X9X9X9X9X9X",
"9X9X9X9X9X9X9X9X9X9X9X9X9X9X9X9X9X9X9X9X9X9X9X9X9X9X).3.q.x.m.M.}.;X<X$X X`.x.z.}.].d.R 0.z.oX+XA.s.9.S.G.U / 8X9X9X9X9X9X9X9X9X",
"9X9X9X9X9X9X9X9X9X9X9X9X9X9X9X9X9X9X9X9X9X9X9X9X9X8X(.T s.n.m.'.%X<X:X+X}.'.Z.].}.].t.L l. X&XZ.w.,.O.8XU W J.9X9X9X9X9X9X9X9X9X",
"9X9X9X9X9X9X9X9X9X9X9X9X9X9X9X9X9X9X9X9X9X9X9X9X9X).K.0.k.n.m.}.*X;X$XXX`.n.'.XXm.M.0.L y.%XXX2.( 4.8X!.W R.9X9X9X9X9X9X9X9X9X9X",
"9X9X9X9X9X9X9X9X9X9X9X9X9X9X9X9X9X9X9X9X9X9X9X9X7XG.T f.Z.A.n.}.$X}.|.A.n.'.XX X`.z.:.T c.}.z.Q.7X8X(.I (.9X9X9X9X9X9X9X9X9X9X9X",
"9X9X9X9X9X9X9X9X9X9X9X9X9X9X9X9X9X9X9X9X9X9X9X9XD.E 0.f.f.s.x.[..XA.l.a.f.}.%X.X{.z.9.0.`.k.R K.8X8X9X).7X9X9X9X9X9X9X9X9X9X9X9X",
"9X9X9X9X9X9X9X9X9X9X9X9X9X9X9X9X9X9X9X9X9X9X9X) 2.e.I R a.x.'..X}.k.e.n..XOXoX'.y.q.0.f.f.T J.7X9XE.W 9X9X9X9X9X9X9X9X9X9X9X9X9X",
"9X9X9X9X9X9X9X9X9X9X9X9X9X9X9X9X9X9X9X9X9X9XD.i.a.5.D.L e.n.|.XXA.a.Z.XX=X%Xn.f.0.9.f.n.k.L 7X9X~.( D.9X9X9X9X9X9X9X9X9X9X9X9X9X",
"9X9X9X9X9X9X9X9X9X9X9X9X9X9X9X9X9X9X9X(.K.U.9.m.t.O.8X>.k.m.{.m.v.x.}.&X<X*Xn.n.z.l.Z.[.n.L D.P.7.! 9X9X9X9X9X9X9X9X9X9X9X9X9X9X",
"9X9X9X9X9X9X9X9X9X9X9X9X9X9X9X9X9X9X9XG.,.x.{.|.d.( !.b.m.m.f.x.`.`.}.-X<X*XXXXX'.`.}.}.x.R T a.g.6.9X9X9X9X9X9X9X9X9X9X9X9X9X9X",
"9X9X9X9X9X9X9X9X9X9X9X9X9X9X9X9X9X9X9XL.z.`. X&XZ.I R `.`.k.x.]..X.X$X:X=X$X@X X.XXX].c.s.f.A.c.T.9X9X9X9X9X9X9X9X9X9X9X9X9X9X9X",
"9X9X9X9X9X9X9X9X9X9X9X9X9X9X9X9X9X9X) i.{. X@X@Xn.s.m. X}.}.}.XX@X@X5X>X+X XXX X$XOX].c.f.n.`.x.I.7X9X9X9X9X9X9X9X9X9X9X9X9X9X9X",
"9X9X9X9X9X9X9X9X9X9X9X9X9X9X9X9X9X9XH.d.].#X*X}.z.m. X X}.oX$X:X3X4X:X@X}.}. X@XOX[.n.Z.[.Z.c.I._.9X9X9X9X9X9X9X9X9X9X9X9X9X9X9X",
"9X9X9X9X9X9X9X9X9X9X9X9X9X9X9X9X9XS.B.`..X*X@X}.'.}. XOX#X:X2X5X5X3X*X X].+X*X@X X{.}..X].M.y.!.9X9X9X9X9X9X9X9X9X9X9X9X9X9X9X9X",
"9X9X9X9X9X9X9X9X9X9X9X9X9X9X9X9X7XQ d.}.oXoX[. XXX XOX=X2X5X5X5X5X=X@XoX+X*X-X}..X@X%XoXn.n.9.P.9X9X9X9X9X9X9X9X9X9X9X9X9X9X9X9X",
"9X9X9X9X9X9X9X9X9X9X9X9X9X9X9X9X7X7.l.[.}.v.n.}.XXOX-X2X5X5X5X5X2X@X X$X>X:X@XXX%X<X%X'.n.y.q.P.9X9X9X9X9X9X9X9X9X9X9X9X9X9X9X9X",
"9X9X9X9X9X9X9X9X9X9X9X9X9X9X9X9X8XV.c.A.v.f.n.].OX*X1X5X5X5X5X4X=X|.#X;X>X;XOX X;X-X|.x.y.q.U J.9X9X9X9X9X9X9X9X9X9X9X9X9X9X9X9X",
"9X9X9X9X9X9X9X9X9X9X9X9X9X9X9X9X8X7.r.r.r.0.w.f.m.'.|.OX+XOX X].`.l.x.`.}.`.x.x.v.v.f.,.T I W.7X9X9X9X9X9X9X9X9X9X9X9X9X9X9X9X9X",
"9X9X9X9X9X9X9X9X9X9X9X9X9X9X9X9X9X[ r ` ` ` ` Y r.h.b.b.b.b.h.u.r.;.;.>.q.>.>.>.<.;.<.P _ J.7X9X9X9X9X9X9X9X9X9X9X9X9X9X9X9X9X9X",
"9X9X9X9X9X9X9X9X9X9X9X9X9X9X9X9X9X..u c n y n _ K | | {  .-.| [ K r J S 4 1 4 4 S S S t h 9X9X9X9X9X9X9X9X9X9X9X9X9X9X9X9X9X9X9X",
"9X9X9X9X9X9X9X9X9X9X9X9X9X9X9X9X+._ K ' Z m V #.X.X.V ' -.-.} } ' A y 7 4 O   o = * * - J +.7X9X9X9X9X9X9X9X9X9X9X9X9X9X9X9X9X9X",
"9X9X9X9X9X9X9X9X9X9X9X9X9X9X9X9X: Y h. .X.C } -.%.] { u.N.N.b.h.r.r.` ~ 1.Y t r e e w K I : ^.9X9X9X9X9X9X9X9X9X9X9X9X9X9X9X9X9X",
"9X9X9X9X9X9X9X9X9X9X9X9X9X9X9X9X: w v n Z &.d.j.e.9.x.M.M.M.m.m.A.Z.f.v.`.n.f.f.f.f.y.:.P : ^.9X9X9X9X9X9X9X9X9X9X9X9X9X9X9X9X9X",
"9X9X9X9X9X9X9X9X9X9X9X9X9X9X9X9X% : v M m V A ] ] ] { r.r.y.e.e.u.e.' ~ 1.I 7 e e t 5 t b : ^.9X9X9X9X9X9X9X9X9X9X9X9X9X9X9X9X9X",
"9X9X9X9X9X9X9X9X9X9X9X9X9X9X9X9X+.i > : > : y n n x v H r q J q 5 5 ; & < < . o o # = y M +.7X9X9X9X9X9X9X9X9X9X9X9X9X9X9X9X9X9X",
"9X9X9X9X9X9X9X9X9X9X9X9X9X9X9X9X7Xj % * = * = v v v : y > = # # O . O       O o o O & : k 9X7X9X9X9X9X9X9X9X9X9X9X9X9X9X9X9X9X9X",
"9X9X9X9X9X9X9X9X9X9X9X9X9X9X9X9X9Xg - = - = = v m m v m v : : 7 & - & % o X - $ O O $ 7 B 9X9X9X9X9X9X9X9X9X9X9X9X9X9X9X9X9X9X9X",
"9X9X9X9X9X9X9X9X9X9X9X9X9X9X9X9X9Xj > : > = : v m m v V V m m m M v y : y y : &   . $ : B 9X9X9X9X9X9X9X9X9X9X9X9X9X9X9X9X9X9X9X",
"9X9X9X9X9X9X9X9X9X9X9X9X9X9X9X9X9Xp > y : = : v m m m m Z C Z V m n v : y v : &   O $ 7 B 7X9X9X9X9X9X9X9X9X9X9X9X9X9X9X9X9X9X9X",
"9X9X9X9X9X9X9X9X9X9X9X9X9X9X9X9X9Xg = : > = : w m m m V V V C V m b v : y z ; &     # t B 9X9X9X9X9X9X9X9X9X9X9X9X9X9X9X9X9X9X9X",
"9X9X9X9X9X9X9X9X9X9X9X9X9X9X9X9X^ s : : > % > v A V A m V V Z V m v v : w v : &     X - d ^ /.9X9X9X9X9X9X9X9X9X9X9X9X9X9X9X9X9X",
"9X9X9X9X9X9X9X9X9X9X9X9X9X9X9X9X: v z : y y v v V V V Z } X.C C V N v w y : & $ . o O $ ; : ^.9X9X9X9X9X9X9X9X9X9X9X9X9X9X9X9X9X",
"9X9X9X9X9X9X9X9X9X9X9X9X9X9X9X9X- ; : v b Z V Z Z C #.%.%.=.%.%.$.$.Z V b y ; & & % O % & : ^.9X9X9X9X9X9X9X9X9X9X9X9X9X9X9X9X9X",
"9X9X9X9X9X9X9X9X9X9X9X9X9X9X9X9Xd : > : m m C #.$.$.&.=.=.=.=.=.%.%.$.C V m w : : & o X : s ^.9X9X9X9X9X9X9X9X9X9X9X9X9X9X9X9X9X",
"9X9X9X9X9X9X9X9X9X9X9X9X9X9X9X9X7Xj % % z v b m A V Z C C C V V A M b b y : & # # O . X s 7X7X9X9X9X9X9X9X9X9X9X9X9X9X9X9X9X9X9X",
"9X9X9X9X9X9X9X9X9X9X9X9X9X9X9X9X9Xg = = - ; & $ & - : : v 7 2 2 % $ % X o . # . o O $ & f 7X9X9X9X9X9X9X9X9X9X9X9X9X9X9X9X9X9X9X",
"9X9X9X9X9X9X9X9X9X9X9X9X9X9X9X9X9Xp - > * = - = - : w : ; = - = % - - = * = - % O O $ 7 s 9X9X9X9X9X9X9X9X9X9X9X9X9X9X9X9X9X9X9X",
"9X9X9X9X9X9X9X9X9X9X9X9X9X9X9X9X9Xp : : = = : : v m m m v z v v v z z y d w : 2 O O $ 7 B 7X9X9X9X9X9X9X9X9X9X9X9X9X9X9X9X9X9X9X",
"9X9X9X9X9X9X9X9X9X9X9X9X9X9X9X9X9Xp > - = = > v b m V N m m m V V b v : y z ; 2   . $ 7 k 9X9X9X9X9X9X9X9X9X9X9X9X9X9X9X9X9X9X9X",
"9X9X9X9X9X9X9X9X9X9X9X9X9X9X9X9X9Xp : : = = : v M m N A m V Z Z m n v : z w : 2   . & 7 k 9X9X9X9X9X9X9X9X9X9X9X9X9X9X9X9X9X9X9X",
"9X9X9X9X9X9X9X9X9X9X9X9X9X9X9X9X7Xj - : * = : v b m V m m V V Z m b v : y v ; &   . $ & h 8X9X9X9X9X9X9X9X9X9X9X9X9X9X9X9X9X9X9X",
"9X9X9X9X9X9X9X9X9X9X9X9X9X9X9X9Xj v y > = = ; v v b V V m V V Z Z m v v y ; & O = - : ; & j /.8X9X9X9X9X9X9X9X9X9X9X9X9X9X9X9X9X",
"9X9X9X9X9X9X9X9X9X9X9X9X9X9X9X9Xy z y : : d m N Z Z C $.C &.%.%.%.$.C C V b 8 ; y y : ; ; : ^.9X9X9X9X9X9X9X9X9X9X9X9X9X9X9X9X9X",
"9X9X9X9X9X9X9X9X9X9X9X9X9X9X9X9X; 7 : y v v b V V V V C C #.$.&.$.C C Z N b w - * - & 2 v : ^.9X9X9X9X9X9X9X9X9X9X9X9X9X9X9X9X9X",
"9X9X9X9X9X9X9X9X9X9X9X9X9X9X9X9Xf 3 - ; - - = 8 v v v z v b v v v 8 7 : > % $ #   . $ 7 v l /.9X9X9X9X9X9X9X9X9X9X9X9X9X9X9X9X9X",
"9X9X9X9X9X9X9X9X9X9X9X9X9X9X9X9X9Xa @ @ @ + O $ - > : ; : & 2 $ # # # X   X # o   . $ & s 9X9X9X9X9X9X9X9X9X9X9X9X9X9X9X9X9X9X9X",
"9X9X9X9X9X9X9X9X9X9X9X9X9X9X9X9X9Xa % - = = = = ; : : : : : ; : : v : : : - O O   . $ 7 s 9X9X9X9X9X9X9X9X9X9X9X9X9X9X9X9X9X9X9X",
"9X9X9X9X9X9X9X9X9X9X9X9X9X9X9X9X7Xp > > = = > y : v v v v v v v v b v v v 8 ; &   . 3 7 j 9X9X9X9X9X9X9X9X9X9X9X9X9X9X9X9X9X9X9X",
"9X9X9X9X9X9X9X9X9X9X9X9X9X9X9X9X9Xg > : > = : w v v b m m m m V m n m m v v : &   . O % h 9X9X9X9X9X9X9X9X9X9X9X9X9X9X9X9X9X9X9X",
"9X9X9X9X9X9X9X9X9X9X9X9X9X9X9X9X9Xd ; ; > * : y m n b v V m Z Z m b V m b x 7 2   O . o 8 7X9X9X9X9X9X9X9X9X9X9X9X9X9X9X9X9X9X9X",
"9X9X9X9X9X9X9X9X9X9X9X9X9X9X9X9X9Xo.f 9 % - : y v v M v m m m m m v m v y > = % o & , i ^ 8X9X9X9X9X9X9X9X9X9X9X9X9X9X9X9X9X9X9X",
"9X9X9X9X9X9X9X9X9X9X9X9X9X9X9X9X9X9X9XO.2 & : : : y v v v v v v v : : w X         $ o.8X8X8X9X9X9X9X9X9X9X9X9X9X9X9X9X9X9X9X9X9X"
};
