/* XPM */
static char *_8c9f09ad1844603d5de821feea97d52a4vAie0LOg5P82wS[] = {
/* columns rows colors chars-per-pixel */
"64 64 256 2 ",
"   c black",
".  c #0000A8",
"X  c #00A800",
"o  c #00A8A8",
"O  c #A80000",
"+  c #A800A8",
"@  c #A85400",
"#  c #4C4436",
"$  c gray33",
"%  c #5454FC",
"&  c #524A42",
"*  c #5E5246",
"=  c #736352",
"-  c #685D4C",
";  c #FCFC54",
":  c gray99",
">  c #ECECEC",
",  c gainsboro",
"<  c #D0D0D0",
"1  c #C0C0C0",
"2  c #B4B4B4",
"3  c gray66",
"4  c #989898",
"5  c gray55",
"6  c #7C7C7C",
"7  c gray44",
"8  c #646464",
"9  c gray33",
"0  c #484848",
"q  c gray22",
"w  c #2C2C2C",
"e  c #202020",
"r  c #FC0000",
"t  c #EC0000",
"y  c #E00000",
"u  c #D40000",
"i  c #C80000",
"p  c #BC0000",
"a  c #B00000",
"s  c #A40000",
"d  c #980000",
"f  c #880000",
"g  c #7C0000",
"h  c #700000",
"j  c #640000",
"k  c #580000",
"l  c #4C0000",
"z  c #400000",
"x  c #FCD8D8",
"c  c #FCB8B8",
"v  c #FC9C9C",
"b  c #FC7C7C",
"n  c #FC5C5C",
"m  c #FC4040",
"M  c #FC2020",
"N  c #FC0000",
"B  c #FCA85C",
"V  c #FC9840",
"C  c #FC8820",
"Z  c #FC7800",
"A  c #E46C00",
"S  c #CC6000",
"D  c #B45400",
"F  c #9C4C00",
"G  c #FCFCD8",
"H  c #FCFCB8",
"J  c #FCFC9C",
"K  c #FCFC7C",
"L  c #FCF85C",
"P  c #FCF440",
"I  c #FCF420",
"U  c #FCF400",
"Y  c #E4D800",
"T  c #CCC400",
"R  c #B4AC00",
"E  c #9C9C00",
"W  c #848400",
"Q  c #706C00",
"!  c #585400",
"~  c #404000",
"^  c #849C7B",
"/  c #738C6B",
"(  c #6B7B63",
")  c #637352",
"_  c #5A6B52",
"`  c #525A4A",
"'  c #4A5242",
"]  c #425239",
"[  c #394A39",
"{  c #313931",
"}  c #313929",
"|  c #293129",
" . c #293121",
".. c #212921",
"X. c #182118",
"o. c #181818",
"O. c #00FC00",
"+. c #00EC00",
"@. c #00E000",
"#. c #00D400",
"$. c #04C800",
"%. c #04BC00",
"&. c #04B000",
"*. c #04A400",
"=. c #049800",
"-. c #048800",
";. c #047C00",
":. c #047000",
">. c #046400",
",. c #045800",
"<. c #044C00",
"1. c #044000",
"2. c #C8BFB2",
"3. c #A89A85",
"4. c #9A8C77",
"5. c #7CFCF8",
"6. c #5CFCFC",
"7. c #40FCFC",
"8. c #20FCFC",
"9. c #00FCFC",
"0. c #00E4E4",
"q. c #00CCCC",
"w. c #00B4B4",
"e. c #009C9C",
"r. c #008484",
"t. c #007070",
"y. c #005858",
"u. c #004040",
"i. c #94846B",
"p. c #8C7B67",
"a. c #847B63",
"s. c #81735D",
"d. c #7B6B5A",
"f. c #007CCC",
"g. c #006CB4",
"h. c #005C9C",
"j. c #736B5A",
"k. c #736B52",
"l. c #9C9CFC",
"z. c #7C80FC",
"x. c #5C60FC",
"c. c #4040FC",
"v. c #2024FC",
"b. c #0004FC",
"n. c #0000FC",
"m. c #0000EC",
"M. c #0000E0",
"N. c #0000D4",
"B. c #0000C8",
"V. c #0000BC",
"C. c #0000B0",
"Z. c #0000A4",
"A. c #000098",
"S. c #000088",
"D. c #00007C",
"F. c #000070",
"G. c #000064",
"H. c #000058",
"J. c #00004C",
"K. c #000040",
"L. c #282828",
"P. c #FCE034",
"I. c #FCD424",
"U. c #FCCC18",
"Y. c #FCC008",
"T. c #FCB400",
"R. c #B420FC",
"E. c #A800FC",
"W. c #9800E4",
"Q. c #8000CC",
"!. c #7400B4",
"~. c #60009C",
"^. c #500084",
"/. c #440070",
"(. c #340058",
"). c #280040",
"_. c #FCD8FC",
"`. c #FCB8FC",
"'. c #FC9CFC",
"]. c #FC7CFC",
"[. c #FC5CFC",
"{. c #FC40FC",
"}. c #FC20FC",
"|. c #FC00FC",
" X c #E000E4",
".X c #C800CC",
"XX c #B400B4",
"oX c #9C009C",
"OX c #840084",
"+X c #6C0070",
"@X c #580058",
"#X c #400040",
"$X c #FCE8DC",
"%X c #FCE0D0",
"&X c #FCD8C4",
"*X c #FCD4BC",
"=X c #FCCCB0",
"-X c #FCC4A4",
";X c #FCBC9C",
":X c #FCB890",
">X c #FCB080",
",X c #FCA470",
"<X c #FC9C60",
"1X c #F0945C",
"2X c #E88C58",
"3X c #DC8854",
"4X c #D08050",
"5X c #C87C4C",
"6X c #BC7848",
"7X c #B47044",
"8X c #A86840",
"9X c #A0643C",
"0X c #9C6038",
"qX c #905C34",
"wX c #885830",
"eX c #80502C",
"rX c #744C28",
"tX c #6C4824",
"yX c #5C4020",
"uX c #543C1C",
"iX c #483818",
"pX c #403018",
"aX c #382C14",
"sX c #28200C",
"dX c #600064",
"fX c #006464",
"gX c #006060",
"hX c #00001C",
"jX c #00002C",
"kX c #302410",
"lX c #480048",
"zX c #500050",
"xX c #000034",
"cX c gray11",
"vX c #4C4C4C",
"bX c gray36",
"nX c gray25",
"mX c gray19",
"MX c #343434",
"NX c #2E2B22",
"BX c #B8E8E8",
"VX c #9CDCDC",
"CX c #74C8C8",
"ZX c #48C0C0",
"AX c #20B4B4",
"SX c #20B0B0",
"DX c #00A4A4",
"FX c #009898",
"GX c #008C8C",
"HX c #008484",
"JX c #007C7C",
"KX c #007878",
"LX c #007474",
"PX c #007070",
"IX c #006C6C",
"UX c #980088",
/* pixels */
"7 7 7 6 7 6 6 6 6 7 8 7 8 8 8 $ $ $ 0 nX0 0 0 0 0 vX$ vX$ $ $ $ 0 0 nX0 0 0 0 0 nXnXnXnXnXnX0 $ bXbX8 8 8 7 7 7 7 7 6 6 6 5 5 5 ",
"7 6 6 6 6 6 7 6 5 6 7 8 8 8 bX$ $ vXnXnXvX$ vXvXvX$ bXbX8 bX8 bX$ vXvXvX0 vXvXvX0 0 nXnXnXq 0 $ $ bX8 8 8 8 8 7 7 6 7 6 5 5 5 6 ",
"6 6 6 6 5 6 7 6 5 6 6 7 8 bX8 $ vX0 nX0 $ bXbXbXbX8 7 6 6 7 6 7 8 bX$ $ bXbXbXbX$ $ vX0 0 nXnX0 $ bX8 8 bX8 7 8 7 7 6 6 5 5 6 5 ",
"5 6 5 5 5 6 6 5 5 6 6 6 7 8 8 bX$ 0 0 $ $ bX8 8 8 7 7 6 5 5 6 6 8 8 8 8 8 8 7 8 bX$ $ vX0 0 nX0 $ $ bXbX8 8 7 8 8 7 6 6 5 6 5 5 ",
"6 6 5 5 5 6 6 6 5 5 6 6 7 8 8 bX$ 0 vXvX$ 8 8 bX8 7 7 7 6 5 6 7 7 7 8 7 7 8 7 8 bXbX$ $ vXnXq nXvX$ bXbX8 7 7 7 7 6 6 6 5 6 5 5 ",
"6 6 6 6 5 5 5 5 6 6 6 7 7 7 8 $ 0 0 vX$ bX7 8 bX8 7 7 7 7 7 7 7 8 7 7 6 7 6 7 7 7 8 bXbX$ 0 nXq 0 vX$ bX7 7 7 8 7 6 6 6 6 6 5 5 ",
"5 5 5 5 5 5 6 6 7 7 6 6 7 7 8 $ 0 vXvX$ 8 7 7 7 8 7 7 7 7 7 8 8 8 7 7 6 6 6 7 7 7 8 8 8 bX$ 0 nX0 vX$ bX8 8 7 8 7 6 6 6 7 6 5 5 ",
"5 6 6 6 6 6 7 8 8 8 7 6 7 8 bXvX0 vX$ bX8 7 7 7 7 6 6 7 7 8 bX8 8 7 7 6 7 7 6 6 7 8 7 8 8 $ vXnXnXvX$ $ bX8 7 8 7 7 7 7 7 7 6 6 ",
"6 6 6 6 7 7 7 8 bX8 7 7 7 bX$ 0 $ $ bX8 7 7 7 7 7 6 6 6 8 8 8 8 8 7 6 7 7 6 6 6 7 7 7 7 8 $ 0 0 nX0 $ bX$ 8 8 bX8 7 6 7 7 6 7 6 ",
"6 6 6 6 7 8 8 bX8 7 7 8 8 $ 0 nXvX$ 8 8 7 7 7 7 7 6 5 6 8 7 8 bX7 6 6 6 7 7 7 7 7 7 6 7 8 $ vX0 nXnXvX$ $ $ bXbX8 7 7 7 6 6 7 7 ",
"7 6 7 8 7 8 8 bX8 8 bXbXbX$ 0 0 vXbX7 6 6 7 7 7 6 5 6 7 8 7 8 bX8 7 7 7 7 6 6 6 7 7 6 7 8 bX$ 0 nXnX0 vXvX$ bXbXbX8 8 7 6 7 7 8 ",
"8 8 8 8 8 8 bX8 8 $ $ $ $ 0 nX0 $ 8 7 6 7 6 6 6 5 6 6 7 6 7 7 8 7 7 7 6 6 7 6 5 7 8 6 6 7 8 $ 0 nX0 nX0 vX$ $ $ bX8 bX7 7 7 7 8 ",
"8 8 bXbX8 8 bXbXbX$ $ $ 0 nX0 vXbX7 6 6 6 6 6 6 5 5 7 7 6 7 7 7 8 7 6 6 6 6 5 5 7 7 6 6 8 bX$ vXnX0 nXnX0 0 vX$ bX$ bXbX8 8 8 8 ",
"bXbX$ $ bX$ $ $ $ $ $ 0 nXnX0 vX8 7 7 7 6 5 6 5 5 5 6 7 7 7 7 7 7 7 7 7 7 7 6 6 6 7 6 7 7 bXbXvX0 0 nXnXnXnX0 vX$ $ $ bXbXbXbX$ ",
"$ vX0 0 vXvX0 0 0 0 0 0 nX0 0 $ 8 7 6 7 6 5 5 4 5 4 5 6 7 7 7 7 7 7 7 7 7 6 5 5 6 6 7 8 8 bXbX$ 0 nXnXq nXnX0 0 vX$ $ $ vX$ $ $ ",
"0 0 nXnX0 0 0 0 nXnXnXnXnX0 0 $ 7 8 7 7 7 6 5 5 5 4 5 5 5 6 7 7 7 7 7 6 5 5 4 5 6 6 7 8 7 8 bX$ vX0 nXq q q nXnX0 0 0 0 0 0 0 0 ",
"$ $ vXvX$ $ $ $ vXvX0 nXnXnXnXvX8 8 8 7 6 6 6 5 5 5 5 5 6 6 7 7 7 7 6 5 5 6 5 5 6 6 6 8 8 $ $ $ vX0 nXq nX0 0 vX$ $ $ $ bX$ $ $ ",
"$ bX$ $ $ $ $ $ $ $ vX0 q q 0 vX$ 8 7 7 6 5 5 5 6 5 5 5 6 6 7 7 7 6 6 5 5 5 4 5 6 6 6 7 8 bX$ $ 0 nXnXnXnX0 vXvX$ $ $ $ bX$ $ $ ",
"8 8 8 8 8 bXbX$ $ vXvX0 nXq nX0 vXbX7 7 6 5 5 5 5 5 5 5 5 6 7 6 6 6 6 6 6 6 5 6 6 6 7 7 bXbX$ $ 0 nXq nX0 vX$ bXbX$ bXbXbXbXbXbX",
"7 8 8 8 8 bX8 bX$ vXvX0 0 nXnXnXvXbX7 6 5 4 4 5 4 5 5 5 5 7 7 5 5 6 6 5 6 5 5 6 6 6 7 7 bX$ $ $ 0 nXnX0 0 $ bX8 8 bX8 8 8 8 8 7 ",
"7 7 8 7 7 8 8 8 $ $ vXvX0 nXq nX0 $ 7 7 5 4 5 5 4 5 6 5 5 6 6 5 6 6 6 6 5 5 6 6 7 6 7 8 8 bX$ $ 0 nX0 0 vXbX8 8 8 bXbX8 8 8 8 7 ",
"7 7 7 7 bX8 7 8 bXbX$ vX0 0 nXnX0 vXbX8 6 5 6 6 5 6 6 6 5 5 5 6 6 5 5 5 5 6 6 6 7 7 8 7 7 8 $ 0 0 nX0 vX$ bX8 7 7 8 8 8 8 8 8 8 ",
"7 7 7 7 8 7 7 bXbX8 bX$ vX0 0 q nXnXvX8 6 6 6 6 6 7 6 6 6 6 5 5 5 6 5 5 5 6 6 6 7 7 7 8 8 bX$ 0 nX0 vX$ bX8 8 7 7 7 7 7 8 8 8 7 ",
"7 7 8 8 bX8 7 8 8 8 8 bXvX0 0 nXnXnX0 $ 8 8 7 7 6 6 5 5 6 7 7 6 6 7 6 5 5 5 6 6 8 8 8 8 bX$ 0 nXnX0 vXbX8 8 7 6 7 6 6 7 7 8 7 7 ",
"7 7 7 8 8 7 7 7 8 8 8 bX$ vX0 nXnXnX0 0 bX8 8 7 7 6 5 6 6 7 7 6 7 8 7 6 6 6 7 8 8 bX8 bXbX$ 0 nXvXvXbX8 8 7 7 6 6 6 6 6 6 6 7 7 ",
"6 7 7 8 7 7 7 7 7 8 7 8 bX$ vX0 nXnXnX0 $ $ $ bXbX7 6 6 6 7 7 7 7 7 7 6 6 7 7 8 8 8 8 bX$ 0 0 0 $ $ 8 7 7 7 7 7 6 6 6 5 6 6 7 6 ",
"6 7 7 7 7 6 6 6 6 7 7 7 8 bX$ 0 nXq q nX0 vX$ $ $ bX8 7 6 7 7 7 7 7 7 6 6 7 7 8 bX8 bX$ vX0 0 vX$ bX7 7 6 6 6 6 7 6 6 6 5 6 6 7 ",
"7 7 6 6 6 6 6 6 6 7 7 7 8 8 $ 0 0 nXnXnXnX0 vX$ vX$ $ 8 7 8 8 8 bX8 8 7 8 8 7 8 bXbXbX$ 0 0 0 $ 8 7 7 7 6 6 6 6 6 6 6 6 5 5 6 6 ",
"6 6 6 5 5 5 6 7 6 7 7 7 7 7 $ 0 0 0 nXnXnX0 0 $ $ vXvXbXbXbX$ $ $ $ $ bX8 bX8 bXbXbX$ 0 nXnXvXbX7 7 7 6 6 7 6 6 6 7 7 6 6 6 6 7 ",
"6 6 6 6 5 6 7 7 6 7 7 8 7 7 8 $ vX0 0 nXnXnX0 0 0 0 vX$ $ $ $ vX$ vX$ $ bX$ $ vXvX$ $ 0 nXnXvXbX8 7 7 8 7 8 7 7 6 6 7 7 6 7 7 7 ",
"6 6 7 6 7 7 7 6 5 6 7 7 7 7 8 $ vX0 0 nXnX0 nXnXnXnX0 0 0 0 0 0 0 0 nX0 0 0 nX0 0 0 0 nXnXvX$ bX8 8 8 8 8 8 7 7 7 7 8 8 6 6 6 6 ",
"6 6 6 6 7 8 8 6 6 7 7 6 6 7 8 bXvX0 0 nXnXnXnXnXnXq nXnXnXnXq nXnXq nXnXnXnXnXnXnXnXnXnXnXvX$ bX8 8 8 8 8 8 8 8 8 8 8 7 6 7 6 6 ",
"6 6 6 7 7 8 7 6 7 8 7 6 7 bX$ vX0 nX0 nX0 nX0 0 0 nXnXnXnXnXnX0 0 nX0 0 0 0 0 0 vX0 0 0 nXvX$ $ $ bX8 8 8 7 7 8 7 7 7 6 6 7 6 6 ",
"5 6 6 6 7 7 6 7 7 7 7 7 8 $ $ vXvX0 0 nX0 0 0 vX0 0 0 0 nX0 0 0 vXvX$ vX$ vX0 0 0 0 $ vX0 0 $ $ $ bXbX8 7 7 8 8 8 7 7 6 7 6 6 5 ",
"6 5 6 6 7 7 6 6 6 5 6 7 7 8 $ vX$ 0 nXnX0 0 vX$ $ $ $ $ vX$ vXvX$ $ $ $ $ vXvX$ vX$ $ $ 0 nX0 vX$ bXbX8 8 7 7 8 7 6 6 6 6 5 5 6 ",
"6 5 6 6 7 6 5 7 5 4 5 5 6 7 8 $ $ 0 nXnX0 0 vX$ bXbX8 bXbX8 bXbXbX8 8 bXbX$ $ bX8 bX$ $ vXnXnX0 $ bX8 8 7 7 8 8 8 7 6 6 6 6 5 5 ",
"7 6 7 6 5 4 5 6 5 4 4 5 6 7 7 8 $ 0 vX0 0 $ $ bX8 bX8 8 8 8 8 bX8 8 8 8 bX8 bX8 7 8 $ $ $ 0 nX0 vXbX8 7 7 8 8 8 8 7 6 5 5 6 5 6 ",
"7 7 6 6 6 5 6 6 5 4 4 6 7 7 7 bX$ 0 0 vX$ bXbXbX8 bX8 8 8 8 8 8 8 8 7 8 8 8 bX8 7 8 $ $ $ vX0 nXvX$ 8 7 7 7 8 8 8 7 7 6 6 6 6 7 ",
"7 7 6 6 7 7 6 6 6 5 5 5 6 7 7 bX0 nX0 vX$ 8 8 bX8 8 bX8 8 8 8 7 8 7 7 8 8 7 8 8 8 8 8 bX$ $ vXnX0 $ 8 8 8 7 8 7 6 6 6 6 6 5 7 7 ",
"7 7 6 7 8 7 7 6 6 6 5 5 7 7 8 $ 0 vX0 vX8 7 8 8 8 bX8 8 8 7 7 7 8 8 8 7 7 7 7 8 8 8 8 bX$ $ $ 0 0 vXbX7 7 7 8 7 6 6 6 6 6 5 6 6 ",
"8 8 8 7 8 7 7 6 6 5 5 5 7 8 bXvXvXvXvX$ 7 7 bXbX8 8 8 8 8 8 7 7 7 7 7 7 7 7 7 7 8 8 8 8 bX$ $ vX0 0 $ 7 7 8 bX8 6 6 6 6 6 6 6 6 ",
"7 8 8 8 7 7 7 6 6 6 6 6 7 bX$ vXvXvX$ bX7 7 8 8 8 7 7 8 7 7 7 7 7 7 8 8 7 7 7 7 8 8 7 8 bX$ $ 0 0 nXvXbX8 8 bX8 6 6 6 6 6 6 6 7 ",
"7 7 bX8 7 7 7 6 7 8 7 8 8 $ vXvX0 $ bX7 7 7 8 bX8 7 7 7 7 7 7 7 8 7 7 7 7 7 7 7 7 7 7 8 8 bX$ 0 0 nX0 $ 8 8 bX8 8 7 7 7 7 6 7 7 ",
"8 7 8 8 8 7 8 7 8 8 8 bXbX$ 0 vXvXbX8 7 7 7 8 bX8 7 7 7 7 8 7 7 7 7 7 7 6 6 6 7 7 7 7 8 8 bX$ 0 nXnXnX0 $ bX8 8 8 7 8 8 8 7 7 7 ",
"bX8 8 8 8 8 8 bXbX8 $ $ $ 0 0 vX$ 7 7 7 7 7 7 8 7 7 7 7 8 7 7 7 7 6 7 7 6 5 6 6 7 7 8 8 8 bX$ 0 0 nXnX0 0 $ bX8 8 8 bX8 8 8 8 bX",
"vX$ 8 bXbXbXbX$ $ bX$ $ vX0 vX$ 7 6 7 7 8 7 7 7 7 7 6 7 7 6 6 7 7 6 7 7 7 6 6 7 7 7 7 8 bXbXbX0 nXnXnXnX0 vX$ bXbX8 bXbX8 bX8 $ ",
"vX0 $ bX$ $ vXvX$ $ vX0 0 $ $ bX7 6 6 7 7 7 7 7 6 6 6 6 7 7 7 6 7 7 7 7 7 7 6 7 7 7 8 bXbX8 bX$ 0 0 0 nXnX0 vX$ $ $ $ $ $ $ $ $ ",
"nXnX0 vX$ vX0 0 vX0 0 nXnXvX$ 8 7 6 6 6 7 7 7 6 7 7 7 7 7 8 7 7 8 8 7 7 7 7 7 7 7 7 8 bX8 8 bX$ 0 nXnXnXnXnXnX0 0 0 vXvXvX0 0 0 ",
"vX0 0 vX$ $ $ 0 vXvX$ nXnX0 vXbX7 7 7 7 8 7 7 7 7 6 7 8 8 8 7 7 7 8 8 7 7 6 6 7 6 6 7 7 8 8 bX$ vX0 nX0 0 0 0 0 $ $ $ bXbX$ $ vX",
"$ $ vX0 $ vXvX0 0 0 0 vXnX0 vX8 8 8 7 7 7 6 6 6 7 6 6 7 8 8 7 7 7 7 8 7 6 6 6 6 6 6 7 7 8 bXbX$ $ 0 q nX0 nX0 0 $ $ $ $ bX$ $ $ ",
"bXbX$ vXvX$ $ $ 0 0 0 0 0 nX0 $ 8 8 7 7 6 6 6 6 7 7 7 7 7 8 7 7 7 7 7 7 6 7 6 6 6 6 7 7 8 8 bX$ 0 nXq nX0 0 0 vXvX$ $ $ $ bXbXbX",
"8 8 bXbX$ $ bXbX$ $ vXvX0 0 nXvXbX8 7 7 6 6 6 6 6 7 7 7 7 7 7 8 7 7 7 7 7 6 6 6 5 6 6 7 7 8 bX$ 0 nXnX0 vX$ $ $ $ $ bX8 8 8 8 bX",
"8 8 8 8 bXbXbX8 bX$ $ $ vX0 nX0 $ bX8 7 6 6 6 6 6 6 7 8 7 7 8 7 8 7 7 6 6 7 7 6 5 6 7 8 8 8 $ vXnXnX0 vX$ bX8 8 8 bX8 8 7 7 8 7 ",
"8 8 8 8 bXbX8 8 $ $ $ $ $ 0 nXnXvXbX8 8 7 6 6 6 6 7 8 8 8 7 8 7 8 7 8 6 6 7 7 6 5 6 7 8 bXbXvX0 nXnXvX$ bXbX8 8 8 8 8 8 7 7 7 7 ",
"8 8 8 8 bXbXbXbXbX$ $ $ $ vX0 nX0 $ bXbX8 6 6 6 6 7 8 7 7 8 8 7 7 8 7 6 6 6 6 6 6 7 7 7 8 $ vXnXq nXvXbX8 8 8 8 8 8 8 7 7 7 7 7 ",
"7 7 7 8 bXbX8 8 bXbXbXbX$ vX0 nXnXvX$ $ 7 6 6 6 6 6 6 6 7 8 8 7 8 8 7 6 6 6 6 6 7 7 7 8 8 $ 0 nXnX0 $ 8 8 8 8 8 8 8 8 8 8 7 7 7 ",
"7 7 7 8 8 8 7 8 bXbXbXbXbX$ vX0 nXnX$ bX7 6 6 7 6 6 7 7 8 8 7 7 7 7 7 7 7 7 6 5 6 7 8 bXbX$ nXq 0 vXbXbX8 bXbX8 8 8 8 7 7 7 7 7 ",
"6 7 7 7 7 7 7 8 8 bXbXbX8 8 $ 0 nXnXvX$ bX7 7 7 6 7 7 8 8 8 7 7 8 7 8 7 8 7 6 6 6 7 7 bXbX$ q q 0 $ bX8 8 8 8 7 8 8 7 7 7 7 6 6 ",
"6 6 7 8 8 7 7 8 bX$ bXbXbX8 bX$ 0 nX0 $ $ 8 7 7 7 7 7 7 8 8 7 8 8 8 8 7 7 7 5 6 6 7 8 bX$ 0 q 0 $ bXbX7 7 8 8 7 8 8 7 7 7 7 6 6 ",
"6 7 7 8 8 7 7 8 bXbXbXbX8 8 8 $ vX0 nX0 vXbX7 7 8 8 8 8 8 8 7 8 8 8 8 7 8 6 6 6 6 7 bX$ 0 q nX0 $ 8 8 7 7 8 7 7 7 7 7 7 7 7 6 6 ",
"6 7 7 8 7 8 8 bXbX8 bXbX7 8 8 $ vXvX0 0 vX$ bX8 7 bX7 7 7 7 8 8 8 bXbX8 8 7 7 7 8 bX$ $ 0 q nX$ 8 8 7 7 7 7 7 7 6 7 7 7 7 7 7 6 ",
"6 7 6 7 7 7 7 bX$ 8 8 8 7 8 bXbX$ vX0 0 0 vXvX$ bXbX8 7 7 8 bX8 $ vXvXvXvX$ $ $ vX0 0 0 nXq 0 $ 8 7 6 6 6 6 7 7 6 7 7 7 7 7 6 6 ",
"7 6 6 7 7 6 7 8 bXbXbX8 7 8 8 8 8 $ 0 nX0 0 0 0 vX$ $ bX$ bX$ $ 0 0 0 nXnXnXnX0 nXnXq nXq nX0 $ 8 8 7 7 7 7 7 7 6 6 7 7 7 6 6 6 ",
"6 6 6 6 6 6 7 7 8 7 8 7 7 8 bX8 bX$ 0 nXnXnXnXnXnX0 0 0 0 vX0 0 nXnXnXq q q nXq q q q q q nX0 $ 8 8 8 7 7 8 7 7 6 7 7 7 6 6 6 6 "
};
