/* XPM */
static char *_62d8e793aa94b86cc62c1281bb26323fH0Qs5VkipVYMseF[] = {
/* columns rows colors chars-per-pixel */
"64 64 256 2 ",
"   c black",
".  c #0000A8",
"X  c #00A800",
"o  c #00A8A8",
"O  c #A80000",
"+  c #A800A8",
"@  c #A85400",
"#  c #4C4436",
"$  c gray33",
"%  c #5454FC",
"&  c #524A42",
"*  c #5E5246",
"=  c #736352",
"-  c #685D4C",
";  c #FCFC54",
":  c gray99",
">  c #ECECEC",
",  c gainsboro",
"<  c #D0D0D0",
"1  c #C0C0C0",
"2  c #B4B4B4",
"3  c gray66",
"4  c #989898",
"5  c gray55",
"6  c #7C7C7C",
"7  c gray44",
"8  c #646464",
"9  c gray33",
"0  c #484848",
"q  c gray22",
"w  c #2C2C2C",
"e  c #202020",
"r  c #FC0000",
"t  c #EC0000",
"y  c #E00000",
"u  c #D40000",
"i  c #C80000",
"p  c #BC0000",
"a  c #B00000",
"s  c #A40000",
"d  c #980000",
"f  c #880000",
"g  c #7C0000",
"h  c #700000",
"j  c #640000",
"k  c #580000",
"l  c #4C0000",
"z  c #400000",
"x  c #FCD8D8",
"c  c #FCB8B8",
"v  c #FC9C9C",
"b  c #FC7C7C",
"n  c #FC5C5C",
"m  c #FC4040",
"M  c #FC2020",
"N  c #FC0000",
"B  c #FCA85C",
"V  c #FC9840",
"C  c #FC8820",
"Z  c #FC7800",
"A  c #E46C00",
"S  c #CC6000",
"D  c #B45400",
"F  c #9C4C00",
"G  c #FCFCD8",
"H  c #FCFCB8",
"J  c #FCFC9C",
"K  c #FCFC7C",
"L  c #FCF85C",
"P  c #FCF440",
"I  c #FCF420",
"U  c #FCF400",
"Y  c #E4D800",
"T  c #CCC400",
"R  c #B4AC00",
"E  c #9C9C00",
"W  c #848400",
"Q  c #706C00",
"!  c #585400",
"~  c #404000",
"^  c #849C7B",
"/  c #738C6B",
"(  c #6B7B63",
")  c #637352",
"_  c #5A6B52",
"`  c #525A4A",
"'  c #4A5242",
"]  c #425239",
"[  c #394A39",
"{  c #313931",
"}  c #313929",
"|  c #293129",
" . c #293121",
".. c #212921",
"X. c #182118",
"o. c #181818",
"O. c #00FC00",
"+. c #00EC00",
"@. c #00E000",
"#. c #00D400",
"$. c #04C800",
"%. c #04BC00",
"&. c #04B000",
"*. c #04A400",
"=. c #049800",
"-. c #048800",
";. c #047C00",
":. c #047000",
">. c #046400",
",. c #045800",
"<. c #044C00",
"1. c #044000",
"2. c #C8BFB2",
"3. c #A89A85",
"4. c #9A8C77",
"5. c #7CFCF8",
"6. c #5CFCFC",
"7. c #40FCFC",
"8. c #20FCFC",
"9. c #00FCFC",
"0. c #00E4E4",
"q. c #00CCCC",
"w. c #00B4B4",
"e. c #009C9C",
"r. c #008484",
"t. c #007070",
"y. c #005858",
"u. c #004040",
"i. c #94846B",
"p. c #8C7B67",
"a. c #847B63",
"s. c #81735D",
"d. c #7B6B5A",
"f. c #007CCC",
"g. c #006CB4",
"h. c #005C9C",
"j. c #736B5A",
"k. c #736B52",
"l. c #9C9CFC",
"z. c #7C80FC",
"x. c #5C60FC",
"c. c #4040FC",
"v. c #2024FC",
"b. c #0004FC",
"n. c #0000FC",
"m. c #0000EC",
"M. c #0000E0",
"N. c #0000D4",
"B. c #0000C8",
"V. c #0000BC",
"C. c #0000B0",
"Z. c #0000A4",
"A. c #000098",
"S. c #000088",
"D. c #00007C",
"F. c #000070",
"G. c #000064",
"H. c #000058",
"J. c #00004C",
"K. c #000040",
"L. c #282828",
"P. c #FCE034",
"I. c #FCD424",
"U. c #FCCC18",
"Y. c #FCC008",
"T. c #FCB400",
"R. c #B420FC",
"E. c #A800FC",
"W. c #9800E4",
"Q. c #8000CC",
"!. c #7400B4",
"~. c #60009C",
"^. c #500084",
"/. c #440070",
"(. c #340058",
"). c #280040",
"_. c #FCD8FC",
"`. c #FCB8FC",
"'. c #FC9CFC",
"]. c #FC7CFC",
"[. c #FC5CFC",
"{. c #FC40FC",
"}. c #FC20FC",
"|. c #FC00FC",
" X c #E000E4",
".X c #C800CC",
"XX c #B400B4",
"oX c #9C009C",
"OX c #840084",
"+X c #6C0070",
"@X c #580058",
"#X c #400040",
"$X c #FCE8DC",
"%X c #FCE0D0",
"&X c #FCD8C4",
"*X c #FCD4BC",
"=X c #FCCCB0",
"-X c #FCC4A4",
";X c #FCBC9C",
":X c #FCB890",
">X c #FCB080",
",X c #FCA470",
"<X c #FC9C60",
"1X c #F0945C",
"2X c #E88C58",
"3X c #DC8854",
"4X c #D08050",
"5X c #C87C4C",
"6X c #BC7848",
"7X c #B47044",
"8X c #A86840",
"9X c #A0643C",
"0X c #9C6038",
"qX c #905C34",
"wX c #885830",
"eX c #80502C",
"rX c #744C28",
"tX c #6C4824",
"yX c #5C4020",
"uX c #543C1C",
"iX c #483818",
"pX c #403018",
"aX c #382C14",
"sX c #28200C",
"dX c #600064",
"fX c #006464",
"gX c #006060",
"hX c #00001C",
"jX c #00002C",
"kX c #302410",
"lX c #480048",
"zX c #500050",
"xX c #000034",
"cX c gray11",
"vX c #4C4C4C",
"bX c gray36",
"nX c gray25",
"mX c gray19",
"MX c #343434",
"NX c #2E2B22",
"BX c #B8E8E8",
"VX c #9CDCDC",
"CX c #74C8C8",
"ZX c #48C0C0",
"AX c #20B4B4",
"SX c #20B0B0",
"DX c #00A4A4",
"FX c #009898",
"GX c #008C8C",
"HX c #008484",
"JX c #007C7C",
"KX c #007878",
"LX c #007474",
"PX c #007070",
"IX c #006C6C",
"UX c #980088",
/* pixels */
"q nXmXvXmXq vXq q mXq L.mXo.e L.e q mXmXL.o.e mXmXmXmXq L.q mXmXnXmXmXnXq L.L.mXq mXq mXmXmXe mXq mXq mXq e q mXmXq q mXq q q q ",
"q mXnXmXq q mXq q q mXq mXL.L.L.q L.q q q e o.mXq mXL.mXmXmXL.mXq mXq q mXmXq q mXmXL.q mXmXq mXmXmXmXmXL.mXmXL.mXmXmXmXmXmXmXq ",
"L.mXL.mXmXq L.mXq q mXq mXo.e L.q mXL.q L.o.mXnXmXq q mXL.mXnXmXL.e q mXq q mXmXmXL.q q mXq L.mXmXq q mXe mXmXmXmXmXq mXL.mXq mX",
"nXq q mXq q mXmXL.mXL.e mXo.L.e mXmXq mXL.o.nXmXL.mXq q q q q q mXL.mXq mXmXL.L.mXmXmXmXL.L.mXmXL.mXo.L.L.mXmXmXq q q L.mXq mXq ",
"q q L.mXe mXq mXmXmXL.mXL.e mXq mXmXq L.mXo.mXL.L.q q mXmXmXL.q nXvXmXq q mXq L.mXq q q L.L.mXL.q mXL.e mXL.L.q mXq e q mXmXq q ",
"nXnXnXq q q mXmXmXmXmXL.e e mXmXmXmXL.q mXe mXq q nXmXmXmXq L.mXmXq q q q L.mXL.mXmXe mXo.e mXmXmXmXmXmXe mXq q mXmXq q mXq mXmX",
"mXq mXL.q L.L.L.L.mXmXo.mXL.mXmXmXL.mXq nXL.q L.q nXL.q o.mXmXmXmXq q mXmXL.mXq q L.e q q L.mXL.L.mXL.L.q q mXmXe L.q nXmXq q mX",
"mXmXmXmXq q q mXe L.e e q e nXnXmXL.q mXL.q q L.L.nXL.mXmXmXq mXL.mXq mXq mXmXe q o.L.L.L.nXq mXL.mXo.mXmXq L.mXq L.L.mXq q mXmX",
"nXq q mXnXmXmXL.mXmXo.o.mXe mXL.mXmXq q mXo.o.e mXmXe q L.L.mXq L.mXmXq q q mXL.mXmXL.L.mXL.e L.L.e e mXq mXq q mXmXnXmXq q q q ",
"q nXmXL.L.L.o.mXq o.L.mXq mXL.L.mXL.mXL.q e nXmXo.L.e e mXo.L.L.mXL.mXL.L.mXL.e L.mXmXL.L.mXe mXmXL.mXmXq mXnXmXL.mXq mXmXq nXmX",
"mXvXq q nXmXmXL.e L.L.mXq L.mXmXL.L.L.q q nXmXL.mXo.q mXmXe mXe L.e L.o.L.L.mXmXmXL.q mXe e mXL.mXq q q mXmXmXq L.q q q mXq nXmX",
"mXq mXmXmXe mXmXL.o.e L.L.mXe nXmXmXq q mXmXq mXL.mXq mXq L.o.mXnXmXq e L.q mXmXnXmXmXL.L.e mXmXmXq mXmXmXmXq q q q q mXq mXmXL.",
"L.nXq mXo.mXq mXo.mXo.L.mXmXmXL.mXq mXq L.q mXmXq L.mXnXmXq mXnXL.q o.e mXmXq L.mXq q e o.mXmXL.mXmXL.mXmXnXq mXmXL.mXmXq q q q ",
"mXmXL.L.mXmXo.e mXmXmXL.L.mXmXq mXq mXL.mXq mXL.q e e mXL.q q L.L.e mXo.mXL.L.q q L.L.e L.mXmXmXL.q L.q mXL.L.mXmXmXmXmXq mXq mX",
"nXL.L.mXq o.L.mXo.e o.q L.L.L.mXmXq mXL.e mXe L.mXq q mXnXq mXq mXe e o.mXL.nXmXL.o.e o.L.q L.L.mXmXmXL.L.L.mXmXq mXq nXmXnXvXmX",
"e q q L.L.q e mXe o.mXL.q L.mXL.mXo.L.mXL.e e L.q mXnXL.mXq o.mXo.L.o.o.mXL.L.mXq e mXmXmXmXo.mXq mXmXnXmXe mXq q q mXq mXmXL.q ",
"q L.L.mXmXmXo.o.e mXmXmXq L.mXvXmXo.e nXmXmXe mXL.L.mXmXq nXmXmXL.mXmXe mXmXq mXmXe mXq nXL.e L.mXmXmXnXe e mXmXvXL.L.q nXq mXnX",
"mXL.mXL.o.o.o.o.mXo.L.mXq mXq mXq mXL.o.mXe q L.mXmXmXmXe mXe mXmXo.e L.e q mXL.e mXe o.mXmXL.L.q q q L.L.q q mXL.mXnXq q L.q L.",
"q mXe mXe o.e q nXmXL.q L.o.mXL.nXmXmXo.o.mXL.mXmXL.mXnXmXmXmXmXmXe e L.o.L.L.mXmXL.mXq L.e mXq q mXmXo.mXq nXq q nXmXmXq nXL.q ",
"nXq mXo.o.o.mXL.L.L.mXmXmXq L.L.L.L.mXL.e mXmXe mXnXL.q nXmXe mXo.e e mXL.o.mXnXL.e mXL.q q nXmXmXmXmXnXq q nXmXe nXq mXq mXmXq ",
"mXmXL.o.o.mXe mXL.mXnXL.q e e mXL.o.e o.e L.L.mXq L.L.mXmXmXL.o.L.mXq L.mXq L.L.o.o.o.mXq L.e mXL.o.mXq mXq q mXL.q q q q nXnXq ",
"e o.e e L.mXmXq nXmXmXmXmXmXe L.L.mXmXo.L.q q e L.nXnXmXmXmXo.o.mXmXmXL.L.mXL.q mXmXe mXq mXq e o.o.mXmXq q mXmXL.L.mXmXmXmXq nX",
"o.e e q mXL.mXmXmXq nXL.mXq q L.mXo.o.e e L.q mXmXmXmXmXmXmXe o.mXmXmXmXmXmXq mXq mXL.L.L.o.mXo.o.o.q mXq mXe q q q mXL.nXq mXq ",
"e o.L.q mXL.mXmXmXo.e mXmXL.mXL.mXmXmXo.mXe q q nXL.mXvXnXL.o.e mXq L.mXmXmXmXL.mXnXnXL.q o.mXL.L.o.mXmXL.mXL.e mXq q nXnXmXnXmX",
"o.o.mXq mXL.e L.L.o.o.mXmXo.mXL.L.e e L.nXq q o.e q L.L.L.mXe mXL.mXo.mXmXmXmXq q nXmXL.mXo.e o.L.mXq q L.e mXq mXmXq q mXmXq L.",
"e e mXmXmXmXmXmXmXL.e L.L.L.mXL.mXo.L.mXL.q mXmXq mXo.o.L.o.e mXq e vXq mXmXmXnXmXmXmXmXq e mXo.e mXq L.mXq L.q nXq mXq L.q q L.",
"mXmXq mXmXmXL.e L.e q q mXL.nXe e e L.mXmXL.mXmXq mXe L.o.e mXq L.L.e L.q mXmXq q mXL.L.L.mXe o.e mXL.q q mXo.q nXq nXq L.mXmXo.",
"q q mXq q L.mXL.mXL.L.mXmXmXo.o.e L.L.L.nXmXe q mXmXo.o.e mXmXq nXq L.mXL.mXmXmXmXq mXq mXmXe e o.o.o.e e e mXnXmXq q mXnXq o.mX",
"mXmXmXmXL.L.L.mXL.L.mXmXmXe o.L.e L.mXmXnXmXq L.e o.L.L.e e q mXL.q q mXmXo.L.nXmXmXL.mXmXe o.o.mXe L.mXo.L.L.q nXmXmXq q L.o.q ",
"L.L.mXmXmXL.L.mXe mXmXmXo.o.e mXe L.L.e mXL.mXe mXe q q mXe mXmXL.mXq nXmXL.e L.mXmXL.mXL.o.o.mXmXe L.L.e o.mXmXmXq mXq q L.o.mX",
"o.mXmXq e mXL.mXq mXL.e mXmXmXL.L.o.o.o.mXL.e e mXo.q nXmXmXq e q mXmXmXq mXL.L.mXL.o.o.o.L.mXmXmXmXL.nXmXL.L.mXmXq q q q L.mXq ",
"q q mXmXmXmXmXL.mXL.mXL.o.e e L.mXL.L.q e mXe L.mXe q mXmXmXmXmXmXL.L.mXmXq mXL.mXo.o.e e mXq mXe mXq mXe mXq L.mXL.vXmXL.mXq mX",
"mXq mXnXL.mXq mXmXL.mXL.mXmXL.L.mXmXmXL.o.o.o.mXq mXL.L.q q mXmXL.q mXq q q mXL.o.o.e mXmXq L.mXL.mXmXmXq mXL.mXe q mXmXo.mXL.e ",
"L.mXmXq mXe e mXq e mXL.mXL.q L.mXL.q q e e L.mXq mXq mXmXmXq q mXmXmXq q L.L.mXo.o.mXmXmXq L.mXmXmXL.L.mXL.mXnXmXq mXmXL.mXmXmX",
"mXL.L.mXq mXmXL.L.mXmXL.mXL.q nXe mXmXmXL.o.q q nXq mXnXq q nXmXmXmXmXq mXL.mXmXL.o.L.mXL.q L.mXmXmXq q mXq mXnXq L.mXmXq q mXq ",
"mXmXmXq mXmXq q L.mXmXmXo.e L.mXL.q mXmXe mXq L.mXq mXmXq mXmXL.q mXq mXnXmXmXmXo.e mXmXmXmXnXL.L.mXq q mXmXe L.mXo.e o.q mXe L.",
"q mXmXq q q L.q mXe L.mXmXL.q L.L.nXmXmXmXL.e q mXnXL.L.mXq mXmXmXnXmXmXL.e mXe o.e mXL.mXL.mXL.o.e L.mXL.L.mXmXq mXmXe nXmXmXo.",
"mXmXL.mXL.mXmXmXq q mXmXmXmXmXmXmXq L.mXo.o.mXq L.q q nXnXnXmXe e q q q mXe o.o.e L.q q mXmXmXmXe L.q mXmXmXq mXq o.mXL.mXmXL.mX",
"nXnXmXmXL.q nXmXL.e mXmXL.mXmXnXmXL.nXmXo.L.q nXmXmXq q q L.q nXmXmXL.L.mXmXmXo.mXmXq mXL.mXL.L.e mXmXL.mXnXq o.mXmXmXmXL.mXmXL.",
"mXq mXnXmXmXq mXmXe L.L.L.L.e mXL.mXq mXo.e L.mXnXmXmXmXq q L.L.e q nXmXnXmXmXo.mXq mXq mXmXo.L.q L.q mXmXL.L.mXL.mXq L.L.L.o.L.",
"nXq q q mXq q L.q L.e mXL.e q q L.mXmXe e L.q L.q mXq L.mXL.q mXmXL.nXmXmXL.mXL.o.mXnXq L.e e mXmXmXq q e L.mXnXL.mXL.mXq mXmXq ",
"q mXq q q mXmXq mXe q mXo.mXmXmXo.mXe L.o.mXmXq q mXmXmXmXmXL.mXe mXq mXmXL.nXo.mXmXq mXo.L.mXe mXL.mXq L.e L.e mXmXmXmXmXL.mXmX",
"q mXq q q L.e nXmXL.mXq L.e o.L.mXq mXL.o.mXq mXq L.mXq q e mXmXmXq q mXL.mXL.L.o.e L.L.o.L.o.L.q mXo.L.L.mXL.mXq q L.mXL.mXmXq ",
"q mXq mXmXmXmXq nXmXmXL.mXmXmXo.L.q mXo.e mXq mXnXL.mXmXmXmXq mXmXnXL.mXmXe L.q e e mXo.e o.mXmXq mXmXL.L.L.mXmXmXnXmXmXq q q L.",
"q q mXmXL.o.q q nXq q q mXq mXo.L.mXmXq mXmXmXmXL.e L.q L.L.q mXmXmXnXq mXo.mXL.L.e mXe mXmXL.q mXo.L.L.mXmXq mXq q e mXmXmXq L.",
"q nXmXmXo.mXL.q mXq q q mXq o.o.o.o.o.q q mXmXL.q L.L.q nXmXmXmXmXmXmXq e o.mXmXL.o.L.mXe L.o.e L.mXL.L.e L.q L.mXq o.mXL.mXmXmX",
"L.q mXL.e mXq mXL.q mXq q q mXmXo.e e e nXL.L.q L.mXe mXmXq q q mXmXmXmXL.e mXmXq q L.o.e L.L.mXmXq nXmXo.mXL.mXL.mXmXL.L.mXL.mX",
"e q q L.e mXmXL.nXL.mXmXmXmXe L.o.L.q e L.mXL.mXL.mXL.L.q mXL.q q q q mXL.L.o.o.L.mXmXmXe o.mXo.e mXL.e o.e o.mXmXmXmXmXe q mXe ",
"nXmXmXe mXmXmXmXq L.mXL.L.mXo.e o.mXmXnXq mXmXmXmXo.o.o.e mXq L.L.mXo.e mXq mXmXq mXe o.o.mXL.L.e mXo.L.L.o.L.q mXq mXo.mXL.q mX",
"mXmXmXe mXmXq q mXq mXq mXL.mXo.e L.mXmXmXmXL.mXL.o.o.o.e e q mXmXmXo.mXmXq mXL.mXq L.o.o.L.mXe e o.mXmXmXe mXe L.e L.o.L.q L.mX",
"q L.L.e mXmXmXq q nXnXL.q L.o.L.mXL.e e mXmXo.e L.L.e o.L.L.L.L.mXo.L.mXL.L.L.mXmXq q o.L.mXL.o.e e mXmXmXq e mXL.o.mXnXq L.L.q ",
"L.o.o.e q q q mXmXq nXmXL.o.o.e L.nXmXmXmXL.q q q mXmXL.o.o.e e e o.e mXo.mXe mXmXL.L.o.L.L.L.L.nXL.L.mXmXmXL.mXL.o.mXL.nXmXmXmX",
"e o.e q mXq mXq mXL.mXq L.o.L.mXmXL.q e nXmXe q L.mXq o.L.o.o.e mXmXq L.mXL.mXmXo.o.L.o.mXL.o.o.L.q q e mXmXmXmXo.o.L.mXq mXmXmX",
"e mXL.mXq L.mXq mXe L.mXo.o.e mXL.L.q q q L.q L.mXq nXL.o.o.L.mXmXe L.e q L.e L.e L.o.e mXe e mXnXmXq mXmXq mXL.o.e mXq L.mXmXL.",
"e mXq mXq e L.mXL.q L.L.e o.L.L.L.L.mXmXL.mXL.e e L.q mXe o.o.L.mXmXL.e e L.mXL.o.o.mXmXmXe mXq q mXnXmXmXmXmXL.L.o.q nXmXmXe L.",
"e mXq e mXmXmXmXL.L.L.mXo.o.mXL.e mXL.e e q mXmXmXL.L.mXmXe o.mXmXe mXL.mXo.L.mXo.mXe mXL.L.mXe mXL.q mXq mXq e e e e mXe mXo.L.",
"L.e mXmXnXmXmXmXmXmXL.e e o.L.L.mXq mXmXmXmXq mXq e L.L.e o.e e L.mXmXmXL.o.e o.mXL.L.mXe e L.L.q mXmXmXmXmXmXL.mXo.mXL.o.L.mXmX",
"L.mXq mXL.mXmXe q o.o.mXe e mXq nXmXmXmXmXL.mXmXL.mXL.L.e e L.mXL.mXq q L.L.mXe o.L.mXe L.e mXmXq mXmXL.L.mXnXmXmXL.o.o.e mXL.mX",
"mXmXmXo.mXmXmXmXmXL.L.mXmXmXq nXq q L.q q mXmXL.L.e L.mXL.L.L.L.L.L.L.L.mXL.L.L.o.mXmXq e mXe q L.mXmXL.q mXq mXmXL.o.o.L.q mXmX",
"q e q L.L.mXL.e mXmXmXq L.e e q q q nXmXo.L.mXq q o.L.L.o.L.L.L.mXmXmXL.mXe e L.mXmXmXmXmXmXq q L.mXmXmXq q mXmXq q q L.mXmXq q ",
"e mXL.L.mXL.L.q q mXmXmXL.L.o.o.mXL.L.mXq mXL.L.mXmXo.L.e mXmXe L.q L.mXL.mXL.mXmXe mXmXmXL.mXq mXmXmXq q mXmXq mXL.mXmXmXmXmXq ",
"q L.mXL.mXe mXL.mXmXL.L.mXmXL.o.L.mXmXq mXnXL.mXo.e L.e L.e mXmXq mXmXe mXmXL.q q L.mXmXq mXmXmXmXnXmXq mXmXmXmXL.L.mXmXmXmXq mX",
"nXmXmXmXq e mXL.mXe mXL.mXmXL.e q mXmXmXq L.mXo.o.e L.mXL.q L.L.mXL.mXmXmXL.e L.mXq mXmXmXe o.mXL.q q mXmXmXo.mXmXL.mXq q L.q q ",
"mXL.o.q mXq mXq mXmXL.mXmXmXo.mXmXmXmXmXq mXL.o.e e mXmXL.mXL.mXq L.e L.e mXe e e L.mXmXq q mXL.mXL.mXq q mXe o.mXmXq mXmXL.q mX"
};
